GentiumBookPlus-BoldItalic.ufo
<glyph name="Space" format="1">
  <advance width="410"/>
  <unicode hex="0020"/>
  <outline>
    <contour>
      <point x="205" y="0" type="move" name="H"/>
    </contour>
    <contour>
      <point x="195" y="-100" type="move" name="L"/>
    </contour>
    <contour>
      <point x="180" y="0" type="move" name="O"/>
    </contour>
    <contour>
      <point x="620" y="870" type="move" name="R"/>
    </contour>
    <contour>
      <point x="390" y="1320" type="move" name="U"/>
    </contour>
  </outline>
</glyph>
<glyph name="HyphenMinus" format="1">
  <advance width="691"/>
  <unicode hex="002D"/>
  <outline>
    <contour>
      <point x="650" y="551" type="curve"/>
      <point x="621" y="585" type="line"/>
      <point x="86" y="585" type="line"/>
      <point x="70" y="559"/>
      <point x="33" y="498"/>
      <point x="23" y="469" type="curve"/>
      <point x="51" y="435" type="line"/>
      <point x="589" y="435" type="line"/>
      <point x="601" y="457"/>
      <point x="639" y="522"/>
    </contour>
    <contour>
      <point x="365" y="1000" type="move" name="U"/>
    </contour>
  </outline>
</glyph>
<glyph name="GraveAccent" format="1">
  <advance width="606"/>
  <unicode hex="0060"/>
  <outline>
    <contour>
      <point x="581" y="1057" type="curve"/>
      <point x="462" y="1469" type="line"/>
      <point x="428" y="1469"/>
      <point x="263" y="1434"/>
      <point x="231" y="1428" type="curve"/>
      <point x="189" y="1372" type="line"/>
      <point x="489" y="1016" type="line"/>
      <point x="513" y="1022"/>
      <point x="554" y="1041"/>
    </contour>
    <contour>
      <point x="527" y="1370" type="move" name="U"/>
    </contour>
  </outline>
</glyph>
<glyph name="Diaer" format="1">
  <advance width="1042"/>
  <unicode hex="00A8"/>
  <outline>
    <contour>
      <point x="938" y="1272" type="curve" smooth="yes"/>
      <point x="938" y="1327"/>
      <point x="905" y="1383"/>
      <point x="834" y="1383" type="curve" smooth="yes"/>
      <point x="728" y="1383"/>
      <point x="665" y="1267"/>
      <point x="665" y="1186" type="curve" smooth="yes"/>
      <point x="665" y="1131"/>
      <point x="696" y="1076"/>
      <point x="767" y="1076" type="curve" smooth="yes"/>
      <point x="874" y="1076"/>
      <point x="938" y="1188"/>
    </contour>
    <contour>
      <point x="546" y="1272" type="curve" smooth="yes"/>
      <point x="546" y="1327"/>
      <point x="513" y="1383"/>
      <point x="442" y="1383" type="curve" smooth="yes"/>
      <point x="336" y="1383"/>
      <point x="273" y="1267"/>
      <point x="273" y="1186" type="curve" smooth="yes"/>
      <point x="273" y="1131"/>
      <point x="304" y="1076"/>
      <point x="375" y="1076" type="curve" smooth="yes"/>
      <point x="482" y="1076"/>
      <point x="546" y="1188"/>
    </contour>
    <contour>
      <point x="620" y="1353" type="move" name="U"/>
    </contour>
  </outline>
</glyph>
<glyph name="SupTwo" format="1">
  <advance width="692"/>
  <unicode hex="00B2"/>
  <outline>
    <contour>
      <point x="720" y="1238" type="curve" smooth="yes"/>
      <point x="720" y="1303"/>
      <point x="651" y="1361"/>
      <point x="506" y="1361" type="curve" smooth="yes"/>
      <point x="335" y="1361"/>
      <point x="180" y="1258"/>
      <point x="168" y="1175" type="curve"/>
      <point x="186" y="1127" type="line"/>
      <point x="226" y="1131"/>
      <point x="341" y="1153"/>
      <point x="372" y="1168" type="curve"/>
      <point x="367" y="1229"/>
      <point x="389" y="1277"/>
      <point x="451" y="1277" type="curve" smooth="yes"/>
      <point x="504" y="1277"/>
      <point x="512" y="1244"/>
      <point x="512" y="1207" type="curve" smooth="yes"/>
      <point x="512" y="1095"/>
      <point x="430" y="993"/>
      <point x="81" y="664" type="curve"/>
      <point x="94" y="620" type="line"/>
      <point x="637" y="620" type="line"/>
      <point x="679" y="856" type="line"/>
      <point x="623" y="869" type="line"/>
      <point x="623" y="869"/>
      <point x="598" y="745"/>
      <point x="540" y="745" type="curve" smooth="yes"/>
      <point x="312" y="745" type="line"/>
      <point x="631" y="1027"/>
      <point x="720" y="1115"/>
    </contour>
    <contour>
      <point x="340" y="550" type="move" name="L"/>
    </contour>
    <contour>
      <point x="460" y="1400" type="move" name="U"/>
    </contour>
  </outline>
</glyph>
<glyph name="SupOne" format="1">
  <advance width="702"/>
  <unicode hex="00B9"/>
  <outline>
    <contour>
      <point x="645" y="686" type="line"/>
      <point x="517" y="701"/>
      <point x="497" y="724"/>
      <point x="499" y="740" type="curve" smooth="yes"/>
      <point x="581" y="1340" type="line"/>
      <point x="555" y="1367" type="line"/>
      <point x="487" y="1342"/>
      <point x="268" y="1278"/>
      <point x="190" y="1265" type="curve"/>
      <point x="202" y="1200" type="line"/>
      <point x="319" y="1223"/>
      <point x="348" y="1219"/>
      <point x="357" y="1209" type="curve" smooth="yes"/>
      <point x="367" y="1198"/>
      <point x="365" y="1182"/>
      <point x="361" y="1150" type="curve" smooth="yes"/>
      <point x="305" y="740" type="line" smooth="yes"/>
      <point x="303" y="723"/>
      <point x="269" y="701"/>
      <point x="131" y="686" type="curve"/>
      <point x="122" y="620" type="line"/>
      <point x="636" y="620" type="line"/>
    </contour>
    <contour>
      <point x="340" y="550" type="move" name="L"/>
    </contour>
    <contour>
      <point x="460" y="1400" type="move" name="U"/>
    </contour>
  </outline>
</glyph>
<glyph name="LtnCapAGrave" format="1">
  <advance width="1210"/>
  <unicode hex="00C0"/>
  <outline>
    <component base="LtnCapA"/>
    <component base="CombGrave.LP" xOffset="1025" yOffset="320"/>
    <contour>
      <point x="546" y="0" type="move" name="H"/>
    </contour>
    <contour>
      <point x="533" y="-100" type="move" name="L"/>
    </contour>
    <contour>
      <point x="877" y="0" type="move" name="O"/>
    </contour>
    <contour>
      <point x="760" y="1640" type="move" name="U"/>
    </contour>
  </outline>
</glyph>
<glyph name="LtnCapARingAbv" format="1">
  <advance width="1210"/>
  <unicode hex="00C5"/>
  <outline>
    <component base="LtnCapA"/>
    <component base="CombRingAbv" xOffset="1104" yOffset="320"/>
    <contour>
      <point x="546" y="0" type="move" name="H"/>
    </contour>
    <contour>
      <point x="533" y="-100" type="move" name="L"/>
    </contour>
    <contour>
      <point x="877" y="0" type="move" name="O"/>
    </contour>
    <contour>
      <point x="771" y="1740" type="move" name="U"/>
    </contour>
  </outline>
</glyph>
<glyph name="LtnCapICircum" format="1">
  <advance width="652"/>
  <unicode hex="00CE"/>
  <outline>
    <component base="LtnCapI"/>
    <component base="CombCircum.LP" xOffset="820" yOffset="320"/>
    <contour>
      <point x="269" y="0" type="move" name="H"/>
    </contour>
    <contour>
      <point x="250" y="-100" type="move" name="L"/>
    </contour>
    <contour>
      <point x="324" y="0" type="move" name="O"/>
    </contour>
    <contour>
      <point x="648" y="1072" type="move" name="R"/>
    </contour>
    <contour>
      <point x="494" y="1735" type="move" name="U"/>
    </contour>
  </outline>
</glyph>
<glyph name="LtnCapOGrave" format="1">
  <advance width="1191"/>
  <unicode hex="00D2"/>
  <outline>
    <component base="LtnCapO"/>
    <component base="CombGrave.LP" xOffset="1037" yOffset="320"/>
    <contour>
      <point x="540" y="0" type="move" name="H"/>
    </contour>
    <contour>
      <point x="616" y="0" type="move" name="O"/>
    </contour>
    <contour>
      <point x="1248" y="1072" type="move" name="R"/>
    </contour>
    <contour>
      <point x="772" y="1640" type="move" name="U"/>
    </contour>
    <contour>
      <point x="545" y="-100" type="move" name="L"/>
    </contour>
  </outline>
</glyph>
<glyph name="LtnCapOAcute" format="1">
  <advance width="1191"/>
  <unicode hex="00D3"/>
  <outline>
    <component base="LtnCapO"/>
    <component base="CombAcute.LP" xOffset="1115" yOffset="320"/>
    <contour>
      <point x="540" y="0" type="move" name="H"/>
    </contour>
    <contour>
      <point x="545" y="-100" type="move" name="L"/>
    </contour>
    <contour>
      <point x="616" y="0" type="move" name="O"/>
    </contour>
    <contour>
      <point x="1248" y="1072" type="move" name="R"/>
    </contour>
    <contour>
      <point x="773" y="1640" type="move" name="U"/>
    </contour>
  </outline>
</glyph>
<glyph name="LtnCapUGrave" format="1">
  <advance width="1282"/>
  <unicode hex="00D9"/>
  <outline>
    <component base="LtnCapU"/>
    <component base="CombGrave.LP" xOffset="1082" yOffset="320"/>
    <contour>
      <point x="620" y="0" type="move" name="H"/>
    </contour>
    <contour>
      <point x="590" y="-100" type="move" name="L"/>
    </contour>
    <contour>
      <point x="688" y="0" type="move" name="O"/>
    </contour>
    <contour>
      <point x="1296" y="1072" type="move" name="R"/>
    </contour>
    <contour>
      <point x="817" y="1640" type="move" name="U"/>
    </contour>
  </outline>
</glyph>
<glyph name="LtnCapUAcute" format="1">
  <advance width="1282"/>
  <unicode hex="00DA"/>
  <outline>
    <component base="LtnCapU"/>
    <component base="CombAcute.LP" xOffset="1160" yOffset="320"/>
    <contour>
      <point x="620" y="0" type="move" name="H"/>
    </contour>
    <contour>
      <point x="590" y="-100" type="move" name="L"/>
    </contour>
    <contour>
      <point x="688" y="0" type="move" name="O"/>
    </contour>
    <contour>
      <point x="1296" y="1072" type="move" name="R"/>
    </contour>
    <contour>
      <point x="818" y="1640" type="move" name="U"/>
    </contour>
  </outline>
</glyph>
<glyph name="LtnCapYAcute" format="1">
  <advance width="1178"/>
  <unicode hex="00DD"/>
  <outline>
    <component base="LtnCapY"/>
    <component base="CombAcute.LP" xOffset="1111" yOffset="320"/>
    <contour>
      <point x="541" y="-100" type="move" name="L"/>
    </contour>
    <contour>
      <point x="769" y="1640" type="move" name="U"/>
    </contour>
  </outline>
</glyph>
<glyph name="LtnSmCCedilla" format="1">
  <advance width="899"/>
  <unicode hex="00E7"/>
  <outline>
    <component base="LtnSmC"/>
    <component base="CombCedilla" xOffset="945"/>
    <contour>
      <point x="991" y="870" type="move" name="R"/>
    </contour>
    <contour>
      <point x="604" y="1000" type="move" name="U"/>
    </contour>
    <contour>
      <point x="345" y="-600" type="move" name="L"/>
    </contour>
  </outline>
</glyph>
<glyph name="LtnSmEDiaer" format="1">
  <advance width="885"/>
  <unicode hex="00EB"/>
  <outline>
    <component base="LtnSmE"/>
    <component base="CombDiaer" xOffset="938"/>
    <contour>
      <point x="398" y="0" type="move" name="H"/>
    </contour>
    <contour>
      <point x="384" y="-100" type="move" name="L"/>
    </contour>
    <contour>
      <point x="448" y="0" type="move" name="O"/>
    </contour>
    <contour>
      <point x="1062" y="870" type="move" name="R"/>
    </contour>
    <contour>
      <point x="602" y="1370" type="move" name="U"/>
    </contour>
  </outline>
</glyph>
<glyph name="LtnSmIGrave" format="1">
  <advance width="589"/>
  <unicode hex="00EC"/>
  <outline>
    <component base="LtnSmDotlessI"/>
    <component base="CombGrave" xOffset="674"/>
    <contour>
      <point x="248" y="0" type="move" name="H"/>
    </contour>
    <contour>
      <point x="248" y="-100" type="move" name="L"/>
    </contour>
    <contour>
      <point x="288" y="0" type="move" name="O"/>
    </contour>
    <contour>
      <point x="616" y="870" type="move" name="R"/>
    </contour>
    <contour>
      <point x="449" y="1370" type="move" name="U"/>
    </contour>
  </outline>
</glyph>
<glyph name="LtnSmODiaer" format="1">
  <advance width="924"/>
  <unicode hex="00F6"/>
  <outline>
    <component base="LtnSmO"/>
    <component base="CombDiaer" xOffset="943"/>
    <contour>
      <point x="430" y="0" type="move" name="H"/>
    </contour>
    <contour>
      <point x="404" y="-100" type="move" name="L"/>
    </contour>
    <contour>
      <point x="479" y="0" type="move" name="O"/>
    </contour>
    <contour>
      <point x="970" y="870" type="move" name="R"/>
    </contour>
    <contour>
      <point x="607" y="1370" type="move" name="U"/>
    </contour>
  </outline>
</glyph>
<glyph name="LtnCapCAcute" format="1">
  <advance width="1055"/>
  <unicode hex="0106"/>
  <outline>
    <component base="LtnCapC"/>
    <component base="CombAcute.LP" xOffset="1092" yOffset="320"/>
    <contour>
      <point x="495" y="0" type="move" name="H"/>
    </contour>
    <contour>
      <point x="750" y="1640" type="move" name="U"/>
    </contour>
    <contour>
      <point x="521" y="-100" type="move" name="L"/>
    </contour>
  </outline>
</glyph>
<glyph name="LtnCapCCircum" format="1">
  <advance width="1055"/>
  <unicode hex="0108"/>
  <outline>
    <component base="LtnCapC"/>
    <component base="CombCircum.LP" xOffset="1091" yOffset="320"/>
    <contour>
      <point x="495" y="0" type="move" name="H"/>
    </contour>
    <contour>
      <point x="521" y="-100" type="move" name="L"/>
    </contour>
    <contour>
      <point x="765" y="1735" type="move" name="U"/>
    </contour>
  </outline>
</glyph>
<glyph name="LtnSmCCircum" format="1">
  <advance width="899"/>
  <unicode hex="0109"/>
  <outline>
    <component base="LtnSmC"/>
    <component base="CombCircum" xOffset="989"/>
    <contour>
      <point x="427" y="0" type="move" name="H"/>
    </contour>
    <contour>
      <point x="454" y="-100" type="move" name="L"/>
    </contour>
    <contour>
      <point x="991" y="870" type="move" name="R"/>
    </contour>
    <contour>
      <point x="677" y="1490" type="move" name="U"/>
    </contour>
  </outline>
</glyph>
<glyph name="LtnCapCDotAbv" format="1">
  <advance width="1055"/>
  <unicode hex="010A"/>
  <outline>
    <component base="LtnCapC"/>
    <component base="CombDotAbv.LP" xOffset="1095" yOffset="320"/>
    <contour>
      <point x="495" y="0" type="move" name="H"/>
    </contour>
    <contour>
      <point x="750" y="1640" type="move" name="U"/>
    </contour>
    <contour>
      <point x="521" y="-100" type="move" name="L"/>
    </contour>
  </outline>
</glyph>
<glyph name="LtnSmCDotAbv" format="1">
  <advance width="899"/>
  <unicode hex="010B"/>
  <outline>
    <component base="LtnSmC"/>
    <component base="CombDotAbv" xOffset="1026"/>
    <contour>
      <point x="427" y="0" type="move" name="H"/>
    </contour>
    <contour>
      <point x="454" y="-100" type="move" name="L"/>
    </contour>
    <contour>
      <point x="991" y="870" type="move" name="R"/>
    </contour>
    <contour>
      <point x="653" y="1353" type="move" name="U"/>
    </contour>
  </outline>
</glyph>
<glyph name="LtnCapCCaron" format="1">
  <advance width="1055"/>
  <unicode hex="010C"/>
  <outline>
    <component base="LtnCapC"/>
    <component base="CombCaron.LP" xOffset="1096" yOffset="320"/>
    <contour>
      <point x="495" y="0" type="move" name="H"/>
    </contour>
    <contour>
      <point x="521" y="-100" type="move" name="L"/>
    </contour>
    <contour>
      <point x="755" y="1668" type="move" name="U"/>
    </contour>
  </outline>
</glyph>
<glyph name="LtnCapDCaron" format="1">
  <advance width="1238"/>
  <unicode hex="010E"/>
  <outline>
    <component base="LtnCapD"/>
    <component base="CombCaron.LP" xOffset="1104" yOffset="320"/>
    <contour>
      <point x="529" y="-100" type="move" name="L"/>
    </contour>
    <contour>
      <point x="763" y="1668" type="move" name="U"/>
    </contour>
  </outline>
</glyph>
<glyph name="LtnSmDCaron" format="1">
  <advance width="1208"/>
  <unicode hex="010F"/>
  <outline>
    <component base="LtnSmD"/>
    <component base="CombCommaAbvRt" xOffset="949"/>
    <contour>
      <point x="700" y="0" type="move" name="H"/>
    </contour>
    <contour>
      <point x="374" y="-100" type="move" name="L"/>
    </contour>
    <contour>
      <point x="455" y="1000" type="move" name="U"/>
    </contour>
  </outline>
</glyph>
<glyph name="LtnSmEDotAbv" format="1">
  <advance width="885"/>
  <unicode hex="0117"/>
  <outline>
    <component base="LtnSmE"/>
    <component base="CombDotAbv" xOffset="972"/>
    <contour>
      <point x="398" y="0" type="move" name="H"/>
    </contour>
    <contour>
      <point x="384" y="-100" type="move" name="L"/>
    </contour>
    <contour>
      <point x="448" y="0" type="move" name="O"/>
    </contour>
    <contour>
      <point x="1062" y="870" type="move" name="R"/>
    </contour>
    <contour>
      <point x="599" y="1353" type="move" name="U"/>
    </contour>
  </outline>
</glyph>
<glyph name="LtnCapEOgonek" format="1">
  <advance width="1030"/>
  <unicode hex="0118"/>
  <outline>
    <component base="LtnCapE"/>
    <component base="CombOgonek" xOffset="1157"/>
    <contour>
      <point x="458" y="0" type="move" name="H"/>
    </contour>
    <contour>
      <point x="536" y="-600" type="move" name="L"/>
    </contour>
    <contour>
      <point x="1068" y="1072" type="move" name="R"/>
    </contour>
    <contour>
      <point x="628" y="1320" type="move" name="U"/>
    </contour>
  </outline>
</glyph>
<glyph name="LtnCapGCircum" format="1">
  <advance width="1136"/>
  <unicode hex="011C"/>
  <outline>
    <component base="LtnCapG"/>
    <component base="CombCircum.LP" xOffset="1127" yOffset="320"/>
    <contour>
      <point x="550" y="0" type="move" name="H"/>
    </contour>
    <contour>
      <point x="557" y="-100" type="move" name="L"/>
    </contour>
    <contour>
      <point x="801" y="1735" type="move" name="U"/>
    </contour>
  </outline>
</glyph>
<glyph name="LtnSmGCircum" format="1">
  <advance width="977"/>
  <unicode hex="011D"/>
  <outline>
    <component base="LtnSmG"/>
    <component base="CombCircum" xOffset="933"/>
    <contour>
      <point x="340" y="-450" type="move" name="H"/>
    </contour>
    <contour>
      <point x="329" y="-600" type="move" name="L"/>
    </contour>
    <contour>
      <point x="1096" y="870" type="move" name="R"/>
    </contour>
    <contour>
      <point x="621" y="1490" type="move" name="U"/>
    </contour>
  </outline>
</glyph>
<glyph name="LtnSmGBreve" format="1">
  <advance width="977"/>
  <unicode hex="011F"/>
  <outline>
    <component base="LtnSmG"/>
    <component base="CombBreve" xOffset="935"/>
    <contour>
      <point x="340" y="-450" type="move" name="H"/>
    </contour>
    <contour>
      <point x="1096" y="870" type="move" name="R"/>
    </contour>
    <contour>
      <point x="592" y="1320" type="move" name="U"/>
    </contour>
    <contour>
      <point x="329" y="-600" type="move" name="L"/>
    </contour>
  </outline>
</glyph>
<glyph name="LtnCapGDotAbv" format="1">
  <advance width="1136"/>
  <unicode hex="0120"/>
  <outline>
    <component base="LtnCapG"/>
    <component base="CombDotAbv.LP" xOffset="1131" yOffset="320"/>
    <contour>
      <point x="550" y="0" type="move" name="H"/>
    </contour>
    <contour>
      <point x="786" y="1640" type="move" name="U"/>
    </contour>
    <contour>
      <point x="557" y="-100" type="move" name="L"/>
    </contour>
  </outline>
</glyph>
<glyph name="LtnSmGDotAbv" format="1">
  <advance width="977"/>
  <unicode hex="0121"/>
  <outline>
    <component base="LtnSmG"/>
    <component base="CombDotAbv" xOffset="970"/>
    <contour>
      <point x="340" y="-450" type="move" name="H"/>
    </contour>
    <contour>
      <point x="329" y="-600" type="move" name="L"/>
    </contour>
    <contour>
      <point x="1096" y="870" type="move" name="R"/>
    </contour>
    <contour>
      <point x="597" y="1353" type="move" name="U"/>
    </contour>
  </outline>
</glyph>
<glyph name="LtnCapGCedilla" format="1">
  <advance width="1136"/>
  <unicode hex="0122"/>
  <outline>
    <component base="LtnCapG"/>
    <component base="CombCommaBlw" xOffset="1097"/>
    <contour>
      <point x="550" y="0" type="move" name="H"/>
    </contour>
    <contour>
      <point x="489" y="-600" type="move" name="L"/>
    </contour>
    <contour>
      <point x="742" y="1320" type="move" name="U"/>
    </contour>
  </outline>
</glyph>
<glyph name="LtnSmGCedilla" format="1">
  <advance width="977"/>
  <unicode hex="0123"/>
  <outline>
    <component base="LtnSmG"/>
    <component base="CombTrndCommaAbv" xOffset="940"/>
    <contour>
      <point x="340" y="-450" type="move" name="H"/>
    </contour>
    <contour>
      <point x="329" y="-600" type="move" name="L"/>
    </contour>
    <contour>
      <point x="1096" y="870" type="move" name="R"/>
    </contour>
    <contour>
      <point x="593" y="1320" type="move" name="U"/>
    </contour>
  </outline>
</glyph>
<glyph name="LtnCapHCircum" format="1">
  <advance width="1329"/>
  <unicode hex="0124"/>
  <outline>
    <component base="LtnCapH"/>
    <component base="CombCircum.LP" xOffset="1174" yOffset="320"/>
    <contour>
      <point x="245" y="0" type="move" name="H"/>
    </contour>
    <contour>
      <point x="599" y="-100" type="move" name="L"/>
    </contour>
    <contour>
      <point x="848" y="1735" type="move" name="U"/>
    </contour>
  </outline>
</glyph>
<glyph name="LtnCapIMacron" format="1">
  <advance width="652"/>
  <unicode hex="012A"/>
  <outline>
    <component base="LtnCapI"/>
    <component base="CombMacron.Short.LP" xOffset="800" yOffset="320"/>
    <contour>
      <point x="269" y="0" type="move" name="H"/>
    </contour>
    <contour>
      <point x="324" y="0" type="move" name="O"/>
    </contour>
    <contour>
      <point x="648" y="1072" type="move" name="R"/>
    </contour>
    <contour>
      <point x="479" y="1640" type="move" name="U"/>
    </contour>
    <contour>
      <point x="250" y="-100" type="move" name="L"/>
    </contour>
  </outline>
</glyph>
<glyph name="LtnSmLigIj" format="1">
  <advance width="1006"/>
  <unicode hex="0133"/>
  <outline>
    <component base="LtnSmI"/>
    <component base="LtnSmJ" xOffset="504"/>
    <contour>
      <point x="188" y="0" type="move" name="H"/>
    </contour>
    <contour>
      <point x="612" y="-600" type="move" name="L"/>
    </contour>
    <contour>
      <point x="278" y="0" type="move" name="O"/>
    </contour>
    <contour>
      <point x="655" y="1410" type="move" name="U"/>
    </contour>
  </outline>
</glyph>
<glyph name="LtnSmJCircum" format="1">
  <advance width="585"/>
  <unicode hex="0135"/>
  <outline>
    <component base="LtnSmJ.Dotless"/>
    <component base="CombCircum" xOffset="755"/>
    <contour>
      <point x="151" y="-600" type="move" name="L"/>
    </contour>
    <contour>
      <point x="443" y="1490" type="move" name="U"/>
    </contour>
  </outline>
</glyph>
<glyph name="LtnCapKCedilla" format="1">
  <advance width="1239"/>
  <unicode hex="0136"/>
  <outline>
    <component base="LtnCapK"/>
    <component base="CombCommaBlw" xOffset="1105"/>
    <contour>
      <point x="250" y="0" type="move" name="H"/>
    </contour>
    <contour>
      <point x="750" y="1320" type="move" name="U"/>
    </contour>
    <contour>
      <point x="497" y="-600" type="move" name="L"/>
    </contour>
  </outline>
</glyph>
<glyph name="LtnSmKra" format="1">
  <advance width="982"/>
  <unicode hex="0138"/>
  <outline>
    <component base="CySmKa"/>
    <contour>
      <point x="400" y="-100" type="move" name="L"/>
    </contour>
    <contour>
      <point x="580" y="1000" type="move" name="U"/>
    </contour>
  </outline>
</glyph>
<glyph name="LtnSmLAcute" format="1">
  <advance width="569"/>
  <unicode hex="013A"/>
  <outline>
    <component base="LtnSmL"/>
    <component base="CombAcute.LP" xOffset="833" yOffset="640"/>
    <contour>
      <point x="220" y="0" type="move" name="H"/>
    </contour>
    <contour>
      <point x="202" y="-100" type="move" name="L"/>
    </contour>
    <contour>
      <point x="666" y="870" type="move" name="R"/>
    </contour>
    <contour>
      <point x="491" y="1960" type="move" name="U"/>
    </contour>
  </outline>
</glyph>
<glyph name="LtnCapLCedilla" format="1">
  <advance width="1018"/>
  <unicode hex="013B"/>
  <outline>
    <component base="LtnCapL"/>
    <component base="CombCommaBlw" xOffset="988"/>
    <contour>
      <point x="480" y="0" type="move" name="H"/>
    </contour>
    <contour>
      <point x="380" y="-600" type="move" name="L"/>
    </contour>
    <contour>
      <point x="744" y="870" type="move" name="R"/>
    </contour>
    <contour>
      <point x="602" y="1320" type="move" name="U"/>
    </contour>
  </outline>
</glyph>
<glyph name="LtnCapLCaron" format="1">
  <advance width="918"/>
  <unicode hex="013D"/>
  <outline>
    <component base="LtnCapL"/>
    <component base="CombCommaAbvRt" xOffset="693"/>
    <contour>
      <point x="210" y="0" type="move" name="H"/>
    </contour>
    <contour>
      <point x="393" y="-100" type="move" name="L"/>
    </contour>
    <contour>
      <point x="557" y="1320" type="move" name="U"/>
    </contour>
  </outline>
</glyph>
<glyph name="LtnCapLMiddleDot" format="1">
  <advance width="1018"/>
  <unicode hex="013F"/>
  <outline>
    <component base="LtnCapL"/>
    <component base="MiddleDot" xOffset="518"/>
    <contour>
      <point x="210" y="0" type="move" name="H"/>
    </contour>
    <contour>
      <point x="393" y="-100" type="move" name="L"/>
    </contour>
    <contour>
      <point x="557" y="1320" type="move" name="U"/>
    </contour>
  </outline>
</glyph>
<glyph name="LtnSmLMiddleDot" format="1">
  <advance width="891"/>
  <unicode hex="0140"/>
  <outline>
    <component base="LtnSmL"/>
    <component base="MiddleDot" xOffset="481"/>
    <contour>
      <point x="180" y="0" type="move" name="H"/>
    </contour>
    <contour>
      <point x="158" y="-100" type="move" name="L"/>
    </contour>
    <contour>
      <point x="390" y="1570" type="move" name="U"/>
    </contour>
  </outline>
</glyph>
<glyph name="LtnCapNAcute" format="1">
  <advance width="1273"/>
  <unicode hex="0143"/>
  <outline>
    <component base="LtnCapN"/>
    <component base="CombAcute.LP" xOffset="1149" yOffset="320"/>
    <contour>
      <point x="965" y="0" type="move" name="H"/>
    </contour>
    <contour>
      <point x="578" y="-100" type="move" name="L"/>
    </contour>
    <contour>
      <point x="807" y="1640" type="move" name="U"/>
    </contour>
  </outline>
</glyph>
<glyph name="LtnSmNCedilla" format="1">
  <advance width="1103"/>
  <unicode hex="0146"/>
  <outline>
    <component base="LtnSmN"/>
    <component base="CombCommaBlw" xOffset="1018"/>
    <contour>
      <point x="760" y="0" type="move" name="H"/>
    </contour>
    <contour>
      <point x="410" y="-600" type="move" name="L"/>
    </contour>
    <contour>
      <point x="629" y="1000" type="move" name="U"/>
    </contour>
  </outline>
</glyph>
<glyph name="LtnCapNCaron" format="1">
  <advance width="1273"/>
  <unicode hex="0147"/>
  <outline>
    <component base="LtnCapN"/>
    <component base="CombCaron.LP" xOffset="1153" yOffset="320"/>
    <contour>
      <point x="965" y="0" type="move" name="H"/>
    </contour>
    <contour>
      <point x="578" y="-100" type="move" name="L"/>
    </contour>
    <contour>
      <point x="812" y="1668" type="move" name="U"/>
    </contour>
  </outline>
</glyph>
<glyph name="LtnSmOMacron" format="1">
  <advance width="924"/>
  <unicode hex="014D"/>
  <outline>
    <component base="LtnSmO"/>
    <component base="CombMacron" xOffset="953"/>
    <contour>
      <point x="430" y="0" type="move" name="H"/>
    </contour>
    <contour>
      <point x="404" y="-100" type="move" name="L"/>
    </contour>
    <contour>
      <point x="479" y="0" type="move" name="O"/>
    </contour>
    <contour>
      <point x="970" y="870" type="move" name="R"/>
    </contour>
    <contour>
      <point x="607" y="1370" type="move" name="U"/>
    </contour>
  </outline>
</glyph>
<glyph name="LtnSmOBreve" format="1">
  <advance width="924"/>
  <unicode hex="014F"/>
  <outline>
    <component base="LtnSmO"/>
    <component base="CombBreve" xOffset="942"/>
    <contour>
      <point x="430" y="0" type="move" name="H"/>
    </contour>
    <contour>
      <point x="404" y="-100" type="move" name="L"/>
    </contour>
    <contour>
      <point x="479" y="0" type="move" name="O"/>
    </contour>
    <contour>
      <point x="970" y="870" type="move" name="R"/>
    </contour>
    <contour>
      <point x="599" y="1320" type="move" name="U"/>
    </contour>
  </outline>
</glyph>
<glyph name="LtnSmODblAcute" format="1">
  <advance width="924"/>
  <unicode hex="0151"/>
  <outline>
    <component base="LtnSmO"/>
    <component base="CombDblAcute" xOffset="949"/>
    <contour>
      <point x="430" y="0" type="move" name="H"/>
    </contour>
    <contour>
      <point x="404" y="-100" type="move" name="L"/>
    </contour>
    <contour>
      <point x="479" y="0" type="move" name="O"/>
    </contour>
    <contour>
      <point x="970" y="870" type="move" name="R"/>
    </contour>
    <contour>
      <point x="700" y="1524" type="move" name="U"/>
    </contour>
  </outline>
</glyph>
<glyph name="LtnCapRAcute" format="1">
  <advance width="1167"/>
  <unicode hex="0154"/>
  <outline>
    <component base="LtnCapR"/>
    <component base="CombAcute.LP" xOffset="1044" yOffset="320"/>
    <contour>
      <point x="250" y="0" type="move" name="H"/>
    </contour>
    <contour>
      <point x="473" y="-100" type="move" name="L"/>
    </contour>
    <contour>
      <point x="702" y="1640" type="move" name="U"/>
    </contour>
  </outline>
</glyph>
<glyph name="LtnSmRCedilla" format="1">
  <advance width="872"/>
  <unicode hex="0157"/>
  <outline>
    <component base="LtnSmR"/>
    <component base="CombCommaBlw" xOffset="777"/>
    <contour>
      <point x="195" y="0" type="move" name="H"/>
    </contour>
    <contour>
      <point x="169" y="-600" type="move" name="L"/>
    </contour>
    <contour>
      <point x="533" y="1000" type="move" name="U"/>
    </contour>
  </outline>
</glyph>
<glyph name="LtnSmSCircum" format="1">
  <advance width="811"/>
  <unicode hex="015D"/>
  <outline>
    <component base="LtnSmS"/>
    <component base="CombCircum" xOffset="872"/>
    <contour>
      <point x="340" y="0" type="move" name="H"/>
    </contour>
    <contour>
      <point x="336" y="-100" type="move" name="L"/>
    </contour>
    <contour>
      <point x="560" y="1490" type="move" name="U"/>
    </contour>
  </outline>
</glyph>
<glyph name="LtnSmSCedilla" format="1">
  <advance width="811"/>
  <unicode hex="015F"/>
  <outline>
    <component base="LtnSmS"/>
    <component base="CombCedilla" xOffset="858"/>
    <contour>
      <point x="258" y="-600" type="move" name="L"/>
    </contour>
    <contour>
      <point x="487" y="1000" type="move" name="U"/>
    </contour>
  </outline>
</glyph>
<glyph name="LtnCapTCedilla" format="1">
  <advance width="1123"/>
  <unicode hex="0162"/>
  <outline>
    <component base="LtnCapT"/>
    <component base="CombCedilla" xOffset="1017"/>
    <contour>
      <point x="417" y="-600" type="move" name="L"/>
    </contour>
    <contour>
      <point x="680" y="1320" type="move" name="U"/>
    </contour>
  </outline>
</glyph>
<glyph name="LtnSmTCaron" format="1">
  <advance width="629"/>
  <unicode hex="0165"/>
  <outline>
    <component base="LtnSmT"/>
    <component base="CombCommaAbvRt" xOffset="472"/>
    <contour>
      <point x="253" y="0" type="move" name="H"/>
    </contour>
    <contour>
      <point x="239" y="-100" type="move" name="L"/>
    </contour>
    <contour>
      <point x="424" y="1230" type="move" name="U"/>
    </contour>
  </outline>
</glyph>
<glyph name="LtnSmUMacron" format="1">
  <advance width="1127"/>
  <unicode hex="016B"/>
  <outline>
    <component base="LtnSmU"/>
    <component base="CombMacron" xOffset="1031"/>
    <contour>
      <point x="435" y="0" type="move" name="H"/>
    </contour>
    <contour>
      <point x="482" y="-100" type="move" name="L"/>
    </contour>
    <contour>
      <point x="849" y="0" type="move" name="O"/>
    </contour>
    <contour>
      <point x="1170" y="870" type="move" name="R"/>
    </contour>
    <contour>
      <point x="685" y="1370" type="move" name="U"/>
    </contour>
  </outline>
</glyph>
<glyph name="LtnSmURingAbv" format="1">
  <advance width="1127"/>
  <unicode hex="016F"/>
  <outline>
    <component base="LtnSmU"/>
    <component base="CombRingAbv" xOffset="1020"/>
    <contour>
      <point x="435" y="0" type="move" name="H"/>
    </contour>
    <contour>
      <point x="482" y="-100" type="move" name="L"/>
    </contour>
    <contour>
      <point x="849" y="0" type="move" name="O"/>
    </contour>
    <contour>
      <point x="1170" y="870" type="move" name="R"/>
    </contour>
    <contour>
      <point x="687" y="1420" type="move" name="U"/>
    </contour>
  </outline>
</glyph>
<glyph name="LtnSmUDblAcute" format="1">
  <advance width="1127"/>
  <unicode hex="0171"/>
  <outline>
    <component base="LtnSmU"/>
    <component base="CombDblAcute" xOffset="1027"/>
    <contour>
      <point x="435" y="0" type="move" name="H"/>
    </contour>
    <contour>
      <point x="482" y="-100" type="move" name="L"/>
    </contour>
    <contour>
      <point x="849" y="0" type="move" name="O"/>
    </contour>
    <contour>
      <point x="1170" y="870" type="move" name="R"/>
    </contour>
    <contour>
      <point x="778" y="1524" type="move" name="U"/>
    </contour>
  </outline>
</glyph>
<glyph name="LtnCapUOgonek" format="1">
  <advance width="1227"/>
  <unicode hex="0172"/>
  <outline>
    <component base="LtnCapU"/>
    <component base="CombOgonek" xOffset="1117"/>
    <contour>
      <point x="580" y="0" type="move" name="H"/>
    </contour>
    <contour>
      <point x="493" y="-600" type="move" name="L"/>
    </contour>
    <contour>
      <point x="1255" y="1071" type="move" name="R"/>
    </contour>
    <contour>
      <point x="757" y="1320" type="move" name="U"/>
    </contour>
  </outline>
</glyph>
<glyph name="LtnSmUOgonek" format="1">
  <advance width="1022"/>
  <unicode hex="0173"/>
  <outline>
    <component base="LtnSmU"/>
    <component base="CombOgonek" xOffset="1253"/>
    <contour>
      <point x="665" y="-600" type="move" name="L"/>
    </contour>
    <contour>
      <point x="581" y="1000" type="move" name="U"/>
    </contour>
  </outline>
</glyph>
<glyph name="LtnCapWCircum" format="1">
  <advance width="1603"/>
  <unicode hex="0174"/>
  <outline>
    <component base="LtnCapW"/>
    <component base="CombCircum.LP" xOffset="1325" yOffset="320"/>
    <contour>
      <point x="750" y="-100" type="move" name="L"/>
    </contour>
    <contour>
      <point x="999" y="1735" type="move" name="U"/>
    </contour>
  </outline>
</glyph>
<glyph name="LtnSmWCircum" format="1">
  <advance width="1420"/>
  <unicode hex="0175"/>
  <outline>
    <component base="LtnSmW"/>
    <component base="CombCircum" xOffset="1203"/>
    <contour>
      <point x="667" y="-100" type="move" name="L"/>
    </contour>
    <contour>
      <point x="891" y="1490" type="move" name="U"/>
    </contour>
  </outline>
</glyph>
<glyph name="LtnCapYDiaer" format="1">
  <advance width="1178"/>
  <unicode hex="0178"/>
  <outline>
    <component base="LtnCapY"/>
    <component base="CombDiaer.LP" xOffset="1113" yOffset="320"/>
    <contour>
      <point x="541" y="-100" type="move" name="L"/>
    </contour>
    <contour>
      <point x="769" y="1640" type="move" name="U"/>
    </contour>
  </outline>
</glyph>
<glyph name="LtnSmZDotAbv" format="1">
  <advance width="776"/>
  <unicode hex="017C"/>
  <outline>
    <component base="LtnSmZ"/>
    <component base="CombDotAbv" xOffset="916"/>
    <contour>
      <point x="343" y="0" type="move" name="H"/>
    </contour>
    <contour>
      <point x="343" y="-100" type="move" name="L"/>
    </contour>
    <contour>
      <point x="543" y="1353" type="move" name="U"/>
    </contour>
  </outline>
</glyph>
<glyph name="LtnCapZCaron" format="1">
  <advance width="1078"/>
  <unicode hex="017D"/>
  <outline>
    <component base="LtnCapZ"/>
    <component base="CombCaron.LP" xOffset="1047" yOffset="320"/>
    <contour>
      <point x="706" y="1668" type="move" name="U"/>
    </contour>
    <contour>
      <point x="493" y="-100" type="move" name="L"/>
    </contour>
  </outline>
</glyph>
<glyph name="LtnCapTRetrHook" format="1">
  <advance width="1123"/>
  <unicode hex="01AE"/>
  <outline>
    <contour>
      <point x="1218" y="1225" type="curve"/>
      <point x="1186" y="1260" type="line"/>
      <point x="799" y="1260" type="line"/>
      <point x="754" y="1130" type="line"/>
      <point x="1011" y="1130" type="line" smooth="yes"/>
      <point x="1064" y="1130"/>
      <point x="1053" y="1044"/>
      <point x="1061" y="920" type="curve"/>
      <point x="1140" y="920" type="line"/>
      <point x="1166" y="1004"/>
      <point x="1207" y="1157"/>
    </contour>
    <contour>
      <point x="559" y="1130" type="line"/>
      <point x="569" y="1260" type="line"/>
      <point x="172" y="1260" type="line"/>
      <point x="150" y="1190"/>
      <point x="105" y="1017"/>
      <point x="88" y="939" type="curve"/>
      <point x="161" y="910" type="line"/>
      <point x="239" y="1066"/>
      <point x="273" y="1130"/>
      <point x="311" y="1130" type="curve" smooth="yes"/>
    </contour>
    <contour>
      <point x="795" y="1137" type="line" smooth="yes"/>
      <point x="798" y="1155"/>
      <point x="847" y="1158"/>
      <point x="934" y="1177" type="curve"/>
      <point x="945" y="1260" type="line"/>
      <point x="435" y="1260" type="line"/>
      <point x="424" y="1177" type="line"/>
      <point x="510" y="1158"/>
      <point x="536" y="1153"/>
      <point x="534" y="1137" type="curve"/>
      <point x="374" y="-45" type="line" smooth="yes"/>
      <point x="342" y="-285"/>
      <point x="450" y="-380"/>
      <point x="551" y="-380" type="curve" smooth="yes"/>
      <point x="743" y="-380"/>
      <point x="1047" y="-214"/>
      <point x="1063" y="-23" type="curve"/>
      <point x="1035" y="42" type="line"/>
      <point x="958" y="26"/>
      <point x="839" y="-17"/>
      <point x="781" y="-58" type="curve"/>
      <point x="824" y="-135"/>
      <point x="797" y="-217"/>
      <point x="731" y="-217" type="curve" smooth="yes"/>
      <point x="675" y="-217"/>
      <point x="624" y="-157"/>
      <point x="641" y="-29" type="curve" smooth="yes"/>
    </contour>
    <contour>
      <point x="434" y="-600" type="move" name="L"/>
    </contour>
    <contour>
      <point x="698" y="1320" type="move" name="U"/>
    </contour>
  </outline>
</glyph>
<glyph name="LtnCapVHook" format="1">
  <advance width="1316"/>
  <unicode hex="01B2"/>
  <outline>
    <contour>
      <point x="1061" y="1290" type="curve"/>
      <point x="805" y="1221" type="line"/>
      <point x="818" y="1147" type="line"/>
      <point x="1044" y="1142"/>
      <point x="1076" y="879"/>
      <point x="1044" y="656" type="curve" smooth="yes"/>
      <point x="993" y="298"/>
      <point x="835" y="125"/>
      <point x="685" y="125" type="curve" smooth="yes"/>
      <point x="477" y="125"/>
      <point x="434" y="308"/>
      <point x="470" y="564" type="curve" smooth="yes"/>
      <point x="544" y="1115" type="line" smooth="yes"/>
      <point x="547" y="1134"/>
      <point x="595" y="1158"/>
      <point x="688" y="1177" type="curve"/>
      <point x="700" y="1260" type="line"/>
      <point x="170" y="1260" type="line"/>
      <point x="158" y="1177" type="line"/>
      <point x="251" y="1158"/>
      <point x="286" y="1131"/>
      <point x="284" y="1115" type="curve" smooth="yes"/>
      <point x="200" y="494" type="line" smooth="yes"/>
      <point x="154" y="169"/>
      <point x="349" y="-30"/>
      <point x="594" y="-30" type="curve" smooth="yes"/>
      <point x="932" y="-30"/>
      <point x="1232" y="283"/>
      <point x="1296" y="744" type="curve" smooth="yes"/>
      <point x="1329" y="976"/>
      <point x="1265" y="1252"/>
    </contour>
    <contour>
      <point x="584" y="-100" type="move" name="L"/>
    </contour>
    <contour>
      <point x="769" y="1320" type="move" name="U"/>
    </contour>
  </outline>
</glyph>
<glyph name="LtnDentalClick" format="1">
  <advance width="497"/>
  <unicode hex="01C0"/>
  <outline>
    <contour>
      <point x="242" y="-439" type="curve"/>
      <point x="242" y="-203"/>
      <point x="453" y="1229"/>
      <point x="502" y="1498" type="curve"/>
      <point x="454" y="1520" type="line"/>
      <point x="418" y="1510"/>
      <point x="305" y="1481"/>
      <point x="269" y="1459" type="curve"/>
      <point x="295" y="1220"/>
      <point x="70" y="-217"/>
      <point x="20" y="-478" type="curve"/>
      <point x="68" y="-500" type="line"/>
      <point x="99" y="-489"/>
      <point x="217" y="-460"/>
    </contour>
    <contour>
      <point x="397" y="1640" type="move" name="U"/>
    </contour>
    <contour>
      <point x="101" y="-600" type="move" name="L"/>
    </contour>
  </outline>
</glyph>
<glyph name="LtnCapDzCaron" format="1">
  <advance width="2316"/>
  <unicode hex="01C4"/>
  <outline>
    <component base="LtnCapD"/>
    <component base="LtnCapZ" xOffset="1238"/>
    <component base="CombCaron.LP" xOffset="2285" yOffset="320"/>
    <contour>
      <point x="1944" y="1668" type="move" name="U"/>
    </contour>
    <contour>
      <point x="1731" y="-100" type="move" name="L"/>
    </contour>
  </outline>
</glyph>
<glyph name="LtnCapLj" format="1">
  <advance width="1496"/>
  <unicode hex="01C7"/>
  <outline>
    <component base="LtnCapL"/>
    <component base="LtnCapJ" xOffset="918"/>
    <contour>
      <point x="210" y="0" type="move" name="H"/>
    </contour>
    <contour>
      <point x="1080" y="-600" type="move" name="L"/>
    </contour>
    <contour>
      <point x="1348" y="1320" type="move" name="U"/>
    </contour>
  </outline>
</glyph>
<glyph name="LtnCapLSmJ" format="1">
  <advance width="1420"/>
  <unicode hex="01C8"/>
  <outline>
    <component base="LtnCapL"/>
    <component base="LtnSmJ" xOffset="918"/>
    <contour>
      <point x="210" y="0" type="move" name="H"/>
    </contour>
    <contour>
      <point x="1026" y="-600" type="move" name="L"/>
    </contour>
    <contour>
      <point x="1245" y="1000" type="move" name="U"/>
    </contour>
  </outline>
</glyph>
<glyph name="LtnSmLj" format="1">
  <advance width="983"/>
  <unicode hex="01C9"/>
  <outline>
    <component base="LtnSmL"/>
    <component base="LtnSmJ" xOffset="481"/>
    <contour>
      <point x="164" y="0" type="move" name="H"/>
    </contour>
    <contour>
      <point x="589" y="-600" type="move" name="L"/>
    </contour>
    <contour>
      <point x="808" y="1000" type="move" name="U"/>
    </contour>
  </outline>
</glyph>
<glyph name="LtnCapNj" format="1">
  <advance width="1931"/>
  <unicode hex="01CA"/>
  <outline>
    <component base="LtnCapN"/>
    <component base="LtnCapJ" xOffset="1273"/>
    <contour>
      <point x="965" y="0" type="move" name="H"/>
    </contour>
    <contour>
      <point x="1478" y="-600" type="move" name="L"/>
    </contour>
    <contour>
      <point x="1742" y="1320" type="move" name="U"/>
    </contour>
  </outline>
</glyph>
<glyph name="LtnSmNj" format="1">
  <advance width="1514"/>
  <unicode hex="01CC"/>
  <outline>
    <component base="LtnSmN"/>
    <component base="LtnSmJ" xOffset="1012"/>
    <contour>
      <point x="456" y="0" type="move" name="H"/>
    </contour>
    <contour>
      <point x="1120" y="-600" type="move" name="L"/>
    </contour>
    <contour>
      <point x="1339" y="1000" type="move" name="U"/>
    </contour>
  </outline>
</glyph>
<glyph name="LtnCapACaron" format="1">
  <advance width="1210"/>
  <unicode hex="01CD"/>
  <outline>
    <component base="LtnCapA"/>
    <component base="CombCaron.LP" xOffset="1107" yOffset="320"/>
    <contour>
      <point x="546" y="0" type="move" name="H"/>
    </contour>
    <contour>
      <point x="533" y="-100" type="move" name="L"/>
    </contour>
    <contour>
      <point x="877" y="0" type="move" name="O"/>
    </contour>
    <contour>
      <point x="766" y="1668" type="move" name="U"/>
    </contour>
  </outline>
</glyph>
<glyph name="LtnCapICaron" format="1">
  <advance width="652"/>
  <unicode hex="01CF"/>
  <outline>
    <component base="LtnCapI"/>
    <component base="CombCaron.LP" xOffset="825" yOffset="320"/>
    <contour>
      <point x="269" y="0" type="move" name="H"/>
    </contour>
    <contour>
      <point x="250" y="-100" type="move" name="L"/>
    </contour>
    <contour>
      <point x="324" y="0" type="move" name="O"/>
    </contour>
    <contour>
      <point x="648" y="1072" type="move" name="R"/>
    </contour>
    <contour>
      <point x="484" y="1668" type="move" name="U"/>
    </contour>
  </outline>
</glyph>
<glyph name="LtnSmUCaron" format="1">
  <advance width="1127"/>
  <unicode hex="01D4"/>
  <outline>
    <component base="LtnSmU"/>
    <component base="CombCaron" xOffset="1023"/>
    <contour>
      <point x="435" y="0" type="move" name="H"/>
    </contour>
    <contour>
      <point x="482" y="-100" type="move" name="L"/>
    </contour>
    <contour>
      <point x="849" y="0" type="move" name="O"/>
    </contour>
    <contour>
      <point x="1170" y="870" type="move" name="R"/>
    </contour>
    <contour>
      <point x="693" y="1422" type="move" name="U"/>
    </contour>
  </outline>
</glyph>
<glyph name="LtnSmUDiaerGrave" format="1">
  <advance width="1127"/>
  <unicode hex="01DC"/>
  <outline>
    <component base="LtnSmU"/>
    <component base="CombDiaer" xOffset="1021"/>
    <component base="CombGrave" xOffset="960" yOffset="370"/>
    <contour>
      <point x="435" y="0" type="move" name="H"/>
    </contour>
    <contour>
      <point x="482" y="-100" type="move" name="L"/>
    </contour>
    <contour>
      <point x="849" y="0" type="move" name="O"/>
    </contour>
    <contour>
      <point x="1170" y="870" type="move" name="R"/>
    </contour>
    <contour>
      <point x="735" y="1740" type="move" name="U"/>
    </contour>
  </outline>
</glyph>
<glyph name="LtnSmTurnedE" format="1">
  <advance width="885"/>
  <unicode hex="01DD"/>
  <outline>
    <component base="LtnSmSchwa"/>
    <contour>
      <point x="359" y="-100" type="move" name="L"/>
    </contour>
    <contour>
      <point x="510" y="1000" type="move" name="U"/>
    </contour>
  </outline>
</glyph>
<glyph name="LtnSmADotAbvMacron" format="1">
  <advance width="922"/>
  <unicode hex="01E1"/>
  <outline>
    <component base="LtnSmA"/>
    <component base="DotAbv" xOffset="324"/>
    <component base="CombMacron" xOffset="963" yOffset="353"/>
    <contour>
      <point x="680" y="0" type="move" name="H"/>
    </contour>
    <contour>
      <point x="723" y="0" type="move" name="O"/>
    </contour>
    <contour>
      <point x="1059" y="870" type="move" name="R"/>
    </contour>
    <contour>
      <point x="647" y="1706" type="move" name="U"/>
    </contour>
    <contour>
      <point x="400" y="-100" type="move" name="L"/>
    </contour>
  </outline>
</glyph>
<glyph name="LtnSmAeMacron" format="1">
  <advance width="1325"/>
  <unicode hex="01E3"/>
  <outline>
    <component base="LtnSmAe"/>
    <component base="CombMacron" xOffset="1115"/>
    <contour>
      <point x="828" y="0" type="move" name="H"/>
    </contour>
    <contour>
      <point x="599" y="-100" type="move" name="L"/>
    </contour>
    <contour>
      <point x="930" y="0" type="move" name="O"/>
    </contour>
    <contour>
      <point x="1462" y="870" type="move" name="R"/>
    </contour>
    <contour>
      <point x="799" y="1353" type="move" name="U"/>
    </contour>
  </outline>
</glyph>
<glyph name="LtnSmGCaron" format="1">
  <advance width="977"/>
  <unicode hex="01E7"/>
  <outline>
    <component base="LtnSmG"/>
    <component base="CombCaron" xOffset="938"/>
    <contour>
      <point x="340" y="-450" type="move" name="H"/>
    </contour>
    <contour>
      <point x="329" y="-600" type="move" name="L"/>
    </contour>
    <contour>
      <point x="1096" y="870" type="move" name="R"/>
    </contour>
    <contour>
      <point x="608" y="1422" type="move" name="U"/>
    </contour>
  </outline>
</glyph>
<glyph name="LtnCapKCaron" format="1">
  <advance width="1239"/>
  <unicode hex="01E8"/>
  <outline>
    <component base="LtnCapK"/>
    <component base="CombCaron.LP" xOffset="1140" yOffset="320"/>
    <contour>
      <point x="250" y="0" type="move" name="H"/>
    </contour>
    <contour>
      <point x="799" y="1668" type="move" name="U"/>
    </contour>
    <contour>
      <point x="565" y="-100" type="move" name="L"/>
    </contour>
  </outline>
</glyph>
<glyph name="LtnSmKCaron" format="1">
  <advance width="1039"/>
  <unicode hex="01E9"/>
  <outline>
    <component base="LtnSmK"/>
    <component base="CombCaron.LP" xOffset="1077" yOffset="580"/>
    <contour>
      <point x="190" y="0" type="move" name="H"/>
    </contour>
    <contour>
      <point x="453" y="-100" type="move" name="L"/>
    </contour>
    <contour>
      <point x="1174" y="870" type="move" name="R"/>
    </contour>
    <contour>
      <point x="736" y="1928" type="move" name="U"/>
    </contour>
  </outline>
</glyph>
<glyph name="LtnCapOOgonekMacron" format="1">
  <advance width="1191"/>
  <unicode hex="01EC"/>
  <outline>
    <component base="LtnCapO"/>
    <component base="CombMacron.LP" xOffset="1127" yOffset="320"/>
    <component base="CombOgonek" xOffset="1105"/>
    <contour>
      <point x="540" y="0" type="move" name="H"/>
    </contour>
    <contour>
      <point x="484" y="-600" type="move" name="L"/>
    </contour>
    <contour>
      <point x="1248" y="1072" type="move" name="R"/>
    </contour>
    <contour>
      <point x="773" y="1640" type="move" name="U"/>
    </contour>
  </outline>
</glyph>
<glyph name="LtnCapDz" format="1">
  <advance width="2316"/>
  <unicode hex="01F1"/>
  <outline>
    <component base="LtnCapD"/>
    <component base="LtnCapZ" xOffset="1238"/>
    <contour>
      <point x="1731" y="-100" type="move" name="L"/>
    </contour>
    <contour>
      <point x="1895" y="1320" type="move" name="U"/>
    </contour>
  </outline>
</glyph>
<glyph name="LtnSmDz" format="1">
  <advance width="1745"/>
  <unicode hex="01F3"/>
  <outline>
    <component base="LtnSmD"/>
    <component base="LtnSmZ" xOffset="807"/>
    <contour>
      <point x="1353" y="0" type="move" name="H"/>
    </contour>
    <contour>
      <point x="1316" y="-100" type="move" name="L"/>
    </contour>
    <contour>
      <point x="1467" y="1000" type="move" name="U"/>
    </contour>
  </outline>
</glyph>
<glyph name="LtnSmGAcute" format="1">
  <advance width="977"/>
  <unicode hex="01F5"/>
  <outline>
    <component base="LtnSmG"/>
    <component base="CombAcute" xOffset="934"/>
    <contour>
      <point x="340" y="-450" type="move" name="H"/>
    </contour>
    <contour>
      <point x="1096" y="870" type="move" name="R"/>
    </contour>
    <contour>
      <point x="599" y="1370" type="move" name="U"/>
    </contour>
    <contour>
      <point x="329" y="-600" type="move" name="L"/>
    </contour>
  </outline>
</glyph>
<glyph name="LtnCapNGrave" format="1">
  <advance width="1273"/>
  <unicode hex="01F8"/>
  <outline>
    <component base="LtnCapN"/>
    <component base="CombGrave.LP" xOffset="1071" yOffset="320"/>
    <contour>
      <point x="965" y="0" type="move" name="H"/>
    </contour>
    <contour>
      <point x="806" y="1640" type="move" name="U"/>
    </contour>
    <contour>
      <point x="578" y="-100" type="move" name="L"/>
    </contour>
  </outline>
</glyph>
<glyph name="LtnSmARingAbvAcute" format="1">
  <advance width="1007"/>
  <unicode hex="01FB"/>
  <outline>
    <component base="LtnSmA"/>
    <component base="CombRingAbv" xOffset="979"/>
    <component base="CombAcute.LP" xOffset="1032" yOffset="420"/>
    <contour>
      <point x="385" y="0" type="move" name="H"/>
    </contour>
    <contour>
      <point x="442" y="-100" type="move" name="L"/>
    </contour>
    <contour>
      <point x="755" y="0" type="move" name="O"/>
    </contour>
    <contour>
      <point x="1184" y="870" type="move" name="R"/>
    </contour>
    <contour>
      <point x="690" y="1740" type="move" name="U"/>
    </contour>
  </outline>
</glyph>
<glyph name="LtnCapAeAcute" format="1">
  <advance width="1558"/>
  <unicode hex="01FC"/>
  <outline>
    <component base="LtnCapAe"/>
    <component base="CombAcute.LP" xOffset="1425" yOffset="320"/>
    <contour>
      <point x="1083" y="1640" type="move" name="U"/>
    </contour>
    <contour>
      <point x="784" y="-100" type="move" name="L"/>
    </contour>
  </outline>
</glyph>
<glyph name="LtnSmOStrkAcute" format="1">
  <advance width="864"/>
  <unicode hex="01FF"/>
  <outline>
    <component base="LtnSmOStrk"/>
    <component base="CombAcute" xOffset="923"/>
    <contour>
      <point x="390" y="0" type="move" name="H"/>
    </contour>
    <contour>
      <point x="386" y="-100" type="move" name="L"/>
    </contour>
    <contour>
      <point x="460" y="0" type="move" name="O"/>
    </contour>
    <contour>
      <point x="1091" y="870" type="move" name="R"/>
    </contour>
    <contour>
      <point x="588" y="1370" type="move" name="U"/>
    </contour>
  </outline>
</glyph>
<glyph name="LtnCapADblGrave" format="1">
  <advance width="1210"/>
  <unicode hex="0200"/>
  <outline>
    <component base="LtnCapA"/>
    <component base="CombDblGrave" xOffset="1109" yOffset="320"/>
    <contour>
      <point x="546" y="0" type="move" name="H"/>
    </contour>
    <contour>
      <point x="533" y="-100" type="move" name="L"/>
    </contour>
    <contour>
      <point x="877" y="0" type="move" name="O"/>
    </contour>
    <contour>
      <point x="804" y="1816" type="move" name="U"/>
    </contour>
  </outline>
</glyph>
<glyph name="LtnCapIDblGrave" format="1">
  <advance width="652"/>
  <unicode hex="0208"/>
  <outline>
    <component base="LtnCapI"/>
    <component base="CombDblGrave" xOffset="827" yOffset="320"/>
    <contour>
      <point x="269" y="0" type="move" name="H"/>
    </contour>
    <contour>
      <point x="324" y="0" type="move" name="O"/>
    </contour>
    <contour>
      <point x="648" y="1072" type="move" name="R"/>
    </contour>
    <contour>
      <point x="522" y="1816" type="move" name="U"/>
    </contour>
    <contour>
      <point x="250" y="-100" type="move" name="L"/>
    </contour>
  </outline>
</glyph>
<glyph name="LtnSmIDblGrave" format="1">
  <advance width="589"/>
  <unicode hex="0209"/>
  <outline>
    <component base="LtnSmDotlessI"/>
    <component base="CombDblGrave" xOffset="791"/>
    <contour>
      <point x="248" y="0" type="move" name="H"/>
    </contour>
    <contour>
      <point x="248" y="-100" type="move" name="L"/>
    </contour>
    <contour>
      <point x="288" y="0" type="move" name="O"/>
    </contour>
    <contour>
      <point x="616" y="870" type="move" name="R"/>
    </contour>
    <contour>
      <point x="486" y="1496" type="move" name="U"/>
    </contour>
  </outline>
</glyph>
<glyph name="LtnSmIInvBreve" format="1">
  <advance width="589"/>
  <unicode hex="020B"/>
  <outline>
    <component base="LtnSmDotlessI"/>
    <component base="CombInvBreve" xOffset="786"/>
    <contour>
      <point x="248" y="0" type="move" name="H"/>
    </contour>
    <contour>
      <point x="248" y="-100" type="move" name="L"/>
    </contour>
    <contour>
      <point x="288" y="0" type="move" name="O"/>
    </contour>
    <contour>
      <point x="616" y="870" type="move" name="R"/>
    </contour>
    <contour>
      <point x="443" y="1320" type="move" name="U"/>
    </contour>
  </outline>
</glyph>
<glyph name="LtnSmOInvBreve" format="1">
  <advance width="924"/>
  <unicode hex="020F"/>
  <outline>
    <component base="LtnSmO"/>
    <component base="CombInvBreve" xOffset="942"/>
    <contour>
      <point x="430" y="0" type="move" name="H"/>
    </contour>
    <contour>
      <point x="479" y="0" type="move" name="O"/>
    </contour>
    <contour>
      <point x="970" y="870" type="move" name="R"/>
    </contour>
    <contour>
      <point x="599" y="1320" type="move" name="U"/>
    </contour>
    <contour>
      <point x="404" y="-100" type="move" name="L"/>
    </contour>
  </outline>
</glyph>
<glyph name="LtnSmRInvBreve" format="1">
  <advance width="872"/>
  <unicode hex="0213"/>
  <outline>
    <component base="LtnSmR"/>
    <component base="CombInvBreve" xOffset="920"/>
    <contour>
      <point x="195" y="0" type="move" name="H"/>
    </contour>
    <contour>
      <point x="237" y="-100" type="move" name="L"/>
    </contour>
    <contour>
      <point x="577" y="1320" type="move" name="U"/>
    </contour>
  </outline>
</glyph>
<glyph name="LtnCapUDblGrave" format="1">
  <advance width="1282"/>
  <unicode hex="0214"/>
  <outline>
    <component base="LtnCapU"/>
    <component base="CombDblGrave" xOffset="1166" yOffset="320"/>
    <contour>
      <point x="620" y="0" type="move" name="H"/>
    </contour>
    <contour>
      <point x="590" y="-100" type="move" name="L"/>
    </contour>
    <contour>
      <point x="688" y="0" type="move" name="O"/>
    </contour>
    <contour>
      <point x="1296" y="1072" type="move" name="R"/>
    </contour>
    <contour>
      <point x="861" y="1816" type="move" name="U"/>
    </contour>
  </outline>
</glyph>
<glyph name="LtnCapSCommaBlw" format="1">
  <advance width="1000"/>
  <unicode hex="0218"/>
  <outline>
    <component base="LtnCapS"/>
    <component base="CombCommaBlw" xOffset="964"/>
    <contour>
      <point x="438" y="0" type="move" name="H"/>
    </contour>
    <contour>
      <point x="356" y="-600" type="move" name="L"/>
    </contour>
    <contour>
      <point x="608" y="1320" type="move" name="U"/>
    </contour>
  </outline>
</glyph>
<glyph name="LtnSmSCommaBlw" format="1">
  <advance width="811"/>
  <unicode hex="0219"/>
  <outline>
    <component base="LtnSmS"/>
    <component base="CombCommaBlw" xOffset="876"/>
    <contour>
      <point x="340" y="0" type="move" name="H"/>
    </contour>
    <contour>
      <point x="268" y="-600" type="move" name="L"/>
    </contour>
    <contour>
      <point x="487" y="1000" type="move" name="U"/>
    </contour>
  </outline>
</glyph>
<glyph name="LtnCapTCommaBlw" format="1">
  <advance width="1123"/>
  <unicode hex="021A"/>
  <outline>
    <component base="LtnCapT"/>
    <component base="CombCommaBlw" xOffset="1025"/>
    <contour>
      <point x="499" y="0" type="move" name="H"/>
    </contour>
    <contour>
      <point x="680" y="1320" type="move" name="U"/>
    </contour>
    <contour>
      <point x="417" y="-600" type="move" name="L"/>
    </contour>
  </outline>
</glyph>
<glyph name="LtnSmTCommaBlw" format="1">
  <advance width="714"/>
  <unicode hex="021B"/>
  <outline>
    <component base="LtnSmT"/>
    <component base="CombCommaBlw" xOffset="821"/>
    <contour>
      <point x="295" y="0" type="move" name="H"/>
    </contour>
    <contour>
      <point x="659" y="870" type="move" name="R"/>
    </contour>
    <contour>
      <point x="466" y="1230" type="move" name="U"/>
    </contour>
    <contour>
      <point x="213" y="-600" type="move" name="L"/>
    </contour>
  </outline>
</glyph>
<glyph name="LtnCapHCaron" format="1">
  <advance width="1329"/>
  <unicode hex="021E"/>
  <outline>
    <component base="LtnCapH"/>
    <component base="CombCaron.LP" xOffset="1179" yOffset="320"/>
    <contour>
      <point x="245" y="0" type="move" name="H"/>
    </contour>
    <contour>
      <point x="599" y="-100" type="move" name="L"/>
    </contour>
    <contour>
      <point x="838" y="1668" type="move" name="U"/>
    </contour>
  </outline>
</glyph>
<glyph name="LtnSmADotAbv" format="1">
  <advance width="1007"/>
  <unicode hex="0227"/>
  <outline>
    <component base="LtnSmA"/>
    <component base="CombDotAbv" xOffset="1014"/>
    <contour>
      <point x="385" y="0" type="move" name="H"/>
    </contour>
    <contour>
      <point x="442" y="-100" type="move" name="L"/>
    </contour>
    <contour>
      <point x="755" y="0" type="move" name="O"/>
    </contour>
    <contour>
      <point x="1184" y="870" type="move" name="R"/>
    </contour>
    <contour>
      <point x="641" y="1353" type="move" name="U"/>
    </contour>
  </outline>
</glyph>
<glyph name="LtnCapECedilla" format="1">
  <advance width="1030"/>
  <unicode hex="0228"/>
  <outline>
    <component base="LtnCapE"/>
    <component base="CombCedilla" xOffset="976"/>
    <contour>
      <point x="668" y="0" type="move" name="O"/>
    </contour>
    <contour>
      <point x="1068" y="1072" type="move" name="R"/>
    </contour>
    <contour>
      <point x="628" y="1320" type="move" name="U"/>
    </contour>
    <contour>
      <point x="376" y="-600" type="move" name="L"/>
    </contour>
  </outline>
</glyph>
<glyph name="LtnSmODiaerMacron" format="1">
  <advance width="924"/>
  <unicode hex="022B"/>
  <outline>
    <component base="LtnSmO"/>
    <component base="CombDiaer" xOffset="943"/>
    <component base="CombMacron" xOffset="1005" yOffset="370"/>
    <contour>
      <point x="430" y="0" type="move" name="H"/>
    </contour>
    <contour>
      <point x="404" y="-100" type="move" name="L"/>
    </contour>
    <contour>
      <point x="479" y="0" type="move" name="O"/>
    </contour>
    <contour>
      <point x="970" y="870" type="move" name="R"/>
    </contour>
    <contour>
      <point x="659" y="1740" type="move" name="U"/>
    </contour>
  </outline>
</glyph>
<glyph name="LtnCapODotAbvMacron" format="1">
  <advance width="1191"/>
  <unicode hex="0230"/>
  <outline>
    <component base="LtnCapO"/>
    <component base="CombDotAbv.LP" xOffset="1118" yOffset="320"/>
    <component base="CombMacron.LP" xOffset="1171" yOffset="640"/>
    <contour>
      <point x="540" y="0" type="move" name="H"/>
    </contour>
    <contour>
      <point x="545" y="-100" type="move" name="L"/>
    </contour>
    <contour>
      <point x="616" y="0" type="move" name="O"/>
    </contour>
    <contour>
      <point x="1248" y="1072" type="move" name="R"/>
    </contour>
    <contour>
      <point x="817" y="1960" type="move" name="U"/>
    </contour>
  </outline>
</glyph>
<glyph name="LtnSmODotAbvMacron" format="1">
  <advance width="924"/>
  <unicode hex="0231"/>
  <outline>
    <component base="LtnSmO"/>
    <component base="CombDotAbv" xOffset="977"/>
    <component base="CombMacron" xOffset="1002" yOffset="353"/>
    <contour>
      <point x="430" y="0" type="move" name="H"/>
    </contour>
    <contour>
      <point x="404" y="-100" type="move" name="L"/>
    </contour>
    <contour>
      <point x="479" y="0" type="move" name="O"/>
    </contour>
    <contour>
      <point x="970" y="870" type="move" name="R"/>
    </contour>
    <contour>
      <point x="656" y="1723" type="move" name="U"/>
    </contour>
  </outline>
</glyph>
<glyph name="LtnSmYMacron" format="1">
  <advance width="996"/>
  <unicode hex="0233"/>
  <outline>
    <component base="LtnSmY"/>
    <component base="CombMacron" xOffset="998"/>
    <contour>
      <point x="1173" y="870" type="move" name="R"/>
    </contour>
    <contour>
      <point x="652" y="1370" type="move" name="U"/>
    </contour>
    <contour>
      <point x="680" y="-100" type="move" name="L"/>
    </contour>
  </outline>
</glyph>
<glyph name="LtnSmSSwashTail" format="1">
  <advance width="825"/>
  <unicode hex="023F"/>
  <outline>
    <contour>
      <point x="818" y="844" type="curve"/>
      <point x="743" y="854"/>
      <point x="643" y="936"/>
      <point x="503" y="936" type="curve" smooth="yes"/>
      <point x="335" y="936"/>
      <point x="103" y="821"/>
      <point x="103" y="653" type="curve" smooth="yes"/>
      <point x="103" y="577"/>
      <point x="133" y="491"/>
      <point x="281" y="416" type="curve" smooth="yes"/>
      <point x="382" y="365"/>
      <point x="484" y="296"/>
      <point x="484" y="213" type="curve" smooth="yes"/>
      <point x="484" y="151"/>
      <point x="446" y="95"/>
      <point x="352" y="95" type="curve" smooth="yes"/>
      <point x="188" y="95"/>
      <point x="135" y="323"/>
      <point x="98" y="323" type="curve" smooth="yes"/>
      <point x="70" y="323"/>
      <point x="-24" y="157"/>
      <point x="-24" y="118" type="curve" smooth="yes"/>
      <point x="-24" y="60"/>
      <point x="107" y="-41"/>
      <point x="292" y="-41" type="curve" smooth="yes"/>
      <point x="466" y="-41"/>
      <point x="735" y="104"/>
      <point x="735" y="289" type="curve" smooth="yes"/>
      <point x="735" y="430"/>
      <point x="626" y="503"/>
      <point x="516" y="559" type="curve" smooth="yes"/>
      <point x="414" y="611"/>
      <point x="348" y="653"/>
      <point x="348" y="719" type="curve" smooth="yes"/>
      <point x="348" y="805"/>
      <point x="416" y="812"/>
      <point x="450" y="812" type="curve" smooth="yes"/>
      <point x="548" y="812"/>
      <point x="617" y="671"/>
      <point x="661" y="671" type="curve" smooth="yes"/>
      <point x="690" y="671"/>
      <point x="775" y="784"/>
    </contour>
    <contour>
      <point x="57" y="21" type="line"/>
      <point x="229" y="-67"/>
      <point x="190" y="-400"/>
      <point x="373" y="-400" type="curve" smooth="yes"/>
      <point x="540" y="-400"/>
      <point x="664" y="-278"/>
      <point x="671" y="-139" type="curve"/>
      <point x="660" y="-100" type="line"/>
      <point x="604" y="-94"/>
      <point x="448" y="-165"/>
      <point x="453" y="-177" type="curve" smooth="yes"/>
      <point x="476" y="-233"/>
      <point x="469" y="-286"/>
      <point x="436" y="-286" type="curve" smooth="yes"/>
      <point x="343" y="-286"/>
      <point x="352" y="68"/>
      <point x="133" y="131" type="curve"/>
    </contour>
    <contour>
      <point x="252" y="-600" type="move" name="L"/>
    </contour>
    <contour>
      <point x="476" y="1000" type="move" name="U"/>
    </contour>
  </outline>
</glyph>
<glyph name="LtnSmScriptG" format="1">
  <advance width="977"/>
  <unicode hex="0261"/>
  <outline>
    <component base="LtnSmG.SngBowl"/>
    <contour>
      <point x="340" y="-450" type="move" name="H"/>
    </contour>
    <contour>
      <point x="329" y="-600" type="move" name="L"/>
    </contour>
    <contour>
      <point x="1096" y="870" type="move" name="R"/>
    </contour>
    <contour>
      <point x="548" y="1000" type="move" name="U"/>
    </contour>
  </outline>
</glyph>
<glyph name="LtnSmPhi" format="1">
  <advance width="1225"/>
  <unicode hex="0278"/>
  <outline>
    <contour>
      <point x="1192" y="558" type="curve" smooth="yes"/>
      <point x="1192" y="779"/>
      <point x="1063" y="935"/>
      <point x="712" y="935" type="curve" smooth="yes"/>
      <point x="531" y="935"/>
      <point x="382" y="878"/>
      <point x="307" y="828" type="curve" smooth="yes"/>
      <point x="114" y="699"/>
      <point x="33" y="534"/>
      <point x="33" y="344" type="curve" smooth="yes"/>
      <point x="33" y="125"/>
      <point x="191" y="-41"/>
      <point x="517" y="-41" type="curve" smooth="yes"/>
      <point x="689" y="-41"/>
      <point x="838" y="19"/>
      <point x="918" y="73" type="curve" smooth="yes"/>
      <point x="1109" y="202"/>
      <point x="1192" y="381"/>
    </contour>
    <contour>
      <point x="924" y="503" type="curve" smooth="yes"/>
      <point x="924" y="340"/>
      <point x="776" y="87"/>
      <point x="583" y="87" type="curve" smooth="yes"/>
      <point x="426" y="87"/>
      <point x="302" y="221"/>
      <point x="302" y="399" type="curve" smooth="yes"/>
      <point x="302" y="592"/>
      <point x="442" y="803"/>
      <point x="646" y="803" type="curve" smooth="yes"/>
      <point x="817" y="803"/>
      <point x="924" y="706"/>
    </contour>
    <contour>
      <point x="874" y="1385" type="curve" smooth="yes"/>
      <point x="875" y="1456"/>
      <point x="876" y="1520"/>
      <point x="815" y="1520" type="curve" smooth="yes"/>
      <point x="762" y="1520"/>
      <point x="541" y="1437"/>
      <point x="429" y="1385" type="curve"/>
      <point x="449" y="1306" type="line"/>
      <point x="449" y="1306"/>
      <point x="519" y="1333"/>
      <point x="542" y="1333" type="curve" smooth="yes"/>
      <point x="566" y="1333"/>
      <point x="594" y="1327"/>
      <point x="594" y="1266" type="curve" smooth="yes"/>
      <point x="594" y="1111"/>
      <point x="557" y="904"/>
      <point x="507" y="597" type="curve" smooth="yes"/>
      <point x="436" y="161"/>
      <point x="346" y="-335"/>
      <point x="328" y="-471" type="curve"/>
      <point x="377" y="-500" type="line"/>
      <point x="410" y="-484"/>
      <point x="585" y="-459"/>
      <point x="621" y="-447" type="curve"/>
      <point x="584" y="-372"/>
      <point x="673" y="64"/>
      <point x="749" y="520" type="curve"/>
      <point x="855" y="1140"/>
      <point x="873" y="1300"/>
    </contour>
    <contour>
      <point x="466" y="-600" type="move" name="L"/>
    </contour>
    <contour>
      <point x="773" y="1640" type="move" name="U"/>
    </contour>
  </outline>
</glyph>
<glyph name="LtnSmTurnedR" format="1">
  <advance width="931"/>
  <unicode hex="0279"/>
  <outline>
    <contour>
      <point x="486" y="213" type="curve"/>
      <point x="502" y="283"/>
      <point x="560" y="444"/>
      <point x="530" y="541" type="curve"/>
      <point x="477" y="365"/>
      <point x="362" y="175"/>
      <point x="283" y="175" type="curve" smooth="yes"/>
      <point x="200" y="175"/>
      <point x="165" y="228"/>
      <point x="151" y="228" type="curve" smooth="yes"/>
      <point x="131" y="228"/>
      <point x="-10" y="87"/>
      <point x="-10" y="46" type="curve" smooth="yes"/>
      <point x="-10" y="21"/>
      <point x="119" y="-41"/>
      <point x="184" y="-41" type="curve" smooth="yes"/>
      <point x="271" y="-41"/>
      <point x="369" y="17"/>
    </contour>
    <contour>
      <point x="914" y="118" type="curve"/>
      <point x="897" y="194" type="line"/>
      <point x="844" y="172"/>
      <point x="819" y="166"/>
      <point x="792" y="166" type="curve" smooth="yes"/>
      <point x="761" y="166"/>
      <point x="738" y="237"/>
      <point x="738" y="309" type="curve" smooth="yes"/>
      <point x="738" y="446"/>
      <point x="815" y="754"/>
      <point x="815" y="852" type="curve" smooth="yes"/>
      <point x="815" y="913"/>
      <point x="791" y="936"/>
      <point x="754" y="936" type="curve" smooth="yes"/>
      <point x="699" y="936"/>
      <point x="473" y="852"/>
      <point x="360" y="801" type="curve"/>
      <point x="380" y="722" type="line"/>
      <point x="401" y="730"/>
      <point x="452" y="749"/>
      <point x="474" y="749" type="curve" smooth="yes"/>
      <point x="499" y="749"/>
      <point x="525" y="743"/>
      <point x="525" y="682" type="curve" smooth="yes"/>
      <point x="525" y="589"/>
      <point x="474" y="349"/>
      <point x="474" y="251" type="curve" smooth="yes"/>
      <point x="474" y="24"/>
      <point x="577" y="-41"/>
      <point x="626" y="-41" type="curve" smooth="yes"/>
      <point x="675" y="-41"/>
      <point x="802" y="37"/>
    </contour>
    <contour>
      <point x="401" y="-100" type="move" name="L"/>
    </contour>
    <contour>
      <point x="601" y="1000" type="move" name="U"/>
    </contour>
  </outline>
</glyph>
<glyph name="LtnSmRLngLeg" format="1">
  <advance width="903"/>
  <unicode hex="027C"/>
  <outline>
    <contour>
      <point x="964" y="850" type="curve"/>
      <point x="905" y="874"/>
      <point x="818" y="936"/>
      <point x="771" y="936" type="curve" smooth="yes"/>
      <point x="685" y="936"/>
      <point x="598" y="891"/>
      <point x="469" y="698" type="curve"/>
      <point x="477" y="748"/>
      <point x="484" y="813"/>
      <point x="484" y="841" type="curve" smooth="yes"/>
      <point x="484" y="915"/>
      <point x="472" y="936"/>
      <point x="435" y="936" type="curve" smooth="yes"/>
      <point x="382" y="936"/>
      <point x="165" y="851"/>
      <point x="52" y="800" type="curve"/>
      <point x="71" y="723" type="line"/>
      <point x="71" y="723"/>
      <point x="139" y="747"/>
      <point x="164" y="747" type="curve" smooth="yes"/>
      <point x="186" y="747"/>
      <point x="205" y="741"/>
      <point x="205" y="680" type="curve" smooth="yes"/>
      <point x="205" y="559"/>
      <point x="80" y="-175"/>
      <point x="21" y="-459" type="curve"/>
      <point x="64" y="-500" type="line"/>
      <point x="97" y="-482"/>
      <point x="272" y="-403"/>
      <point x="317" y="-384" type="curve"/>
      <point x="313" y="-278"/>
      <point x="372" y="135"/>
      <point x="443" y="383" type="curve" smooth="yes"/>
      <point x="498" y="575"/>
      <point x="601" y="694"/>
      <point x="671" y="694" type="curve" smooth="yes"/>
      <point x="710" y="694"/>
      <point x="758" y="615"/>
      <point x="808" y="615" type="curve" smooth="yes"/>
      <point x="834" y="615"/>
      <point x="931" y="807"/>
    </contour>
    <contour>
      <point x="539" y="1000" type="move" name="U"/>
    </contour>
    <contour>
      <point x="153" y="-600" type="move" name="L"/>
    </contour>
  </outline>
</glyph>
<glyph name="LtnSmRevRFishhook" format="1">
  <advance width="684"/>
  <unicode hex="027F"/>
  <outline>
    <contour>
      <point x="675" y="709" type="curve" smooth="yes"/>
      <point x="697" y="878"/>
      <point x="577" y="936"/>
      <point x="448" y="936" type="curve" smooth="yes"/>
      <point x="320" y="936"/>
      <point x="163" y="876"/>
      <point x="47" y="773" type="curve"/>
      <point x="33" y="744"/>
      <point x="44" y="569"/>
      <point x="74" y="469" type="curve"/>
      <point x="148" y="469" type="line"/>
      <point x="168" y="592"/>
      <point x="249" y="788"/>
      <point x="346" y="788" type="curve" smooth="yes"/>
      <point x="393" y="788"/>
      <point x="448" y="756"/>
      <point x="430" y="612" type="curve" smooth="yes"/>
      <point x="379" y="206"/>
      <point x="301" y="-149"/>
      <point x="238" y="-461" type="curve"/>
      <point x="283" y="-500" type="line"/>
      <point x="316" y="-484"/>
      <point x="511" y="-409"/>
      <point x="547" y="-397" type="curve"/>
      <point x="530" y="-294"/>
      <point x="640" y="443"/>
    </contour>
    <contour>
      <point x="477" y="1000" type="move" name="U"/>
    </contour>
    <contour>
      <point x="281" y="-600" type="move" name="L"/>
    </contour>
  </outline>
</glyph>
<glyph name="LtnSmTRetrHook" format="1">
  <advance width="724"/>
  <unicode hex="0288"/>
  <outline>
    <contour>
      <point x="760" y="867" type="curve"/>
      <point x="730" y="905" type="line"/>
      <point x="480" y="905" type="line"/>
      <point x="490" y="963" type="line" smooth="yes"/>
      <point x="518" y="1128"/>
      <point x="541" y="1151"/>
      <point x="541" y="1151" type="curve"/>
      <point x="513" y="1176" type="line"/>
      <point x="292" y="1074" type="line" smooth="yes"/>
      <point x="252" y="1055"/>
      <point x="240" y="1049"/>
      <point x="223" y="940" type="curve" smooth="yes"/>
      <point x="217" y="905" type="line"/>
      <point x="165" y="905" type="line"/>
      <point x="39" y="816" type="line"/>
      <point x="64" y="775" type="line"/>
      <point x="196" y="775" type="line"/>
      <point x="126" y="332" type="line" smooth="yes"/>
      <point x="100" y="168"/>
      <point x="70" y="-60"/>
      <point x="70" y="-197" type="curve" smooth="yes"/>
      <point x="70" y="-394"/>
      <point x="148" y="-500"/>
      <point x="249" y="-500" type="curve" smooth="yes"/>
      <point x="441" y="-500"/>
      <point x="714" y="-334"/>
      <point x="730" y="-143" type="curve"/>
      <point x="702" y="-78" type="line"/>
      <point x="625" y="-94"/>
      <point x="506" y="-137"/>
      <point x="448" y="-178" type="curve"/>
      <point x="491" y="-255"/>
      <point x="484" y="-337"/>
      <point x="418" y="-337" type="curve" smooth="yes"/>
      <point x="372" y="-337"/>
      <point x="338" y="-274"/>
      <point x="338" y="-149" type="curve" smooth="yes"/>
      <point x="338" y="-51"/>
      <point x="365" y="178"/>
      <point x="391" y="340" type="curve" smooth="yes"/>
      <point x="460" y="775" type="line"/>
      <point x="545" y="775"/>
      <point x="602" y="767"/>
      <point x="618" y="730" type="curve"/>
      <point x="643" y="744"/>
      <point x="733" y="830"/>
    </contour>
    <contour>
      <point x="453" y="1230" type="move" name="U"/>
    </contour>
    <contour>
      <point x="252" y="-600" type="move" name="L"/>
    </contour>
    <contour>
      <point x="603" y="870" type="move" name="R"/>
    </contour>
  </outline>
</glyph>
<glyph name="LtnSmCapB" format="1">
  <advance width="983"/>
  <unicode hex="0299"/>
  <outline>
    <contour>
      <point x="898" y="291" type="curve" smooth="yes"/>
      <point x="910" y="378"/>
      <point x="840" y="495"/>
      <point x="690" y="520" type="curve"/>
      <point x="800" y="538"/>
      <point x="873" y="617"/>
      <point x="885" y="717" type="curve" smooth="yes"/>
      <point x="898" y="830"/>
      <point x="810" y="936"/>
      <point x="535" y="936" type="curve" smooth="yes"/>
      <point x="365" y="936"/>
      <point x="174" y="913"/>
      <point x="84" y="891" type="curve"/>
      <point x="84" y="796" type="line"/>
      <point x="180" y="809"/>
      <point x="315" y="821"/>
      <point x="482" y="821" type="curve" smooth="yes"/>
      <point x="608" y="821"/>
      <point x="628" y="754"/>
      <point x="620" y="691" type="curve" smooth="yes"/>
      <point x="613" y="637"/>
      <point x="566" y="556"/>
      <point x="451" y="556" type="curve" smooth="yes"/>
      <point x="359" y="556" type="line"/>
      <point x="355" y="424" type="line"/>
      <point x="388" y="429"/>
      <point x="430" y="436"/>
      <point x="473" y="436" type="curve" smooth="yes"/>
      <point x="597" y="436"/>
      <point x="647" y="357"/>
      <point x="632" y="253" type="curve" smooth="yes"/>
      <point x="618" y="159"/>
      <point x="568" y="111"/>
      <point x="477" y="111" type="curve" smooth="yes"/>
      <point x="420" y="111"/>
      <point x="393" y="122"/>
      <point x="359" y="138" type="curve"/>
      <point x="30" y="0" type="line"/>
      <point x="30" y="0"/>
      <point x="373" y="-10"/>
      <point x="470" y="-10" type="curve" smooth="yes"/>
      <point x="767" y="-10"/>
      <point x="875" y="127"/>
    </contour>
    <contour>
      <point x="453" y="0" type="line"/>
      <point x="462" y="72" type="line"/>
      <point x="384" y="84"/>
      <point x="367" y="130"/>
      <point x="368" y="141" type="curve" smooth="yes"/>
      <point x="466" y="852" type="line"/>
      <point x="205" y="836" type="line"/>
      <point x="108" y="141" type="line"/>
      <point x="107" y="129"/>
      <point x="55" y="99"/>
      <point x="-23" y="82" type="curve"/>
      <point x="-34" y="0" type="line"/>
    </contour>
    <contour>
      <point x="406" y="-100" type="move" name="L"/>
    </contour>
    <contour>
      <point x="569" y="1000" type="move" name="U"/>
    </contour>
  </outline>
</glyph>
<glyph name="LtnSmCapL" format="1">
  <advance width="908"/>
  <unicode hex="029F"/>
  <outline>
    <contour>
      <point x="848" y="280" type="curve"/>
      <point x="772" y="292" type="line"/>
      <point x="709" y="177"/>
      <point x="661" y="130"/>
      <point x="558" y="130" type="curve" smooth="yes"/>
      <point x="544" y="130" type="line" smooth="yes"/>
      <point x="423" y="130"/>
      <point x="391" y="148"/>
      <point x="396" y="183" type="curve" smooth="yes"/>
      <point x="478" y="778" type="line" smooth="yes"/>
      <point x="480" y="792"/>
      <point x="531" y="810"/>
      <point x="608" y="824" type="curve"/>
      <point x="620" y="906" type="line"/>
      <point x="113" y="906" type="line"/>
      <point x="101" y="824" type="line"/>
      <point x="179" y="810"/>
      <point x="221" y="790"/>
      <point x="220" y="778" type="curve"/>
      <point x="130" y="127" type="line"/>
      <point x="129" y="114"/>
      <point x="77" y="95"/>
      <point x="0" y="82" type="curve"/>
      <point x="-10" y="0" type="line"/>
      <point x="770" y="0" type="line"/>
      <point x="781" y="29"/>
      <point x="837" y="205"/>
    </contour>
    <contour>
      <point x="486" y="1000" type="move" name="U"/>
    </contour>
    <contour>
      <point x="400" y="-100" type="move" name="L"/>
    </contour>
  </outline>
</glyph>
<glyph name="LtnBidentalPercussive" format="1">
  <advance width="1011"/>
  <unicode hex="02AD"/>
  <outline>
    <contour>
      <point x="186" y="31" type="curve"/>
      <point x="221" y="284" type="line"/>
      <point x="740" y="284" type="line"/>
      <point x="700" y="-6" type="line"/>
      <point x="730" y="-40" type="line"/>
      <point x="770" y="-27"/>
      <point x="838" y="13"/>
      <point x="866" y="31" type="curve"/>
      <point x="918" y="404" type="line"/>
      <point x="894" y="436" type="line"/>
      <point x="203" y="436" type="line"/>
      <point x="163" y="414"/>
      <point x="75" y="343"/>
      <point x="65" y="318" type="curve"/>
      <point x="20" y="-6" type="line"/>
      <point x="50" y="-40" type="line"/>
      <point x="93" y="-26"/>
      <point x="157" y="12"/>
    </contour>
    <contour>
      <point x="284" y="733" type="curve"/>
      <point x="319" y="986" type="line"/>
      <point x="838" y="986" type="line"/>
      <point x="798" y="696" type="line"/>
      <point x="828" y="662" type="line"/>
      <point x="868" y="675"/>
      <point x="936" y="715"/>
      <point x="964" y="733" type="curve"/>
      <point x="1016" y="1106" type="line"/>
      <point x="992" y="1138" type="line"/>
      <point x="301" y="1138" type="line"/>
      <point x="261" y="1116"/>
      <point x="173" y="1045"/>
      <point x="163" y="1020" type="curve"/>
      <point x="118" y="696" type="line"/>
      <point x="148" y="662" type="line"/>
      <point x="191" y="676"/>
      <point x="255" y="714"/>
    </contour>
    <contour>
      <point x="279" y="-100" type="move" name="L"/>
    </contour>
    <contour>
      <point x="471" y="1228" type="move" name="U"/>
    </contour>
  </outline>
</glyph>
<glyph name="ModRtHalfRing" format="1">
  <advance width="484"/>
  <unicode hex="02BE"/>
  <outline>
    <component base="ModCntrdRtHalfRing" xOffset="90" yOffset="680"/>
    <contour>
      <point x="164" y="-100" type="move" name="L"/>
    </contour>
    <contour>
      <point x="396" y="1570" type="move" name="U"/>
    </contour>
  </outline>
</glyph>
<glyph name="ModLftHalfRing" format="1">
  <advance width="484"/>
  <unicode hex="02BF"/>
  <outline>
    <component base="ModCntrdLftHalfRing" xOffset="108" yOffset="680"/>
    <contour>
      <point x="161" y="-100" type="move" name="L"/>
    </contour>
    <contour>
      <point x="393" y="1570" type="move" name="U"/>
    </contour>
  </outline>
</glyph>
<glyph name="ModVertLine" format="1">
  <advance width="462"/>
  <unicode hex="02C8"/>
  <outline>
    <contour>
      <point x="354" y="1005" type="curve"/>
      <point x="447" y="1653" type="line"/>
      <point x="417" y="1686" type="line"/>
      <point x="393" y="1681"/>
      <point x="316" y="1657"/>
      <point x="293" y="1647" type="curve"/>
      <point x="200" y="997" type="line"/>
      <point x="230" y="966" type="line"/>
      <point x="254" y="972"/>
      <point x="329" y="992"/>
    </contour>
  </outline>
</glyph>
<glyph name="ModTriangularColon" format="1">
  <advance width="562"/>
  <unicode hex="02D0"/>
  <outline>
    <contour>
      <point x="186" y="906" type="line"/>
      <point x="231" y="808"/>
      <point x="272" y="634"/>
      <point x="293" y="525" type="curve"/>
      <point x="363" y="623"/>
      <point x="486" y="795"/>
      <point x="537" y="906" type="curve"/>
    </contour>
    <contour>
      <point x="371" y="0" type="line"/>
      <point x="326" y="98"/>
      <point x="285" y="272"/>
      <point x="264" y="381" type="curve"/>
      <point x="194" y="283"/>
      <point x="71" y="111"/>
      <point x="20" y="0" type="curve"/>
    </contour>
    <contour>
      <point x="204" y="-100" type="move" name="L"/>
    </contour>
    <contour>
      <point x="363" y="1050" type="move" name="U"/>
    </contour>
  </outline>
</glyph>
<glyph name="ModPlusSgn" format="1">
  <advance width="660"/>
  <unicode hex="02D6"/>
  <outline>
    <contour>
      <point x="79" y="598" type="line"/>
      <point x="62" y="575"/>
      <point x="29" y="505"/>
      <point x="20" y="482" type="curve"/>
      <point x="47" y="448" type="line"/>
      <point x="564" y="448" type="line"/>
      <point x="577" y="470"/>
      <point x="612" y="542"/>
      <point x="620" y="565" type="curve"/>
      <point x="591" y="600" type="line"/>
    </contour>
    <contour>
      <point x="358" y="296" type="curve"/>
      <point x="431" y="741" type="line"/>
      <point x="401" y="774" type="line"/>
      <point x="374" y="768"/>
      <point x="305" y="747"/>
      <point x="278" y="737" type="curve"/>
      <point x="201" y="288" type="line"/>
      <point x="231" y="257" type="line"/>
      <point x="255" y="263"/>
      <point x="333" y="283"/>
    </contour>
  </outline>
</glyph>
<glyph name="ModVoicing" format="1">
  <advance width="644"/>
  <unicode hex="02EC"/>
  <outline>
    <contour>
      <point x="629" y="-159" type="line"/>
      <point x="614" y="-135"/>
      <point x="583" y="-108"/>
      <point x="567" y="-94" type="curve"/>
      <point x="274" y="-308" type="line"/>
      <point x="45" y="-94" type="line"/>
      <point x="23" y="-109"/>
      <point x="-9" y="-136"/>
      <point x="-30" y="-159" type="curve"/>
      <point x="176" y="-540" type="line"/>
      <point x="328" y="-540" type="line"/>
    </contour>
    <contour>
      <point x="243" y="-600" type="move" name="L"/>
    </contour>
  </outline>
</glyph>
<glyph name="ModLowRing" format="1">
  <advance width="372"/>
  <unicode hex="02F3"/>
  <outline>
    <contour>
      <point x="352" y="-276" type="curve" smooth="yes"/>
      <point x="352" y="-192"/>
      <point x="295" y="-117"/>
      <point x="195" y="-117" type="curve" smooth="yes"/>
      <point x="50" y="-117"/>
      <point x="-60" y="-278"/>
      <point x="-60" y="-407" type="curve" smooth="yes"/>
      <point x="-60" y="-483"/>
      <point x="-11" y="-560"/>
      <point x="89" y="-560" type="curve" smooth="yes"/>
      <point x="238" y="-560"/>
      <point x="352" y="-395"/>
    </contour>
    <contour>
      <point x="203" y="-313" type="curve" smooth="yes"/>
      <point x="203" y="-377"/>
      <point x="166" y="-425"/>
      <point x="128" y="-426" type="curve" smooth="yes"/>
      <point x="102" y="-427"/>
      <point x="79" y="-403"/>
      <point x="79" y="-364" type="curve" smooth="yes"/>
      <point x="79" y="-301"/>
      <point x="113" y="-253"/>
      <point x="157" y="-253" type="curve" smooth="yes"/>
      <point x="182" y="-253"/>
      <point x="203" y="-276"/>
    </contour>
  </outline>
</glyph>
<glyph name="ModEndHighTn" format="1">
  <advance width="631"/>
  <unicode hex="02FA"/>
  <outline>
    <contour>
      <point x="51" y="1240" type="line"/>
      <point x="51" y="1153" type="line"/>
      <point x="495" y="1153" type="line"/>
      <point x="495" y="586" type="line"/>
      <point x="582" y="586" type="line"/>
      <point x="582" y="1240" type="line"/>
    </contour>
  </outline>
</glyph>
<glyph name="CombOverline" format="1">
  <advance width="0"/>
  <unicode hex="0305"/>
  <outline>
    <contour>
      <point x="195" y="1268" type="curve"/>
      <point x="166" y="1303" type="line"/>
      <point x="-840" y="1303" type="line"/>
      <point x="-855" y="1276"/>
      <point x="-899" y="1198"/>
      <point x="-909" y="1171" type="curve"/>
      <point x="-883" y="1137" type="line"/>
      <point x="125" y="1137" type="line"/>
      <point x="138" y="1159"/>
      <point x="186" y="1239"/>
    </contour>
    <contour>
      <point x="-336" y="1370" type="move" name="U"/>
    </contour>
    <contour>
      <point x="-388" y="1000" type="move" name="_U"/>
    </contour>
  </outline>
</glyph>
<glyph name="CombRingAbv" format="1">
  <advance width="0"/>
  <unicode hex="030A"/>
  <outline>
    <contour>
      <point x="-147" y="1310" type="curve" smooth="yes"/>
      <point x="-147" y="1394"/>
      <point x="-204" y="1469"/>
      <point x="-304" y="1469" type="curve" smooth="yes"/>
      <point x="-449" y="1469"/>
      <point x="-559" y="1308"/>
      <point x="-559" y="1179" type="curve" smooth="yes"/>
      <point x="-559" y="1103"/>
      <point x="-510" y="1026"/>
      <point x="-410" y="1026" type="curve" smooth="yes"/>
      <point x="-261" y="1026"/>
      <point x="-147" y="1191"/>
    </contour>
    <contour>
      <point x="-296" y="1273" type="curve" smooth="yes"/>
      <point x="-296" y="1209"/>
      <point x="-333" y="1161"/>
      <point x="-371" y="1160" type="curve" smooth="yes"/>
      <point x="-397" y="1159"/>
      <point x="-420" y="1183"/>
      <point x="-420" y="1222" type="curve" smooth="yes"/>
      <point x="-420" y="1285"/>
      <point x="-386" y="1333"/>
      <point x="-342" y="1333" type="curve" smooth="yes"/>
      <point x="-317" y="1333"/>
      <point x="-296" y="1310"/>
    </contour>
    <contour>
      <point x="-333" y="1420" type="move" name="U"/>
    </contour>
    <contour>
      <point x="-387" y="1000" type="move" name="_U"/>
    </contour>
  </outline>
</glyph>
<glyph name="CombDblAcute" format="1">
  <advance width="0"/>
  <unicode hex="030B"/>
  <outline>
    <contour>
      <point x="113" y="1383" type="line"/>
      <point x="87" y="1454" type="line"/>
      <point x="67" y="1464"/>
      <point x="-47" y="1492"/>
      <point x="-73" y="1496" type="curve"/>
      <point x="-293" y="1072" type="line"/>
      <point x="-275" y="1056"/>
      <point x="-226" y="1024"/>
      <point x="-206" y="1022" type="curve"/>
    </contour>
    <contour>
      <point x="-187" y="1383" type="line"/>
      <point x="-213" y="1454" type="line"/>
      <point x="-233" y="1464"/>
      <point x="-347" y="1492"/>
      <point x="-373" y="1496" type="curve"/>
      <point x="-593" y="1072" type="line"/>
      <point x="-575" y="1056"/>
      <point x="-526" y="1024"/>
      <point x="-506" y="1022" type="curve"/>
    </contour>
    <contour>
      <point x="-249" y="1524" type="move" name="U"/>
    </contour>
    <contour>
      <point x="-394" y="1000" type="move" name="_U"/>
    </contour>
  </outline>
</glyph>
<glyph name="CombInvBreve" format="1">
  <advance width="0"/>
  <unicode hex="0311"/>
  <outline>
    <contour>
      <point x="-715" y="1083" type="curve"/>
      <point x="-702" y="1058"/>
      <point x="-660" y="1013"/>
      <point x="-642" y="1000" type="curve"/>
      <point x="-569" y="1127"/>
      <point x="-435" y="1169"/>
      <point x="-351" y="1169" type="curve" smooth="yes"/>
      <point x="-275" y="1169"/>
      <point x="-162" y="1127"/>
      <point x="-122" y="1000" type="curve"/>
      <point x="-102" y="1013"/>
      <point x="-55" y="1060"/>
      <point x="-37" y="1083" type="curve"/>
      <point x="-82" y="1296"/>
      <point x="-222" y="1378"/>
      <point x="-339" y="1378" type="curve" smooth="yes"/>
      <point x="-445" y="1378"/>
      <point x="-616" y="1298"/>
    </contour>
    <contour>
      <point x="-343" y="1320" type="move" name="U"/>
    </contour>
    <contour>
      <point x="-387" y="1000" type="move" name="_U"/>
    </contour>
  </outline>
</glyph>
<glyph name="CombRevCommaAbv" format="1">
  <advance width="0"/>
  <unicode hex="0314"/>
  <outline>
    <contour>
      <point x="-392" y="1492" type="curve"/>
      <point x="-455" y="1461"/>
      <point x="-517" y="1387"/>
      <point x="-518" y="1281" type="curve" smooth="yes"/>
      <point x="-519" y="1175"/>
      <point x="-474" y="1077"/>
      <point x="-323" y="1003" type="curve"/>
      <point x="-264" y="1053" type="line"/>
      <point x="-319" y="1111"/>
      <point x="-329" y="1159"/>
      <point x="-324" y="1208" type="curve" smooth="yes"/>
      <point x="-318" y="1271"/>
      <point x="-266" y="1336"/>
      <point x="-164" y="1337" type="curve"/>
      <point x="-139" y="1407" type="line"/>
      <point x="-191" y="1435"/>
      <point x="-314" y="1494"/>
    </contour>
    <contour>
      <point x="-332" y="1422" type="move" name="U"/>
    </contour>
    <contour>
      <point x="-389" y="1000" type="move" name="_U"/>
    </contour>
  </outline>
</glyph>
<glyph name="CombRtTackBlw" format="1">
  <advance width="0"/>
  <unicode hex="0319"/>
  <outline>
    <contour>
      <point x="-710" y="-254" type="line"/>
      <point x="-726" y="-277"/>
      <point x="-756" y="-332"/>
      <point x="-765" y="-355" type="curve"/>
      <point x="-738" y="-389" type="line"/>
      <point x="-425" y="-390" type="line"/>
      <point x="-412" y="-369"/>
      <point x="-378" y="-314"/>
      <point x="-370" y="-291" type="curve"/>
      <point x="-396" y="-254" type="line"/>
    </contour>
    <contour>
      <point x="-789" y="-528" type="line"/>
      <point x="-758" y="-562" type="line"/>
      <point x="-734" y="-557"/>
      <point x="-672" y="-529"/>
      <point x="-648" y="-519" type="curve"/>
      <point x="-595" y="-116" type="line"/>
      <point x="-625" y="-84" type="line"/>
      <point x="-649" y="-90"/>
      <point x="-710" y="-113"/>
      <point x="-735" y="-127" type="curve"/>
    </contour>
    <contour>
      <point x="-608" y="-600" type="move" name="L"/>
    </contour>
    <contour>
      <point x="-540" y="-100" type="move" name="_L"/>
    </contour>
  </outline>
</glyph>
<glyph name="CombMinusSgnBlw" format="1">
  <advance width="0"/>
  <unicode hex="0320"/>
  <outline>
    <contour>
      <point x="-271" y="-252" type="curve"/>
      <point x="-300" y="-217" type="line"/>
      <point x="-797" y="-217" type="line"/>
      <point x="-812" y="-244"/>
      <point x="-856" y="-322"/>
      <point x="-866" y="-349" type="curve"/>
      <point x="-840" y="-383" type="line"/>
      <point x="-341" y="-383" type="line"/>
      <point x="-328" y="-361"/>
      <point x="-280" y="-281"/>
    </contour>
    <contour>
      <point x="-609" y="-600" type="move" name="L"/>
    </contour>
    <contour>
      <point x="-540" y="-100" type="move" name="_L"/>
    </contour>
  </outline>
</glyph>
<glyph name="CombDotBlw" format="1">
  <advance width="0"/>
  <unicode hex="0323"/>
  <outline>
    <contour>
      <point x="-423" y="-245" type="curve" smooth="yes"/>
      <point x="-423" y="-190"/>
      <point x="-456" y="-134"/>
      <point x="-527" y="-134" type="curve" smooth="yes"/>
      <point x="-633" y="-134"/>
      <point x="-696" y="-250"/>
      <point x="-696" y="-331" type="curve" smooth="yes"/>
      <point x="-696" y="-386"/>
      <point x="-665" y="-441"/>
      <point x="-594" y="-441" type="curve" smooth="yes"/>
      <point x="-487" y="-441"/>
      <point x="-423" y="-329"/>
    </contour>
    <contour>
      <point x="-604" y="-600" type="move" name="L"/>
    </contour>
    <contour>
      <point x="-535" y="-100" type="move" name="_L"/>
    </contour>
  </outline>
</glyph>
<glyph name="CombVertLineBlw" format="1">
  <advance width="0"/>
  <unicode hex="0329"/>
  <outline>
    <contour>
      <point x="-514" y="-481" type="curve"/>
      <point x="-463" y="-123" type="line"/>
      <point x="-493" y="-90" type="line"/>
      <point x="-517" y="-95"/>
      <point x="-595" y="-129"/>
      <point x="-618" y="-139" type="curve"/>
      <point x="-668" y="-499" type="line"/>
      <point x="-638" y="-530" type="line"/>
      <point x="-614" y="-524"/>
      <point x="-539" y="-494"/>
    </contour>
    <contour>
      <point x="-610" y="-600" type="move" name="L"/>
    </contour>
    <contour>
      <point x="-541" y="-100" type="move" name="_L"/>
    </contour>
  </outline>
</glyph>
<glyph name="CombBridgeBlw" format="1">
  <advance width="0"/>
  <unicode hex="032A"/>
  <outline>
    <contour>
      <point x="-740" y="-443" type="curve"/>
      <point x="-716" y="-266" type="line"/>
      <point x="-415" y="-267" type="line"/>
      <point x="-441" y="-452" type="line"/>
      <point x="-406" y="-496" type="line"/>
      <point x="-382" y="-491"/>
      <point x="-324" y="-457"/>
      <point x="-300" y="-443" type="curve"/>
      <point x="-263" y="-163" type="line"/>
      <point x="-291" y="-131" type="line"/>
      <point x="-772" y="-131" type="line"/>
      <point x="-796" y="-148"/>
      <point x="-838" y="-177"/>
      <point x="-845" y="-190" type="curve"/>
      <point x="-881" y="-452" type="line"/>
      <point x="-846" y="-496" type="line"/>
      <point x="-822" y="-491"/>
      <point x="-764" y="-457"/>
    </contour>
    <contour>
      <point x="-609" y="-600" type="move" name="L"/>
    </contour>
    <contour>
      <point x="-541" y="-100" type="move" name="_L"/>
    </contour>
  </outline>
</glyph>
<glyph name="CombCaronBlw" format="1">
  <advance width="0"/>
  <unicode hex="032C"/>
  <outline>
    <contour>
      <point x="-220" y="-159" type="line"/>
      <point x="-235" y="-135"/>
      <point x="-266" y="-108"/>
      <point x="-282" y="-94" type="curve"/>
      <point x="-575" y="-308" type="line"/>
      <point x="-804" y="-94" type="line"/>
      <point x="-826" y="-109"/>
      <point x="-858" y="-136"/>
      <point x="-879" y="-159" type="curve"/>
      <point x="-673" y="-540" type="line"/>
      <point x="-521" y="-540" type="line"/>
    </contour>
    <contour>
      <point x="-612" y="-600" type="move" name="L"/>
    </contour>
    <contour>
      <point x="-544" y="-100" type="move" name="_L"/>
    </contour>
  </outline>
</glyph>
<glyph name="CombCircumBlw" format="1">
  <advance width="0"/>
  <unicode hex="032D"/>
  <outline>
    <contour>
      <point x="-264" y="-528" type="curve"/>
      <point x="-467" y="-147" type="line"/>
      <point x="-619" y="-147" type="line"/>
      <point x="-923" y="-528" type="line"/>
      <point x="-910" y="-555"/>
      <point x="-873" y="-585"/>
      <point x="-861" y="-593" type="curve"/>
      <point x="-569" y="-378" type="line"/>
      <point x="-340" y="-593" type="line"/>
      <point x="-319" y="-583"/>
      <point x="-282" y="-555"/>
    </contour>
    <contour>
      <point x="-607" y="-600" type="move" name="L"/>
    </contour>
    <contour>
      <point x="-539" y="-100" type="move" name="_L"/>
    </contour>
  </outline>
</glyph>
<glyph name="CombTildeBlw" format="1">
  <advance width="0"/>
  <unicode hex="0330"/>
  <outline>
    <contour>
      <point x="-167" y="-162" type="curve"/>
      <point x="-240" y="-129" type="line"/>
      <point x="-293" y="-207"/>
      <point x="-333" y="-242"/>
      <point x="-390" y="-242" type="curve" smooth="yes"/>
      <point x="-477" y="-242"/>
      <point x="-555" y="-139"/>
      <point x="-677" y="-139" type="curve" smooth="yes"/>
      <point x="-796" y="-139"/>
      <point x="-910" y="-330"/>
      <point x="-968" y="-439" type="curve"/>
      <point x="-896" y="-469" type="line"/>
      <point x="-839" y="-395"/>
      <point x="-805" y="-356"/>
      <point x="-747" y="-356" type="curve" smooth="yes"/>
      <point x="-646" y="-356"/>
      <point x="-571" y="-459"/>
      <point x="-458" y="-459" type="curve" smooth="yes"/>
      <point x="-338" y="-459"/>
      <point x="-224" y="-270"/>
    </contour>
    <contour>
      <point x="-608" y="-600" type="move" name="L"/>
    </contour>
    <contour>
      <point x="-539" y="-100" type="move" name="_L"/>
    </contour>
  </outline>
</glyph>
<glyph name="CombSqrBlw" format="1">
  <advance width="0"/>
  <unicode hex="033B"/>
  <outline>
    <contour>
      <point x="-300" y="-166" type="line"/>
      <point x="-334" y="-124" type="line"/>
      <point x="-701" y="-124" type="line"/>
      <point x="-718" y="-137"/>
      <point x="-772" y="-173"/>
      <point x="-779" y="-186" type="curve"/>
      <point x="-828" y="-528" type="line"/>
      <point x="-793" y="-574" type="line"/>
      <point x="-434" y="-574" type="line"/>
      <point x="-403" y="-559"/>
      <point x="-370" y="-530"/>
      <point x="-345" y="-504" type="curve"/>
    </contour>
    <contour>
      <point x="-451" y="-260" type="line"/>
      <point x="-475" y="-438" type="line"/>
      <point x="-675" y="-438" type="line"/>
      <point x="-652" y="-259" type="line"/>
    </contour>
    <contour>
      <point x="-610" y="-600" type="move" name="L"/>
    </contour>
    <contour>
      <point x="-541" y="-100" type="move" name="_L"/>
    </contour>
  </outline>
</glyph>
<glyph name="CombGrPeris" format="1">
  <advance width="0"/>
  <unicode hex="0342"/>
  <outline>
    <contour>
      <point x="34" y="1342" type="curve"/>
      <point x="-51" y="1379" type="line"/>
      <point x="-111" y="1295"/>
      <point x="-152" y="1275"/>
      <point x="-199" y="1275" type="curve" smooth="yes"/>
      <point x="-264" y="1275"/>
      <point x="-352" y="1374"/>
      <point x="-450" y="1374" type="curve" smooth="yes"/>
      <point x="-582" y="1374"/>
      <point x="-686" y="1213"/>
      <point x="-741" y="1107" type="curve"/>
      <point x="-658" y="1068" type="line"/>
      <point x="-603" y="1142"/>
      <point x="-558" y="1177"/>
      <point x="-511" y="1177" type="curve" smooth="yes"/>
      <point x="-431" y="1177"/>
      <point x="-350" y="1078"/>
      <point x="-256" y="1078" type="curve" smooth="yes"/>
      <point x="-122" y="1078"/>
      <point x="-22" y="1235"/>
    </contour>
  </outline>
</glyph>
<glyph name="CombLftHalfRingAbv" format="1">
  <advance width="0"/>
  <unicode hex="0351"/>
  <outline>
    <contour>
      <point x="-278" y="1147" type="line"/>
      <point x="-340" y="1142"/>
      <point x="-419" y="1165"/>
      <point x="-404" y="1260" type="curve" smooth="yes"/>
      <point x="-391" y="1342"/>
      <point x="-313" y="1362"/>
      <point x="-256" y="1354" type="curve"/>
      <point x="-231" y="1473" type="line"/>
      <point x="-391" y="1494"/>
      <point x="-514" y="1376"/>
      <point x="-530" y="1260" type="curve" smooth="yes"/>
      <point x="-550" y="1116"/>
      <point x="-441" y="1013"/>
      <point x="-299" y="1031" type="curve"/>
    </contour>
    <contour>
      <point x="-340" y="1353" type="move" name="U"/>
    </contour>
    <contour>
      <point x="-389" y="1000" type="move" name="_U"/>
    </contour>
  </outline>
</glyph>
<glyph name="CombRtHalfRingAbv" format="1">
  <advance width="0"/>
  <unicode hex="0357"/>
  <outline>
    <contour>
      <point x="-438" y="1353" type="line"/>
      <point x="-376" y="1358"/>
      <point x="-297" y="1335"/>
      <point x="-312" y="1240" type="curve" smooth="yes"/>
      <point x="-325" y="1158"/>
      <point x="-403" y="1138"/>
      <point x="-460" y="1146" type="curve"/>
      <point x="-485" y="1027" type="line"/>
      <point x="-325" y="1006"/>
      <point x="-202" y="1124"/>
      <point x="-186" y="1240" type="curve" smooth="yes"/>
      <point x="-166" y="1384"/>
      <point x="-275" y="1487"/>
      <point x="-417" y="1469" type="curve"/>
    </contour>
    <contour>
      <point x="-340" y="1353" type="move" name="U"/>
    </contour>
    <contour>
      <point x="-389" y="1000" type="move" name="_U"/>
    </contour>
  </outline>
</glyph>
<glyph name="CombDblRtArrwBlw" format="1">
  <advance width="0"/>
  <unicode hex="0362"/>
  <outline>
    <contour>
      <point x="526" y="-286" type="curve"/>
      <point x="509" y="-241" type="line"/>
      <point x="-844" y="-241" type="line"/>
      <point x="-860" y="-264"/>
      <point x="-883" y="-300"/>
      <point x="-894" y="-327" type="curve"/>
      <point x="-869" y="-361" type="line"/>
      <point x="495" y="-361" type="line"/>
      <point x="509" y="-340"/>
      <point x="517" y="-312"/>
    </contour>
    <contour>
      <point x="491" y="-301" type="line"/>
      <point x="372" y="-486" type="line"/>
      <point x="440" y="-522" type="line"/>
      <point x="636" y="-301" type="line"/>
      <point x="495" y="-80" type="line"/>
      <point x="417" y="-116" type="line"/>
    </contour>
    <contour>
      <point x="-159" y="-600" type="move" name="L"/>
    </contour>
  </outline>
</glyph>
<glyph name="CombLtnSmI" format="1">
  <advance width="0"/>
  <unicode hex="0365"/>
  <outline>
    <contour>
      <point x="-206" y="1625" type="curve" smooth="yes"/>
      <point x="-206" y="1654"/>
      <point x="-229" y="1678"/>
      <point x="-266" y="1678" type="curve" smooth="yes"/>
      <point x="-324" y="1678"/>
      <point x="-357" y="1622"/>
      <point x="-357" y="1577" type="curve" smooth="yes"/>
      <point x="-357" y="1547"/>
      <point x="-334" y="1525"/>
      <point x="-296" y="1525" type="curve" smooth="yes"/>
      <point x="-240" y="1525"/>
      <point x="-206" y="1576"/>
    </contour>
    <contour>
      <point x="-297" y="1485" type="curve" smooth="yes"/>
      <point x="-330" y="1485"/>
      <point x="-414" y="1451"/>
      <point x="-475" y="1426" type="curve"/>
      <point x="-456" y="1378" type="line"/>
      <point x="-443" y="1382"/>
      <point x="-416" y="1388"/>
      <point x="-406" y="1388" type="curve" smooth="yes"/>
      <point x="-397" y="1388"/>
      <point x="-393" y="1385"/>
      <point x="-393" y="1367" type="curve" smooth="yes"/>
      <point x="-393" y="1328"/>
      <point x="-441" y="1164"/>
      <point x="-441" y="1098" type="curve" smooth="yes"/>
      <point x="-441" y="1062"/>
      <point x="-422" y="1029"/>
      <point x="-390" y="1029" type="curve" smooth="yes"/>
      <point x="-338" y="1029"/>
      <point x="-279" y="1054"/>
      <point x="-206" y="1096" type="curve"/>
      <point x="-225" y="1143" type="line"/>
      <point x="-251" y="1133"/>
      <point x="-272" y="1129"/>
      <point x="-282" y="1129" type="curve" smooth="yes"/>
      <point x="-288" y="1129"/>
      <point x="-296" y="1134"/>
      <point x="-296" y="1154" type="curve" smooth="yes"/>
      <point x="-296" y="1197"/>
      <point x="-247" y="1377"/>
      <point x="-247" y="1441" type="curve" smooth="yes"/>
      <point x="-247" y="1474"/>
      <point x="-269" y="1485"/>
    </contour>
    <contour>
      <point x="-276" y="1720" type="move" name="U"/>
    </contour>
    <contour>
      <point x="-385" y="1000" type="move" name="_U"/>
    </contour>
  </outline>
</glyph>
<glyph name="GrCapYot" format="1">
  <advance width="658"/>
  <unicode hex="037F"/>
  <outline>
    <component base="LtnCapJ"/>
    <contour>
      <point x="205" y="-600" type="move" name="L"/>
    </contour>
    <contour>
      <point x="469" y="1320" type="move" name="U"/>
    </contour>
  </outline>
</glyph>
<glyph name="GrDialTonos" format="1">
  <advance width="911"/>
  <unicode hex="0385"/>
  <outline>
    <contour>
      <point x="896" y="1272" type="curve" smooth="yes"/>
      <point x="896" y="1327"/>
      <point x="863" y="1383"/>
      <point x="792" y="1383" type="curve" smooth="yes"/>
      <point x="686" y="1383"/>
      <point x="623" y="1267"/>
      <point x="623" y="1186" type="curve" smooth="yes"/>
      <point x="623" y="1131"/>
      <point x="654" y="1076"/>
      <point x="725" y="1076" type="curve" smooth="yes"/>
      <point x="832" y="1076"/>
      <point x="896" y="1188"/>
    </contour>
    <contour>
      <point x="283" y="1272" type="curve" smooth="yes"/>
      <point x="283" y="1327"/>
      <point x="250" y="1383"/>
      <point x="179" y="1383" type="curve" smooth="yes"/>
      <point x="73" y="1383"/>
      <point x="10" y="1267"/>
      <point x="10" y="1186" type="curve" smooth="yes"/>
      <point x="10" y="1131"/>
      <point x="41" y="1076"/>
      <point x="112" y="1076" type="curve" smooth="yes"/>
      <point x="219" y="1076"/>
      <point x="283" y="1188"/>
    </contour>
    <contour>
      <point x="796" y="1519" type="line"/>
      <point x="748" y="1586" type="line"/>
      <point x="696" y="1576"/>
      <point x="506" y="1533"/>
      <point x="462" y="1520" type="curve"/>
      <point x="282" y="1120" type="line"/>
      <point x="305" y="1099"/>
      <point x="346" y="1074"/>
      <point x="368" y="1067" type="curve"/>
    </contour>
    <contour>
      <point x="343" y="1050" type="move" name="_U"/>
    </contour>
  </outline>
</glyph>
<glyph name="GrSmEta" format="1">
  <advance width="1120"/>
  <unicode hex="03B7"/>
  <outline>
    <contour>
      <point x="1025" y="762" type="curve"/>
      <point x="1025" y="891"/>
      <point x="960" y="936"/>
      <point x="864" y="936" type="curve" smooth="yes"/>
      <point x="797" y="936"/>
      <point x="621" y="894"/>
      <point x="454" y="719" type="curve"/>
      <point x="458" y="752"/>
      <point x="458" y="795"/>
      <point x="458" y="823" type="curve" smooth="yes"/>
      <point x="458" y="918"/>
      <point x="447" y="936"/>
      <point x="410" y="936" type="curve" smooth="yes"/>
      <point x="377" y="936"/>
      <point x="140" y="852"/>
      <point x="27" y="803" type="curve"/>
      <point x="44" y="723" type="line"/>
      <point x="44" y="723"/>
      <point x="122" y="749"/>
      <point x="145" y="749" type="curve" smooth="yes"/>
      <point x="169" y="749"/>
      <point x="182" y="743"/>
      <point x="182" y="682" type="curve" smooth="yes"/>
      <point x="182" y="588"/>
      <point x="131" y="266"/>
      <point x="76" y="0" type="curve"/>
      <point x="119" y="-41" type="line"/>
      <point x="152" y="-23"/>
      <point x="337" y="56"/>
      <point x="372" y="75" type="curve"/>
      <point x="370" y="154"/>
      <point x="376" y="182"/>
      <point x="395" y="301" type="curve" smooth="yes"/>
      <point x="411" y="406"/>
      <point x="436" y="497"/>
      <point x="472" y="555" type="curve" smooth="yes"/>
      <point x="553" y="685"/>
      <point x="636" y="716"/>
      <point x="663" y="716" type="curve" smooth="yes"/>
      <point x="719" y="716"/>
      <point x="727" y="671"/>
      <point x="727" y="620" type="curve" smooth="yes"/>
      <point x="727" y="457"/>
      <point x="608" y="-248"/>
      <point x="587" y="-401" type="curve"/>
      <point x="633" y="-443" type="line"/>
      <point x="671" y="-425"/>
      <point x="871" y="-362"/>
      <point x="910" y="-350" type="curve"/>
      <point x="895" y="-313"/>
      <point x="879" y="-238"/>
      <point x="922" y="39" type="curve" smooth="yes"/>
      <point x="965" y="307"/>
      <point x="1025" y="682"/>
    </contour>
    <contour>
      <point x="221" y="-100" type="move" name="L"/>
    </contour>
    <contour>
      <point x="658" y="1050" type="move" name="U"/>
    </contour>
  </outline>
</glyph>
<glyph name="GrSmIota" format="1">
  <advance width="616"/>
  <unicode hex="03B9"/>
  <outline>
    <contour>
      <point x="586" y="229" type="curve"/>
      <point x="529" y="282" type="line"/>
      <point x="463" y="172"/>
      <point x="433" y="136"/>
      <point x="410" y="146" type="curve" smooth="yes"/>
      <point x="388" y="156"/>
      <point x="373" y="165"/>
      <point x="405" y="349" type="curve" smooth="yes"/>
      <point x="501" y="936" type="line"/>
      <point x="440" y="936" type="line"/>
      <point x="352" y="897"/>
      <point x="162" y="870"/>
      <point x="78" y="856" type="curve"/>
      <point x="65" y="777" type="line"/>
      <point x="212" y="777"/>
      <point x="202" y="765"/>
      <point x="176" y="609" type="curve"/>
      <point x="108" y="220" type="line" smooth="yes"/>
      <point x="75" y="33"/>
      <point x="181" y="-41"/>
      <point x="277" y="-41" type="curve" smooth="yes"/>
      <point x="417" y="-41"/>
      <point x="497" y="40"/>
    </contour>
    <contour>
      <point x="373" y="1050" type="move" name="U"/>
    </contour>
  </outline>
</glyph>
<glyph name="GrSmSigma" format="1">
  <advance width="1067"/>
  <unicode hex="03C3"/>
  <outline>
    <contour>
      <point x="1152" y="916" type="curve"/>
      <point x="1112" y="955" type="line"/>
      <point x="1077" y="924"/>
      <point x="1050" y="899"/>
      <point x="974" y="899" type="curve" smooth="yes"/>
      <point x="870" y="899"/>
      <point x="720" y="936"/>
      <point x="612" y="936" type="curve" smooth="yes"/>
      <point x="322" y="936"/>
      <point x="38" y="656"/>
      <point x="38" y="344" type="curve" smooth="yes"/>
      <point x="38" y="125"/>
      <point x="155" y="-41"/>
      <point x="401" y="-41" type="curve" smooth="yes"/>
      <point x="683" y="-41"/>
      <point x="843" y="187"/>
      <point x="878" y="330" type="curve"/>
      <point x="916" y="450"/>
      <point x="867" y="600"/>
      <point x="764" y="710" type="curve"/>
      <point x="826" y="692"/>
      <point x="900" y="688"/>
      <point x="935" y="688" type="curve" smooth="yes"/>
      <point x="1015" y="688"/>
      <point x="1086" y="830"/>
    </contour>
    <contour>
      <point x="615" y="281" type="curve"/>
      <point x="585" y="171"/>
      <point x="546" y="92"/>
      <point x="469" y="92" type="curve" smooth="yes"/>
      <point x="386" y="92"/>
      <point x="302" y="221"/>
      <point x="302" y="399" type="curve" smooth="yes"/>
      <point x="302" y="600"/>
      <point x="336" y="743"/>
      <point x="478" y="743" type="curve" smooth="yes"/>
      <point x="503" y="743"/>
      <point x="577" y="734"/>
      <point x="612" y="727" type="curve"/>
      <point x="641" y="680"/>
      <point x="666" y="487"/>
    </contour>
    <contour>
      <point x="399" y="-100" type="move" name="L"/>
    </contour>
    <contour>
      <point x="550" y="1000" type="move" name="U"/>
    </contour>
  </outline>
</glyph>
<glyph name="GrSmPsi" format="1">
  <advance width="1361"/>
  <unicode hex="03C8"/>
  <outline>
    <contour>
      <point x="959" y="1274" type="curve"/>
      <point x="957" y="1282"/>
      <point x="936" y="1309"/>
      <point x="928" y="1317" type="curve"/>
      <point x="889" y="1300"/>
      <point x="750" y="1270"/>
      <point x="699" y="1235" type="curve"/>
      <point x="700" y="766"/>
      <point x="577" y="-21"/>
      <point x="451" y="-430" type="curve"/>
      <point x="461" y="-443"/>
      <point x="473" y="-459"/>
      <point x="488" y="-467" type="curve"/>
      <point x="524" y="-449"/>
      <point x="679" y="-403"/>
      <point x="714" y="-376" type="curve"/>
      <point x="704" y="-34"/>
      <point x="822" y="828"/>
    </contour>
    <contour>
      <point x="1289" y="889" type="curve" smooth="yes"/>
      <point x="1273" y="895"/>
      <point x="1241" y="931"/>
      <point x="1225" y="939" type="curve"/>
      <point x="1160" y="922"/>
      <point x="1026" y="844"/>
      <point x="981" y="812" type="curve"/>
      <point x="1032" y="767"/>
      <point x="1064" y="698"/>
      <point x="1064" y="612" type="curve" smooth="yes"/>
      <point x="1064" y="336"/>
      <point x="935" y="89"/>
      <point x="683" y="89" type="curve" smooth="yes"/>
      <point x="486" y="89"/>
      <point x="396" y="195"/>
      <point x="400" y="364" type="curve" smooth="yes"/>
      <point x="404" y="510"/>
      <point x="446" y="631"/>
      <point x="446" y="792" type="curve" smooth="yes"/>
      <point x="446" y="880"/>
      <point x="417" y="936"/>
      <point x="353" y="936" type="curve" smooth="yes"/>
      <point x="261" y="936"/>
      <point x="112" y="860"/>
      <point x="0" y="809" type="curve"/>
      <point x="27" y="731" type="line"/>
      <point x="27" y="731"/>
      <point x="95" y="763"/>
      <point x="137" y="763" type="curve" smooth="yes"/>
      <point x="162" y="763"/>
      <point x="174" y="726"/>
      <point x="174" y="665" type="curve" smooth="yes"/>
      <point x="174" y="570"/>
      <point x="144" y="463"/>
      <point x="137" y="328" type="curve" smooth="yes"/>
      <point x="127" y="140"/>
      <point x="269" y="-60"/>
      <point x="630" y="-59" type="curve" smooth="yes"/>
      <point x="1034" y="-58"/>
      <point x="1313" y="425"/>
      <point x="1305" y="743" type="curve" smooth="yes"/>
      <point x="1304" y="793"/>
      <point x="1301" y="842"/>
    </contour>
  </outline>
</glyph>
<glyph name="GrThetaSym" format="1">
  <advance width="1152"/>
  <unicode hex="03D1"/>
  <outline>
    <contour>
      <point x="1091" y="940" type="curve" smooth="yes"/>
      <point x="1091" y="1350"/>
      <point x="948" y="1480"/>
      <point x="740" y="1480" type="curve" smooth="yes"/>
      <point x="490" y="1480"/>
      <point x="289" y="1280"/>
      <point x="289" y="1041" type="curve" smooth="yes"/>
      <point x="289" y="922"/>
      <point x="361" y="718"/>
      <point x="662" y="718" type="curve" smooth="yes"/>
      <point x="864" y="718"/>
      <point x="1045" y="793"/>
      <point x="1220" y="920" type="curve"/>
      <point x="1216" y="941"/>
      <point x="1191" y="985"/>
      <point x="1182" y="996" type="curve"/>
      <point x="1047" y="909"/>
      <point x="922" y="862"/>
      <point x="726" y="862" type="curve" smooth="yes"/>
      <point x="641" y="862"/>
      <point x="551" y="945"/>
      <point x="551" y="1106" type="curve" smooth="yes"/>
      <point x="551" y="1241"/>
      <point x="597" y="1384"/>
      <point x="696" y="1384" type="curve" smooth="yes"/>
      <point x="768" y="1384"/>
      <point x="829" y="1234"/>
      <point x="829" y="984" type="curve" smooth="yes"/>
      <point x="829" y="628"/>
      <point x="759" y="100"/>
      <point x="562" y="100" type="curve" smooth="yes"/>
      <point x="512" y="100"/>
      <point x="424" y="147"/>
      <point x="424" y="350" type="curve" smooth="yes"/>
      <point x="424" y="412"/>
      <point x="449" y="566"/>
      <point x="449" y="624" type="curve" smooth="yes"/>
      <point x="449" y="669"/>
      <point x="444" y="710"/>
      <point x="383" y="710" type="curve" smooth="yes"/>
      <point x="301" y="710"/>
      <point x="181" y="670"/>
      <point x="80" y="636" type="curve"/>
      <point x="82" y="551" type="line"/>
      <point x="82" y="551"/>
      <point x="115" y="558"/>
      <point x="138" y="558" type="curve" smooth="yes"/>
      <point x="174" y="558"/>
      <point x="183" y="540"/>
      <point x="183" y="494" type="curve" smooth="yes"/>
      <point x="183" y="444"/>
      <point x="166" y="375"/>
      <point x="166" y="313" type="curve" smooth="yes"/>
      <point x="166" y="78"/>
      <point x="303" y="-41"/>
      <point x="511" y="-41" type="curve" smooth="yes"/>
      <point x="899" y="-41"/>
      <point x="1091" y="519"/>
    </contour>
  </outline>
</glyph>
<glyph name="CyCapUkrainIe" format="1">
  <advance width="1000"/>
  <unicode hex="0404"/>
  <outline>
    <contour>
      <point x="107" y="618" type="curve" smooth="yes"/>
      <point x="50" y="198"/>
      <point x="236" y="-35"/>
      <point x="501" y="-30" type="curve" smooth="yes"/>
      <point x="646" y="-27"/>
      <point x="753" y="15"/>
      <point x="847" y="79" type="curve"/>
      <point x="859" y="96"/>
      <point x="907" y="276"/>
      <point x="912" y="319" type="curve"/>
      <point x="907" y="322"/>
      <point x="885" y="332"/>
      <point x="876" y="337" type="curve"/>
      <point x="778" y="154"/>
      <point x="670" y="94"/>
      <point x="549" y="94" type="curve" smooth="yes"/>
      <point x="376" y="94"/>
      <point x="204" y="235"/>
      <point x="261" y="651" type="curve" smooth="yes"/>
      <point x="309" y="1005"/>
      <point x="459" y="1181"/>
      <point x="665" y="1181" type="curve" smooth="yes"/>
      <point x="781" y="1181"/>
      <point x="890" y="1131"/>
      <point x="926" y="961" type="curve"/>
      <point x="964" y="953" type="line"/>
      <point x="977" y="959"/>
      <point x="1028" y="1202"/>
      <point x="1021" y="1206" type="curve" smooth="yes"/>
      <point x="921" y="1263"/>
      <point x="828" y="1290"/>
      <point x="716" y="1290" type="curve" smooth="yes"/>
      <point x="409" y="1290"/>
      <point x="160" y="1005"/>
    </contour>
    <contour>
      <point x="180" y="658" type="line"/>
      <point x="205" y="615" type="line"/>
      <point x="548" y="615" type="line" smooth="yes"/>
      <point x="630" y="615"/>
      <point x="701" y="601"/>
      <point x="773" y="585" type="curve"/>
      <point x="786" y="606"/>
      <point x="844" y="705"/>
      <point x="850" y="725" type="curve"/>
      <point x="831" y="750" type="line"/>
      <point x="763" y="725"/>
      <point x="639" y="705"/>
      <point x="530" y="705" type="curve" smooth="yes"/>
      <point x="206" y="705" type="line"/>
    </contour>
    <contour>
      <point x="469" y="-100" type="move" name="L"/>
    </contour>
    <contour>
      <point x="681" y="1320" type="move" name="U"/>
    </contour>
  </outline>
</glyph>
<glyph name="CyCapByelorusUkrainI" format="1">
  <advance width="652"/>
  <unicode hex="0406"/>
  <outline>
    <component base="LtnCapI"/>
    <contour>
      <point x="269" y="0" type="move" name="H"/>
    </contour>
    <contour>
      <point x="250" y="-100" type="move" name="L"/>
    </contour>
    <contour>
      <point x="324" y="0" type="move" name="O"/>
    </contour>
    <contour>
      <point x="648" y="1072" type="move" name="R"/>
    </contour>
    <contour>
      <point x="435" y="1320" type="move" name="U"/>
    </contour>
  </outline>
</glyph>
<glyph name="CyCapIGrave" format="1">
  <advance width="1224"/>
  <unicode hex="040D"/>
  <outline>
    <component base="CyCapI"/>
    <component base="CombGrave.LP" xOffset="1056" yOffset="320"/>
    <contour>
      <point x="550" y="-100" type="move" name="L"/>
    </contour>
    <contour>
      <point x="791" y="1640" type="move" name="U"/>
    </contour>
  </outline>
</glyph>
<glyph name="CyCapZe" format="1">
  <advance width="926"/>
  <unicode hex="0417"/>
  <outline>
    <contour>
      <point x="275" y="610" type="line"/>
      <point x="292" y="583" type="line"/>
      <point x="323" y="605"/>
      <point x="381" y="621"/>
      <point x="453" y="621" type="curve" smooth="yes"/>
      <point x="575" y="621"/>
      <point x="722" y="541"/>
      <point x="696" y="356" type="curve" smooth="yes"/>
      <point x="674" y="193"/>
      <point x="574" y="90"/>
      <point x="404" y="90" type="curve" smooth="yes"/>
      <point x="286" y="90"/>
      <point x="192" y="156"/>
      <point x="158" y="319" type="curve"/>
      <point x="159" y="319"/>
      <point x="122" y="324"/>
      <point x="122" y="324" type="curve"/>
      <point x="88" y="222"/>
      <point x="73" y="77"/>
      <point x="87" y="68" type="curve"/>
      <point x="139" y="24"/>
      <point x="235" y="-30"/>
      <point x="352" y="-30" type="curve" smooth="yes"/>
      <point x="580" y="-30"/>
      <point x="807" y="152"/>
      <point x="842" y="404" type="curve" smooth="yes"/>
      <point x="863" y="557"/>
      <point x="786" y="663"/>
      <point x="676" y="705" type="curve"/>
      <point x="796" y="780"/>
      <point x="853" y="892"/>
      <point x="869" y="1011" type="curve" smooth="yes"/>
      <point x="895" y="1200"/>
      <point x="751" y="1290"/>
      <point x="607" y="1290" type="curve" smooth="yes"/>
      <point x="506" y="1290"/>
      <point x="373" y="1257"/>
      <point x="238" y="1179" type="curve" smooth="yes"/>
      <point x="226" y="1172"/>
      <point x="207" y="980"/>
      <point x="221" y="923" type="curve"/>
      <point x="262" y="931" type="line"/>
      <point x="295" y="1079"/>
      <point x="381" y="1191"/>
      <point x="542" y="1191" type="curve" smooth="yes"/>
      <point x="670" y="1191"/>
      <point x="754" y="1117"/>
      <point x="735" y="982" type="curve" smooth="yes"/>
      <point x="723" y="893"/>
      <point x="640" y="715"/>
      <point x="447" y="712" type="curve" smooth="yes"/>
      <point x="423" y="712"/>
      <point x="355" y="717"/>
      <point x="327" y="736" type="curve"/>
    </contour>
    <contour>
      <point x="405" y="-100" type="move" name="L"/>
    </contour>
    <contour>
      <point x="614" y="1320" type="move" name="U"/>
    </contour>
  </outline>
</glyph>
<glyph name="CyCapEm" format="1">
  <advance width="1413"/>
  <unicode hex="041C"/>
  <outline>
    <contour>
      <point x="1301" y="0" type="line"/>
      <point x="1306" y="43" type="line"/>
      <point x="1223" y="61"/>
      <point x="1182" y="88"/>
      <point x="1184" y="104" type="curve" smooth="yes"/>
      <point x="1336" y="1214" type="line"/>
      <point x="1191" y="1157" type="line"/>
      <point x="1047" y="104" type="line" smooth="yes"/>
      <point x="1044" y="86"/>
      <point x="982" y="61"/>
      <point x="898" y="43" type="curve"/>
      <point x="893" y="0" type="line"/>
    </contour>
    <contour>
      <point x="1449" y="1217" type="curve"/>
      <point x="1455" y="1260" type="line"/>
      <point x="1198" y="1260" type="line" smooth="yes"/>
      <point x="1175" y="1260"/>
      <point x="1170" y="1255"/>
      <point x="1129" y="1176" type="curve" smooth="yes"/>
      <point x="691" y="262" type="line" smooth="yes"/>
      <point x="668" y="219"/>
      <point x="656" y="168"/>
      <point x="661" y="0" type="curve"/>
      <point x="665" y="0" type="line"/>
      <point x="1164" y="1040" type="line" smooth="yes"/>
      <point x="1217" y="1145"/>
      <point x="1368" y="1217"/>
    </contour>
    <contour>
      <point x="701" y="264" type="curve"/>
      <point x="499" y="1176" type="line" smooth="yes"/>
      <point x="478" y="1247"/>
      <point x="477" y="1260"/>
      <point x="452" y="1260" type="curve" smooth="yes"/>
      <point x="195" y="1260" type="line"/>
      <point x="189" y="1217" type="line"/>
      <point x="255" y="1217"/>
      <point x="360" y="1182"/>
      <point x="390" y="1061" type="curve" smooth="yes"/>
      <point x="621" y="0" type="line"/>
      <point x="661" y="0" type="line"/>
      <point x="714" y="168"/>
      <point x="712" y="223"/>
    </contour>
    <contour>
      <point x="376" y="0" type="line"/>
      <point x="381" y="43" type="line"/>
      <point x="297" y="61"/>
      <point x="257" y="88"/>
      <point x="259" y="104" type="curve" smooth="yes"/>
      <point x="412" y="1221" type="line"/>
      <point x="307" y="1196" type="line"/>
      <point x="158" y="104" type="line" smooth="yes"/>
      <point x="155" y="86"/>
      <point x="104" y="61"/>
      <point x="19" y="43" type="curve"/>
      <point x="14" y="0" type="line"/>
    </contour>
    <contour>
      <point x="657" y="-100" type="move" name="L"/>
    </contour>
    <contour>
      <point x="856" y="1320" type="move" name="U"/>
    </contour>
  </outline>
</glyph>
<glyph name="CyCapPe" format="1">
  <advance width="1170"/>
  <unicode hex="041F"/>
  <outline>
    <contour>
      <point x="410" y="0" type="line"/>
      <point x="415" y="43" type="line"/>
      <point x="331" y="61"/>
      <point x="291" y="88"/>
      <point x="293" y="104" type="curve" smooth="yes"/>
      <point x="439" y="1170" type="line"/>
      <point x="952" y="1170" type="line"/>
      <point x="806" y="104" type="line" smooth="yes"/>
      <point x="803" y="86"/>
      <point x="751" y="61"/>
      <point x="667" y="43" type="curve"/>
      <point x="662" y="0" type="line"/>
      <point x="1067" y="0" type="line"/>
      <point x="1072" y="43" type="line"/>
      <point x="988" y="61"/>
      <point x="948" y="88"/>
      <point x="950" y="104" type="curve" smooth="yes"/>
      <point x="1094" y="1155" type="line" smooth="yes"/>
      <point x="1096" y="1174"/>
      <point x="1149" y="1198"/>
      <point x="1233" y="1217" type="curve"/>
      <point x="1239" y="1260" type="line"/>
      <point x="177" y="1260" type="line"/>
      <point x="171" y="1217" type="line"/>
      <point x="255" y="1198"/>
      <point x="295" y="1171"/>
      <point x="293" y="1155" type="curve" smooth="yes"/>
      <point x="149" y="104" type="line" smooth="yes"/>
      <point x="146" y="86"/>
      <point x="94" y="61"/>
      <point x="10" y="43" type="curve"/>
      <point x="5" y="0" type="line"/>
    </contour>
    <contour>
      <point x="536" y="-100" type="move" name="L"/>
    </contour>
    <contour>
      <point x="715" y="1320" type="move" name="U"/>
    </contour>
  </outline>
</glyph>
<glyph name="CyCapEf" format="1">
  <advance width="1176"/>
  <unicode hex="0424"/>
  <outline>
    <contour>
      <point x="1144" y="665" type="curve" smooth="yes"/>
      <point x="1186" y="980"/>
      <point x="971" y="1089"/>
      <point x="707" y="1089" type="curve" smooth="yes"/>
      <point x="374" y="1089"/>
      <point x="147" y="907"/>
      <point x="111" y="643" type="curve" smooth="yes"/>
      <point x="62" y="291"/>
      <point x="321" y="213"/>
      <point x="575" y="213" type="curve" smooth="yes"/>
      <point x="856" y="213"/>
      <point x="1105" y="369"/>
    </contour>
    <contour>
      <point x="743" y="0" type="line"/>
      <point x="748" y="43" type="line"/>
      <point x="665" y="61"/>
      <point x="619" y="88"/>
      <point x="621" y="104" type="curve" smooth="yes"/>
      <point x="770" y="1195" type="line" smooth="yes"/>
      <point x="773" y="1214"/>
      <point x="831" y="1238"/>
      <point x="915" y="1257" type="curve"/>
      <point x="921" y="1300" type="line"/>
      <point x="515" y="1300" type="line"/>
      <point x="509" y="1257" type="line"/>
      <point x="592" y="1238"/>
      <point x="637" y="1211"/>
      <point x="635" y="1195" type="curve" smooth="yes"/>
      <point x="486" y="104" type="line" smooth="yes"/>
      <point x="483" y="86"/>
      <point x="426" y="61"/>
      <point x="342" y="43" type="curve"/>
      <point x="337" y="0" type="line"/>
    </contour>
    <contour>
      <point x="1003" y="646" type="curve" smooth="yes"/>
      <point x="976" y="446"/>
      <point x="849" y="291"/>
      <point x="605" y="291" type="curve" smooth="yes"/>
      <point x="420" y="291"/>
      <point x="217" y="380"/>
      <point x="255" y="661" type="curve" smooth="yes"/>
      <point x="279" y="836"/>
      <point x="401" y="1015"/>
      <point x="652" y="1015" type="curve" smooth="yes"/>
      <point x="865" y="1015"/>
      <point x="1038" y="898"/>
    </contour>
    <contour>
      <point x="530" y="-100" type="move" name="L"/>
    </contour>
    <contour>
      <point x="725" y="1320" type="move" name="U"/>
    </contour>
  </outline>
</glyph>
<glyph name="CyCapYu" format="1">
  <advance width="1510"/>
  <unicode hex="042E"/>
  <outline>
    <contour>
      <point x="410" y="0" type="line"/>
      <point x="415" y="43" type="line"/>
      <point x="332" y="61"/>
      <point x="291" y="88"/>
      <point x="293" y="104" type="curve" smooth="yes"/>
      <point x="437" y="1155" type="line" smooth="yes"/>
      <point x="439" y="1174"/>
      <point x="493" y="1198"/>
      <point x="576" y="1217" type="curve"/>
      <point x="582" y="1260" type="line"/>
      <point x="177" y="1260" type="line"/>
      <point x="171" y="1217" type="line"/>
      <point x="255" y="1198"/>
      <point x="295" y="1171"/>
      <point x="293" y="1155" type="curve" smooth="yes"/>
      <point x="149" y="104" type="line" smooth="yes"/>
      <point x="146" y="86"/>
      <point x="94" y="61"/>
      <point x="10" y="43" type="curve"/>
      <point x="5" y="0" type="line"/>
    </contour>
    <contour>
      <point x="1477" y="647" type="curve"/>
      <point x="1522" y="973"/>
      <point x="1427" y="1290"/>
      <point x="1139" y="1290" type="curve" smooth="yes"/>
      <point x="865" y="1290"/>
      <point x="626" y="975"/>
      <point x="576" y="612" type="curve" smooth="yes"/>
      <point x="530" y="276"/>
      <point x="626" y="-30"/>
      <point x="905" y="-30" type="curve" smooth="yes"/>
      <point x="1170" y="-30"/>
      <point x="1428" y="285"/>
    </contour>
    <contour>
      <point x="1336" y="629" type="curve"/>
      <point x="1287" y="276"/>
      <point x="1138" y="90"/>
      <point x="949" y="90" type="curve" smooth="yes"/>
      <point x="773" y="90"/>
      <point x="669" y="342"/>
      <point x="710" y="641" type="curve" smooth="yes"/>
      <point x="755" y="967"/>
      <point x="893" y="1176"/>
      <point x="1098" y="1176" type="curve" smooth="yes"/>
      <point x="1293" y="1176"/>
      <point x="1373" y="905"/>
    </contour>
    <contour>
      <point x="671" y="615" type="line"/>
      <point x="683" y="705" type="line"/>
      <point x="332" y="705" type="line"/>
      <point x="320" y="615" type="line"/>
    </contour>
    <contour>
      <point x="825" y="1320" type="move" name="U"/>
    </contour>
    <contour>
      <point x="637" y="-100" type="move" name="L"/>
    </contour>
  </outline>
</glyph>
<glyph name="CySmBe" format="1">
  <advance width="851"/>
  <unicode hex="0431"/>
  <outline>
    <contour>
      <point x="616" y="1156" type="curve" smooth="yes"/>
      <point x="843" y="1169"/>
      <point x="871" y="1336"/>
      <point x="916" y="1505" type="curve"/>
      <point x="908" y="1512"/>
      <point x="890" y="1523"/>
      <point x="879" y="1527" type="curve"/>
      <point x="840" y="1416"/>
      <point x="788" y="1335"/>
      <point x="618" y="1312" type="curve" smooth="yes"/>
      <point x="327" y="1273"/>
      <point x="55" y="887"/>
      <point x="55" y="414" type="curve" smooth="yes"/>
      <point x="55" y="139"/>
      <point x="168" y="-41"/>
      <point x="355" y="-41" type="curve" smooth="yes"/>
      <point x="622" y="-41"/>
      <point x="813" y="295"/>
      <point x="813" y="587" type="curve" smooth="yes"/>
      <point x="813" y="787"/>
      <point x="711" y="928"/>
      <point x="523" y="928" type="curve" smooth="yes"/>
      <point x="446" y="928"/>
      <point x="326" y="873"/>
      <point x="229" y="757" type="curve"/>
      <point x="273" y="1018"/>
      <point x="338" y="1140"/>
    </contour>
    <contour>
      <point x="482" y="818" type="curve"/>
      <point x="589" y="818"/>
      <point x="667" y="682"/>
      <point x="668" y="512" type="curve" smooth="yes"/>
      <point x="668" y="504"/>
      <point x="668" y="495"/>
      <point x="668" y="487" type="curve" smooth="yes"/>
      <point x="667" y="299"/>
      <point x="578" y="67"/>
      <point x="396" y="67" type="curve" smooth="yes"/>
      <point x="297" y="67"/>
      <point x="196" y="215"/>
      <point x="196" y="416" type="curve" smooth="yes"/>
      <point x="196" y="596"/>
      <point x="298" y="820"/>
    </contour>
    <contour>
      <point x="367" y="-100" type="move" name="L"/>
    </contour>
    <contour>
      <point x="637" y="1640" type="move" name="U"/>
    </contour>
  </outline>
</glyph>
<glyph name="CySmVe" format="1">
  <advance width="865"/>
  <unicode hex="0432"/>
  <outline>
    <contour>
      <point x="397" y="72" type="curve" smooth="yes"/>
      <point x="282" y="72"/>
      <point x="170" y="156"/>
      <point x="205" y="464" type="curve" smooth="yes"/>
      <point x="229" y="675"/>
      <point x="310" y="843"/>
      <point x="507" y="843" type="curve" smooth="yes"/>
      <point x="574" y="843"/>
      <point x="629" y="796"/>
      <point x="630" y="730" type="curve" smooth="yes"/>
      <point x="631" y="606"/>
      <point x="547" y="496"/>
      <point x="155" y="495" type="curve"/>
      <point x="155" y="396" type="line"/>
      <point x="209" y="422"/>
      <point x="325" y="435"/>
      <point x="403" y="435" type="curve" smooth="yes"/>
      <point x="599" y="435"/>
      <point x="611" y="323"/>
      <point x="611" y="251" type="curve" smooth="yes"/>
      <point x="611" y="135"/>
      <point x="517" y="72"/>
    </contour>
    <contour>
      <point x="569" y="936" type="curve" smooth="yes"/>
      <point x="465" y="936"/>
      <point x="388" y="918"/>
      <point x="299" y="858" type="curve" smooth="yes"/>
      <point x="169" y="770"/>
      <point x="78" y="615"/>
      <point x="56" y="397" type="curve" smooth="yes"/>
      <point x="18" y="18"/>
      <point x="211" y="-41"/>
      <point x="347" y="-41" type="curve" smooth="yes"/>
      <point x="507" y="-41"/>
      <point x="767" y="147"/>
      <point x="767" y="327" type="curve" smooth="yes"/>
      <point x="767" y="415"/>
      <point x="722" y="478"/>
      <point x="580" y="501" type="curve"/>
      <point x="708" y="561"/>
      <point x="785" y="681"/>
      <point x="785" y="776" type="curve" smooth="yes"/>
      <point x="782" y="899"/>
      <point x="654" y="936"/>
    </contour>
    <contour>
      <point x="337" y="-100" type="move" name="L"/>
    </contour>
    <contour>
      <point x="490" y="1000" type="move" name="U"/>
    </contour>
  </outline>
</glyph>
<glyph name="CySmU" format="1">
  <advance width="926"/>
  <unicode hex="0443"/>
  <outline>
    <contour>
      <point x="512" y="47" type="line"/>
      <point x="465" y="315"/>
      <point x="377" y="641"/>
      <point x="317" y="809" type="curve" smooth="yes"/>
      <point x="285" y="901"/>
      <point x="268" y="936"/>
      <point x="231" y="936" type="curve" smooth="yes"/>
      <point x="199" y="936"/>
      <point x="106" y="891"/>
      <point x="-6" y="840" type="curve"/>
      <point x="6" y="803" type="line"/>
      <point x="6" y="803"/>
      <point x="80" y="827"/>
      <point x="104" y="827" type="curve" smooth="yes"/>
      <point x="127" y="827"/>
      <point x="145" y="813"/>
      <point x="176" y="745" type="curve" smooth="yes"/>
      <point x="236" y="618"/>
      <point x="340" y="174"/>
      <point x="379" y="-57" type="curve"/>
      <point x="412" y="-86" type="line"/>
    </contour>
    <contour>
      <point x="893" y="860" type="curve"/>
      <point x="893" y="926"/>
      <point x="856" y="936"/>
      <point x="811" y="936" type="curve" smooth="yes"/>
      <point x="766" y="936"/>
      <point x="692" y="913"/>
      <point x="596" y="858" type="curve"/>
      <point x="614" y="821" type="line"/>
      <point x="653" y="838"/>
      <point x="682" y="846"/>
      <point x="705" y="844" type="curve" smooth="yes"/>
      <point x="739" y="842"/>
      <point x="758" y="823"/>
      <point x="758" y="791" type="curve" smooth="yes"/>
      <point x="758" y="711"/>
      <point x="580" y="336"/>
      <point x="442" y="74" type="curve" smooth="yes"/>
      <point x="303" y="-188"/>
      <point x="185" y="-344"/>
      <point x="56" y="-344" type="curve" smooth="yes"/>
      <point x="7" y="-344"/>
      <point x="-23" y="-344"/>
      <point x="-87" y="-301" type="curve"/>
      <point x="-124" y="-320"/>
      <point x="-181" y="-418"/>
      <point x="-181" y="-449" type="curve" smooth="yes"/>
      <point x="-181" y="-471"/>
      <point x="-116" y="-500"/>
      <point x="-36" y="-500" type="curve" smooth="yes"/>
      <point x="192" y="-500"/>
      <point x="363" y="-266"/>
      <point x="541" y="82" type="curve" smooth="yes"/>
      <point x="801" y="594"/>
      <point x="893" y="770"/>
    </contour>
    <contour>
      <point x="620" y="-100" type="move" name="L"/>
    </contour>
    <contour>
      <point x="565" y="1000" type="move" name="U"/>
    </contour>
  </outline>
</glyph>
<glyph name="CySmTse" format="1">
  <advance width="1002"/>
  <unicode hex="0446"/>
  <outline>
    <contour>
      <point x="652" y="194" type="curve" smooth="yes"/>
      <point x="652" y="153"/>
      <point x="658" y="-41"/>
      <point x="742" y="-41" type="curve" smooth="yes"/>
      <point x="763" y="-41"/>
      <point x="823" y="-10"/>
      <point x="876" y="24" type="curve"/>
      <point x="888" y="31"/>
      <point x="885" y="12"/>
      <point x="899" y="20" type="curve" smooth="yes"/>
      <point x="921" y="33"/>
      <point x="947" y="49"/>
      <point x="974" y="68" type="curve"/>
      <point x="960" y="104" type="line"/>
      <point x="905" y="84"/>
      <point x="867" y="76"/>
      <point x="845" y="76" type="curve" smooth="yes"/>
      <point x="823" y="76"/>
      <point x="794" y="121"/>
      <point x="794" y="243" type="curve" smooth="yes"/>
      <point x="794" y="348"/>
      <point x="840" y="623"/>
      <point x="897" y="905" type="curve"/>
      <point x="864" y="936" type="line"/>
      <point x="831" y="918"/>
      <point x="761" y="887"/>
      <point x="721" y="870" type="curve"/>
      <point x="728" y="806"/>
      <point x="717" y="718"/>
      <point x="697" y="570" type="curve" smooth="yes"/>
      <point x="660" y="293"/>
      <point x="439" y="80"/>
      <point x="352" y="80" type="curve" smooth="yes"/>
      <point x="303" y="80"/>
      <point x="274" y="135"/>
      <point x="274" y="262" type="curve" smooth="yes"/>
      <point x="274" y="379"/>
      <point x="354" y="735"/>
      <point x="354" y="852" type="curve" smooth="yes"/>
      <point x="354" y="913"/>
      <point x="344" y="936"/>
      <point x="305" y="936" type="curve" smooth="yes"/>
      <point x="272" y="936"/>
      <point x="152" y="891"/>
      <point x="39" y="840" type="curve"/>
      <point x="51" y="803" type="line"/>
      <point x="51" y="803"/>
      <point x="131" y="827"/>
      <point x="154" y="827" type="curve" smooth="yes"/>
      <point x="178" y="827"/>
      <point x="195" y="821"/>
      <point x="195" y="760" type="curve" smooth="yes"/>
      <point x="195" y="662"/>
      <point x="121" y="324"/>
      <point x="121" y="205" type="curve" smooth="yes"/>
      <point x="121" y="43"/>
      <point x="210" y="-41"/>
      <point x="268" y="-41" type="curve" smooth="yes"/>
      <point x="390" y="-41"/>
      <point x="530" y="86"/>
      <point x="655" y="256" type="curve"/>
      <point x="652" y="223"/>
      <point x="652" y="232"/>
    </contour>
    <contour>
      <point x="939" y="78" type="curve"/>
      <point x="677" y="-143"/>
      <point x="638" y="-182"/>
      <point x="662" y="-267" type="curve" smooth="yes"/>
      <point x="697" y="-392"/>
      <point x="686" y="-401"/>
      <point x="554" y="-464" type="curve"/>
      <point x="558" y="-474"/>
      <point x="567" y="-489"/>
      <point x="575" y="-500" type="curve"/>
      <point x="825" y="-391"/>
      <point x="850" y="-361"/>
      <point x="815" y="-207" type="curve" smooth="yes"/>
      <point x="800" y="-140"/>
      <point x="819" y="-81"/>
      <point x="971" y="66" type="curve"/>
      <point x="962" y="73"/>
      <point x="946" y="76"/>
    </contour>
    <contour>
      <point x="430" y="-100" type="move" name="L"/>
    </contour>
    <contour>
      <point x="581" y="1000" type="move" name="U"/>
    </contour>
  </outline>
</glyph>
<glyph name="CySmSoftSgn" format="1">
  <advance width="818"/>
  <unicode hex="044C"/>
  <outline>
    <contour>
      <point x="190" y="762" type="curve" smooth="yes"/>
      <point x="190" y="723"/>
      <point x="172" y="607"/>
      <point x="152" y="492" type="curve" smooth="yes"/>
      <point x="129" y="357"/>
      <point x="112" y="238"/>
      <point x="112" y="160" type="curve" smooth="yes"/>
      <point x="112" y="76"/>
      <point x="173" y="-41"/>
      <point x="356" y="-41" type="curve" smooth="yes"/>
      <point x="522" y="-41"/>
      <point x="748" y="170"/>
      <point x="748" y="307" type="curve" smooth="yes"/>
      <point x="748" y="419"/>
      <point x="681" y="541"/>
      <point x="473" y="541" type="curve" smooth="yes"/>
      <point x="424" y="541"/>
      <point x="330" y="527"/>
      <point x="253" y="509" type="curve"/>
      <point x="234" y="431" type="line"/>
      <point x="274" y="445"/>
      <point x="341" y="460"/>
      <point x="394" y="460" type="curve" smooth="yes"/>
      <point x="564" y="461"/>
      <point x="594" y="350"/>
      <point x="593" y="256" type="curve" smooth="yes"/>
      <point x="592" y="159"/>
      <point x="534" y="64"/>
      <point x="394" y="64" type="curve" smooth="yes"/>
      <point x="303" y="64"/>
      <point x="253" y="106"/>
      <point x="253" y="217" type="curve" smooth="yes"/>
      <point x="253" y="251"/>
      <point x="260" y="311"/>
      <point x="283" y="453" type="curve" smooth="yes"/>
      <point x="315" y="652"/>
      <point x="343" y="780"/>
      <point x="343" y="850" type="curve" smooth="yes"/>
      <point x="343" y="912"/>
      <point x="337" y="936"/>
      <point x="300" y="936" type="curve" smooth="yes"/>
      <point x="267" y="936"/>
      <point x="145" y="891"/>
      <point x="32" y="842" type="curve"/>
      <point x="46" y="803" type="line"/>
      <point x="46" y="803"/>
      <point x="130" y="829"/>
      <point x="153" y="829" type="curve" smooth="yes"/>
      <point x="177" y="829"/>
      <point x="190" y="823"/>
    </contour>
    <contour>
      <point x="368" y="-100" type="move" name="L"/>
    </contour>
    <contour>
      <point x="519" y="1000" type="move" name="U"/>
    </contour>
  </outline>
</glyph>
<glyph name="CySmDje" format="1">
  <advance width="1021"/>
  <unicode hex="0452"/>
  <outline>
    <contour>
      <point x="766" y="1150" type="line"/>
      <point x="750" y="1172" type="line"/>
      <point x="79" y="1172" type="line"/>
      <point x="68" y="1154"/>
      <point x="56" y="1127"/>
      <point x="50" y="1107" type="curve"/>
      <point x="66" y="1082" type="line"/>
      <point x="735" y="1082" type="line"/>
    </contour>
    <contour>
      <point x="367" y="-450" type="line"/>
      <point x="877" y="-64"/>
      <point x="907" y="465"/>
      <point x="907" y="640" type="curve" smooth="yes"/>
      <point x="907" y="832"/>
      <point x="852" y="936"/>
      <point x="742" y="936" type="curve" smooth="yes"/>
      <point x="639" y="936"/>
      <point x="494" y="870"/>
      <point x="338" y="678" type="curve"/>
      <point x="362" y="823"/>
      <point x="442" y="1343"/>
      <point x="442" y="1438" type="curve" smooth="yes"/>
      <point x="442" y="1499"/>
      <point x="420" y="1520"/>
      <point x="383" y="1520" type="curve" smooth="yes"/>
      <point x="348" y="1520"/>
      <point x="225" y="1475"/>
      <point x="113" y="1425" type="curve"/>
      <point x="125" y="1386" type="line"/>
      <point x="125" y="1386"/>
      <point x="215" y="1413"/>
      <point x="240" y="1413" type="curve" smooth="yes"/>
      <point x="262" y="1413"/>
      <point x="281" y="1407"/>
      <point x="281" y="1346" type="curve" smooth="yes"/>
      <point x="281" y="1176"/>
      <point x="135" y="276"/>
      <point x="86" y="-10" type="curve"/>
      <point x="119" y="-41" type="line"/>
      <point x="152" y="-23"/>
      <point x="227" y="6"/>
      <point x="262" y="25" type="curve"/>
      <point x="258" y="82"/>
      <point x="262" y="154"/>
      <point x="285" y="301" type="curve" smooth="yes"/>
      <point x="303" y="420"/>
      <point x="326" y="518"/>
      <point x="362" y="582" type="curve" smooth="yes"/>
      <point x="463" y="752"/>
      <point x="601" y="814"/>
      <point x="655" y="814" type="curve" smooth="yes"/>
      <point x="713" y="814"/>
      <point x="750" y="746"/>
      <point x="750" y="589" type="curve" smooth="yes"/>
      <point x="750" y="344"/>
      <point x="703" y="-39"/>
      <point x="336" y="-411" type="curve"/>
    </contour>
    <contour>
      <point x="328" y="-600" type="move" name="L"/>
    </contour>
    <contour>
      <point x="657" y="1580" type="move" name="U"/>
    </contour>
  </outline>
</glyph>
<glyph name="CySmGje" format="1">
  <advance width="743"/>
  <unicode hex="0453"/>
  <outline>
    <component base="CySmGhe"/>
    <component base="CombAcute" xOffset="834"/>
    <contour>
      <point x="297" y="-100" type="move" name="L"/>
    </contour>
    <contour>
      <point x="499" y="1370" type="move" name="U"/>
    </contour>
  </outline>
</glyph>
<glyph name="CySmYi" format="1">
  <advance width="504"/>
  <unicode hex="0457"/>
  <outline>
    <contour>
      <point x="455" y="72" type="curve"/>
      <point x="440" y="109" type="line"/>
      <point x="385" y="86"/>
      <point x="352" y="76"/>
      <point x="311" y="76" type="curve" smooth="yes"/>
      <point x="289" y="76"/>
      <point x="281" y="94"/>
      <point x="281" y="135" type="curve" smooth="yes"/>
      <point x="281" y="252"/>
      <point x="385" y="735"/>
      <point x="385" y="852" type="curve" smooth="yes"/>
      <point x="385" y="913"/>
      <point x="371" y="936"/>
      <point x="334" y="936" type="curve" smooth="yes"/>
      <point x="299" y="936"/>
      <point x="182" y="891"/>
      <point x="70" y="840" type="curve"/>
      <point x="84" y="803" type="line"/>
      <point x="84" y="803"/>
      <point x="162" y="827"/>
      <point x="184" y="827" type="curve" smooth="yes"/>
      <point x="209" y="827"/>
      <point x="225" y="821"/>
      <point x="225" y="760" type="curve" smooth="yes"/>
      <point x="225" y="662"/>
      <point x="125" y="195"/>
      <point x="125" y="76" type="curve" smooth="yes"/>
      <point x="125" y="4"/>
      <point x="154" y="-41"/>
      <point x="199" y="-41" type="curve" smooth="yes"/>
      <point x="258" y="-41"/>
      <point x="330" y="-2"/>
    </contour>
    <contour>
      <point x="640" y="1262" type="curve"/>
      <point x="640" y="1307"/>
      <point x="613" y="1333"/>
      <point x="572" y="1333" type="curve" smooth="yes"/>
      <point x="496" y="1333"/>
      <point x="447" y="1247"/>
      <point x="447" y="1176" type="curve" smooth="yes"/>
      <point x="447" y="1131"/>
      <point x="472" y="1106"/>
      <point x="513" y="1106" type="curve" smooth="yes"/>
      <point x="590" y="1106"/>
      <point x="640" y="1188"/>
    </contour>
    <contour>
      <point x="327" y="1262" type="curve"/>
      <point x="327" y="1307"/>
      <point x="302" y="1333"/>
      <point x="261" y="1333" type="curve" smooth="yes"/>
      <point x="186" y="1333"/>
      <point x="134" y="1247"/>
      <point x="134" y="1176" type="curve" smooth="yes"/>
      <point x="134" y="1131"/>
      <point x="159" y="1106"/>
      <point x="202" y="1106" type="curve" smooth="yes"/>
      <point x="278" y="1106"/>
      <point x="327" y="1188"/>
    </contour>
    <contour>
      <point x="273" y="0" type="move" name="O"/>
    </contour>
    <contour>
      <point x="219" y="0" type="move" name="H"/>
    </contour>
    <contour>
      <point x="508" y="870" type="move" name="R"/>
    </contour>
    <contour>
      <point x="406" y="1353" type="move" name="U"/>
    </contour>
    <contour>
      <point x="206" y="-100" type="move" name="L"/>
    </contour>
  </outline>
</glyph>
<glyph name="CySmJe" format="1">
  <advance width="585"/>
  <unicode hex="0458"/>
  <outline>
    <component base="LtnSmJ"/>
    <contour>
      <point x="151" y="-600" type="move" name="L"/>
    </contour>
    <contour>
      <point x="370" y="1000" type="move" name="U"/>
    </contour>
  </outline>
</glyph>
<glyph name="CySmLje" format="1">
  <advance width="1362"/>
  <unicode hex="0459"/>
  <outline>
    <contour>
      <point x="938" y="64" type="curve" smooth="yes"/>
      <point x="847" y="64"/>
      <point x="801" y="106"/>
      <point x="801" y="217" type="curve" smooth="yes"/>
      <point x="801" y="293"/>
      <point x="849" y="623"/>
      <point x="906" y="905" type="curve"/>
      <point x="873" y="936" type="line"/>
      <point x="840" y="918"/>
      <point x="765" y="889"/>
      <point x="730" y="870" type="curve"/>
      <point x="737" y="806"/>
      <point x="716" y="630"/>
      <point x="696" y="492" type="curve" smooth="yes"/>
      <point x="676" y="357"/>
      <point x="660" y="238"/>
      <point x="660" y="160" type="curve" smooth="yes"/>
      <point x="660" y="76"/>
      <point x="717" y="-41"/>
      <point x="900" y="-41" type="curve" smooth="yes"/>
      <point x="1066" y="-41"/>
      <point x="1292" y="170"/>
      <point x="1292" y="307" type="curve" smooth="yes"/>
      <point x="1292" y="419"/>
      <point x="1225" y="541"/>
      <point x="1017" y="541" type="curve" smooth="yes"/>
      <point x="968" y="541"/>
      <point x="874" y="527"/>
      <point x="797" y="509" type="curve"/>
      <point x="778" y="431" type="line"/>
      <point x="818" y="445"/>
      <point x="885" y="460"/>
      <point x="938" y="460" type="curve" smooth="yes"/>
      <point x="1108" y="461"/>
      <point x="1138" y="350"/>
      <point x="1137" y="256" type="curve" smooth="yes"/>
      <point x="1136" y="159"/>
      <point x="1078" y="64"/>
    </contour>
    <contour>
      <point x="61" y="279" type="line"/>
      <point x="34" y="202"/>
      <point x="-1" y="12"/>
      <point x="15" y="0" type="curve" smooth="yes"/>
      <point x="37" y="-16"/>
      <point x="78" y="-41"/>
      <point x="131" y="-41" type="curve" smooth="yes"/>
      <point x="241" y="-41"/>
      <point x="299" y="50"/>
      <point x="401" y="350" type="curve" smooth="yes"/>
      <point x="542" y="763"/>
      <point x="544" y="799"/>
      <point x="654" y="800" type="curve" smooth="yes"/>
      <point x="673" y="800"/>
      <point x="740" y="800"/>
      <point x="740" y="800" type="curve"/>
      <point x="740" y="800"/>
      <point x="882" y="938"/>
      <point x="872" y="936" type="curve"/>
      <point x="832" y="936"/>
      <point x="756" y="936"/>
      <point x="721" y="936" type="curve" smooth="yes"/>
      <point x="511" y="936"/>
      <point x="419" y="713"/>
      <point x="343" y="501" type="curve" smooth="yes"/>
      <point x="218" y="152"/>
      <point x="165" y="121"/>
      <point x="129" y="121" type="curve" smooth="yes"/>
      <point x="103" y="121"/>
      <point x="97" y="173"/>
      <point x="99" y="268" type="curve"/>
    </contour>
    <contour>
      <point x="564" y="-100" type="move" name="L"/>
    </contour>
    <contour>
      <point x="664" y="1000" type="move" name="U"/>
    </contour>
  </outline>
</glyph>
<glyph name="CySmKje" format="1">
  <advance width="982"/>
  <unicode hex="045C"/>
  <outline>
    <component base="CySmKa"/>
    <component base="CombAcute" xOffset="966"/>
    <contour>
      <point x="400" y="-100" type="move" name="L"/>
    </contour>
    <contour>
      <point x="631" y="1370" type="move" name="U"/>
    </contour>
  </outline>
</glyph>
<glyph name="CyCapFita" format="1">
  <advance width="1116"/>
  <unicode hex="0472"/>
  <outline>
    <contour>
      <point x="1085" y="774" type="curve" smooth="yes"/>
      <point x="1085" y="1055"/>
      <point x="967" y="1290"/>
      <point x="705" y="1290" type="curve" smooth="yes"/>
      <point x="516" y="1290"/>
      <point x="369" y="1167"/>
      <point x="258" y="1018" type="curve"/>
      <point x="152" y="872"/>
      <point x="90" y="653"/>
      <point x="90" y="485" type="curve" smooth="yes"/>
      <point x="90" y="205"/>
      <point x="215" y="-31"/>
      <point x="471" y="-31" type="curve" smooth="yes"/>
      <point x="649" y="-31"/>
      <point x="788" y="82"/>
      <point x="901" y="225" type="curve" smooth="yes"/>
      <point x="1022" y="377"/>
      <point x="1085" y="586"/>
    </contour>
    <contour>
      <point x="516" y="100" type="curve" smooth="yes"/>
      <point x="352" y="100"/>
      <point x="242" y="283"/>
      <point x="242" y="532" type="curve" smooth="yes"/>
      <point x="242" y="558"/>
      <point x="243" y="585"/>
      <point x="246" y="614" type="curve"/>
      <point x="925" y="614" type="line"/>
      <point x="891" y="375"/>
      <point x="771" y="100"/>
    </contour>
    <contour>
      <point x="936" y="756" type="curve" smooth="yes"/>
      <point x="936" y="739"/>
      <point x="935" y="722"/>
      <point x="934" y="705" type="curve"/>
      <point x="258" y="705" type="line"/>
      <point x="300" y="928"/>
      <point x="422" y="1165"/>
      <point x="662" y="1165" type="curve" smooth="yes"/>
      <point x="838" y="1165"/>
      <point x="936" y="981"/>
    </contour>
    <contour>
      <point x="507" y="-100" type="move" name="L"/>
    </contour>
    <contour>
      <point x="701" y="1320" type="move" name="U"/>
    </contour>
  </outline>
</glyph>
<glyph name="CyCapSemisoftSgn" format="1">
  <advance width="993"/>
  <unicode hex="048C"/>
  <outline>
    <contour>
      <point x="922" y="356" type="curve" smooth="yes"/>
      <point x="953" y="581"/>
      <point x="827" y="740"/>
      <point x="564" y="740" type="curve" smooth="yes"/>
      <point x="473" y="740"/>
      <point x="384" y="725"/>
      <point x="318" y="705" type="curve"/>
      <point x="316" y="627" type="line"/>
      <point x="375" y="637"/>
      <point x="438" y="650"/>
      <point x="517" y="650" type="curve" smooth="yes"/>
      <point x="726" y="650"/>
      <point x="791" y="469"/>
      <point x="771" y="322" type="curve" smooth="yes"/>
      <point x="750" y="172"/>
      <point x="625" y="70"/>
      <point x="452" y="70" type="curve" smooth="yes"/>
      <point x="398" y="70"/>
      <point x="317" y="76"/>
      <point x="283" y="98" type="curve"/>
      <point x="71" y="0" type="line"/>
      <point x="71" y="0"/>
      <point x="356" y="-14"/>
      <point x="461" y="-14" type="curve" smooth="yes"/>
      <point x="704" y="-14"/>
      <point x="891" y="129"/>
    </contour>
    <contour>
      <point x="438" y="0" type="line"/>
      <point x="443" y="43" type="line"/>
      <point x="303" y="70"/>
      <point x="290" y="86"/>
      <point x="293" y="104" type="curve" smooth="yes"/>
      <point x="476" y="1445" type="line"/>
      <point x="329" y="1420" type="line"/>
      <point x="149" y="104" type="line" smooth="yes"/>
      <point x="146" y="86"/>
      <point x="94" y="61"/>
      <point x="10" y="43" type="curve"/>
      <point x="5" y="0" type="line"/>
    </contour>
    <contour>
      <point x="673" y="1237" type="line"/>
      <point x="653" y="1260" type="line"/>
      <point x="192" y="1260" type="line"/>
      <point x="182" y="1239"/>
      <point x="172" y="1215"/>
      <point x="163" y="1195" type="curve"/>
      <point x="180" y="1170" type="line"/>
      <point x="641" y="1170" type="line"/>
    </contour>
    <contour>
      <point x="433" y="-100" type="move" name="L"/>
    </contour>
    <contour>
      <point x="631" y="1320" type="move" name="U"/>
    </contour>
  </outline>
</glyph>
<glyph name="CySmErTick" format="1">
  <advance width="965"/>
  <unicode hex="048F"/>
  <outline>
    <contour>
      <point x="885" y="627" type="curve"/>
      <point x="885" y="827"/>
      <point x="799" y="936"/>
      <point x="696" y="936" type="curve" smooth="yes"/>
      <point x="612" y="936"/>
      <point x="475" y="903"/>
      <point x="283" y="584" type="curve"/>
      <point x="289" y="455" type="line"/>
      <point x="375" y="664"/>
      <point x="539" y="805"/>
      <point x="610" y="805" type="curve" smooth="yes"/>
      <point x="674" y="805"/>
      <point x="739" y="719"/>
      <point x="739" y="532" type="curve" smooth="yes"/>
      <point x="739" y="451"/>
      <point x="735" y="324"/>
      <point x="686" y="219" type="curve"/>
      <point x="655" y="147"/>
      <point x="598" y="106"/>
      <point x="526" y="106" type="curve" smooth="yes"/>
      <point x="414" y="106"/>
      <point x="295" y="246"/>
      <point x="262" y="324" type="curve"/>
      <point x="215" y="244" type="line"/>
      <point x="289" y="119"/>
      <point x="389" y="-41"/>
      <point x="492" y="-41" type="curve" smooth="yes"/>
      <point x="606" y="-41"/>
      <point x="705" y="82"/>
      <point x="766" y="188" type="curve" smooth="yes"/>
      <point x="850" y="340"/>
      <point x="885" y="494"/>
    </contour>
    <contour>
      <point x="348" y="870" type="curve"/>
      <point x="348" y="922"/>
      <point x="328" y="936"/>
      <point x="301" y="936" type="curve" smooth="yes"/>
      <point x="268" y="936"/>
      <point x="141" y="891"/>
      <point x="29" y="840" type="curve"/>
      <point x="43" y="803" type="line"/>
      <point x="43" y="803"/>
      <point x="119" y="827"/>
      <point x="143" y="827" type="curve" smooth="yes"/>
      <point x="166" y="827"/>
      <point x="190" y="821"/>
      <point x="190" y="760" type="curve" smooth="yes"/>
      <point x="190" y="590"/>
      <point x="14" y="-318"/>
      <point x="-6" y="-471" type="curve"/>
      <point x="26" y="-500" type="line"/>
      <point x="61" y="-484"/>
      <point x="137" y="-457"/>
      <point x="176" y="-447" type="curve"/>
      <point x="162" y="-410"/>
      <point x="170" y="-269"/>
      <point x="215" y="6" type="curve" smooth="yes"/>
      <point x="307" y="559"/>
      <point x="348" y="784"/>
    </contour>
    <contour>
      <point x="516" y="312" type="line"/>
      <point x="707" y="-128" type="line"/>
      <point x="735" y="-132" type="line"/>
      <point x="750" y="-115"/>
      <point x="765" y="-96"/>
      <point x="779" y="-76" type="curve"/>
      <point x="588" y="364" type="line"/>
      <point x="560" y="371" type="line"/>
    </contour>
    <contour>
      <point x="341" y="-600" type="move" name="L"/>
    </contour>
    <contour>
      <point x="563" y="1000" type="move" name="U"/>
    </contour>
  </outline>
</glyph>
<glyph name="CySmGheStrk" format="1">
  <advance width="743"/>
  <unicode hex="0493"/>
  <outline>
    <contour>
      <point x="34" y="125" type="curve" smooth="yes"/>
      <point x="47" y="36"/>
      <point x="135" y="-41"/>
      <point x="262" y="-41" type="curve" smooth="yes"/>
      <point x="360" y="-41"/>
      <point x="532" y="8"/>
      <point x="681" y="165" type="curve"/>
      <point x="675" y="179"/>
      <point x="659" y="206"/>
      <point x="647" y="215" type="curve"/>
      <point x="523" y="107"/>
      <point x="381" y="82"/>
      <point x="323" y="82" type="curve" smooth="yes"/>
      <point x="246" y="82"/>
      <point x="202" y="130"/>
      <point x="194" y="170" type="curve" smooth="yes"/>
      <point x="178" y="254"/>
      <point x="213" y="355"/>
      <point x="420" y="443" type="curve" smooth="yes"/>
      <point x="597" y="518"/>
      <point x="691" y="609"/>
      <point x="692" y="758" type="curve" smooth="yes"/>
      <point x="693" y="879"/>
      <point x="602" y="936"/>
      <point x="495" y="936" type="curve" smooth="yes"/>
      <point x="416" y="936"/>
      <point x="272" y="927"/>
      <point x="108" y="743" type="curve"/>
      <point x="149" y="698" type="line"/>
      <point x="272" y="810"/>
      <point x="356" y="821"/>
      <point x="409" y="821" type="curve" smooth="yes"/>
      <point x="481" y="821"/>
      <point x="534" y="784"/>
      <point x="531" y="704" type="curve" smooth="yes"/>
      <point x="528" y="614"/>
      <point x="466" y="536"/>
      <point x="314" y="478" type="curve" smooth="yes"/>
      <point x="91" y="393"/>
      <point x="14" y="260"/>
    </contour>
    <contour>
      <point x="738" y="515" type="line"/>
      <point x="719" y="540" type="line"/>
      <point x="85" y="540" type="line"/>
      <point x="73" y="519"/>
      <point x="63" y="493"/>
      <point x="54" y="472" type="curve"/>
      <point x="73" y="450" type="line"/>
      <point x="707" y="450" type="line"/>
    </contour>
    <contour>
      <point x="297" y="-100" type="move" name="L"/>
    </contour>
    <contour>
      <point x="448" y="1000" type="move" name="U"/>
    </contour>
  </outline>
</glyph>
<glyph name="CySmZheDesc" format="1">
  <advance width="1576"/>
  <unicode hex="0497"/>
  <outline>
    <contour>
      <point x="1576" y="830" type="curve" smooth="yes"/>
      <point x="1576" y="873"/>
      <point x="1500" y="936"/>
      <point x="1454" y="936" type="curve" smooth="yes"/>
      <point x="1392" y="936"/>
      <point x="1338" y="914"/>
      <point x="1247" y="842" type="curve" smooth="yes"/>
      <point x="1118" y="740"/>
      <point x="1072" y="505"/>
      <point x="1060" y="322" type="curve" smooth="yes"/>
      <point x="1041" y="31"/>
      <point x="1131" y="-41"/>
      <point x="1211" y="-41" type="curve" smooth="yes"/>
      <point x="1274" y="-41"/>
      <point x="1335" y="-32"/>
      <point x="1501" y="180" type="curve"/>
      <point x="1495" y="190"/>
      <point x="1480" y="207"/>
      <point x="1470" y="221" type="curve"/>
      <point x="1353" y="85"/>
      <point x="1328" y="76"/>
      <point x="1289" y="76" type="curve" smooth="yes"/>
      <point x="1205" y="77"/>
      <point x="1179" y="180"/>
      <point x="1193" y="358" type="curve" smooth="yes"/>
      <point x="1220" y="696"/>
      <point x="1272" y="830"/>
      <point x="1371" y="831" type="curve" smooth="yes"/>
      <point x="1450" y="832"/>
      <point x="1446" y="705"/>
      <point x="1474" y="705" type="curve" smooth="yes"/>
      <point x="1501" y="705"/>
      <point x="1576" y="804"/>
    </contour>
    <contour>
      <point x="0" y="65" type="curve" smooth="yes"/>
      <point x="0" y="22"/>
      <point x="76" y="-41"/>
      <point x="122" y="-41" type="curve" smooth="yes"/>
      <point x="184" y="-41"/>
      <point x="238" y="-19"/>
      <point x="329" y="53" type="curve" smooth="yes"/>
      <point x="458" y="155"/>
      <point x="504" y="390"/>
      <point x="516" y="573" type="curve" smooth="yes"/>
      <point x="535" y="864"/>
      <point x="435" y="936"/>
      <point x="365" y="936" type="curve" smooth="yes"/>
      <point x="310" y="936"/>
      <point x="230" y="931"/>
      <point x="65" y="745" type="curve"/>
      <point x="71" y="735"/>
      <point x="86" y="718"/>
      <point x="96" y="704" type="curve"/>
      <point x="206" y="815"/>
      <point x="235" y="821"/>
      <point x="287" y="821" type="curve" smooth="yes"/>
      <point x="371" y="821"/>
      <point x="393" y="715"/>
      <point x="383" y="537" type="curve" smooth="yes"/>
      <point x="367" y="262"/>
      <point x="314" y="66"/>
      <point x="205" y="64" type="curve"/>
      <point x="126" y="59"/>
      <point x="130" y="190"/>
      <point x="102" y="190" type="curve" smooth="yes"/>
      <point x="75" y="190"/>
      <point x="0" y="91"/>
    </contour>
    <contour>
      <point x="893" y="936" type="line"/>
      <point x="860" y="918"/>
      <point x="805" y="889"/>
      <point x="770" y="870" type="curve"/>
      <point x="776" y="787"/>
      <point x="770" y="647"/>
      <point x="751" y="492" type="curve" smooth="yes"/>
      <point x="733" y="342"/>
      <point x="684" y="131"/>
      <point x="651" y="-10" type="curve"/>
      <point x="684" y="-41" type="line"/>
      <point x="717" y="-23"/>
      <point x="772" y="6"/>
      <point x="807" y="25" type="curve"/>
      <point x="800" y="145"/>
      <point x="803" y="213"/>
      <point x="833" y="456" type="curve" smooth="yes"/>
      <point x="850" y="594"/>
      <point x="889" y="745"/>
      <point x="926" y="905" type="curve"/>
    </contour>
    <contour>
      <point x="339" y="61" type="curve"/>
      <point x="507" y="207"/>
      <point x="760" y="561"/>
      <point x="805" y="764" type="curve"/>
      <point x="800" y="797"/>
      <point x="798" y="825"/>
      <point x="773" y="869" type="curve"/>
      <point x="763" y="693"/>
      <point x="468" y="271"/>
      <point x="396" y="200" type="curve"/>
      <point x="376" y="138"/>
      <point x="357" y="134"/>
    </contour>
    <contour>
      <point x="1247" y="841" type="curve"/>
      <point x="1081" y="704"/>
      <point x="821" y="338"/>
      <point x="776" y="135" type="curve"/>
      <point x="781" y="102"/>
      <point x="779" y="74"/>
      <point x="804" y="30" type="curve"/>
      <point x="814" y="206"/>
      <point x="1113" y="628"/>
      <point x="1185" y="699" type="curve"/>
      <point x="1205" y="761"/>
      <point x="1229" y="768"/>
    </contour>
    <contour>
      <point x="1402" y="86" type="curve"/>
      <point x="1196" y="-153"/>
      <point x="1187" y="-172"/>
      <point x="1212" y="-267" type="curve" smooth="yes"/>
      <point x="1245" y="-393"/>
      <point x="1236" y="-401"/>
      <point x="1104" y="-464" type="curve"/>
      <point x="1108" y="-474"/>
      <point x="1117" y="-489"/>
      <point x="1125" y="-500" type="curve"/>
      <point x="1375" y="-391"/>
      <point x="1395" y="-360"/>
      <point x="1365" y="-207" type="curve" smooth="yes"/>
      <point x="1343" y="-96"/>
      <point x="1344" y="-84"/>
      <point x="1501" y="180" type="curve"/>
      <point x="1492" y="187"/>
      <point x="1409" y="84"/>
    </contour>
    <contour>
      <point x="887" y="1050" type="move" name="U"/>
    </contour>
    <contour>
      <point x="698" y="-100" type="move" name="L"/>
    </contour>
  </outline>
</glyph>
<glyph name="CyCapKaDesc" format="1">
  <advance width="1135"/>
  <unicode hex="049A"/>
  <outline>
    <contour>
      <point x="678" y="678" type="line"/>
      <point x="716" y="722"/>
      <point x="751" y="791"/>
      <point x="792" y="895" type="curve" smooth="yes"/>
      <point x="869" y="1089"/>
      <point x="914" y="1127"/>
      <point x="955" y="1127" type="curve" smooth="yes"/>
      <point x="991" y="1127"/>
      <point x="1009" y="1098"/>
      <point x="1012" y="955" type="curve"/>
      <point x="1062" y="955" type="line"/>
      <point x="1122" y="1098"/>
      <point x="1171" y="1235"/>
      <point x="1150" y="1245" type="curve" smooth="yes"/>
      <point x="1113" y="1262"/>
      <point x="1056" y="1276"/>
      <point x="1021" y="1276" type="curve" smooth="yes"/>
      <point x="903" y="1276"/>
      <point x="839" y="1241"/>
      <point x="718" y="953" type="curve" smooth="yes"/>
      <point x="614" y="708"/>
      <point x="591" y="704"/>
      <point x="538" y="704" type="curve" smooth="yes"/>
      <point x="375" y="704" type="line"/>
      <point x="437" y="1155" type="line" smooth="yes"/>
      <point x="439" y="1174"/>
      <point x="493" y="1198"/>
      <point x="576" y="1217" type="curve"/>
      <point x="582" y="1260" type="line"/>
      <point x="177" y="1260" type="line"/>
      <point x="171" y="1217" type="line"/>
      <point x="255" y="1198"/>
      <point x="295" y="1171"/>
      <point x="293" y="1155" type="curve" smooth="yes"/>
      <point x="149" y="104" type="line" smooth="yes"/>
      <point x="145" y="75"/>
      <point x="44" y="48"/>
      <point x="10" y="43" type="curve"/>
      <point x="5" y="0" type="line"/>
      <point x="410" y="0" type="line"/>
      <point x="415" y="43" type="line"/>
      <point x="366" y="53"/>
      <point x="289" y="78"/>
      <point x="293" y="104" type="curve" smooth="yes"/>
      <point x="363" y="614" type="line"/>
      <point x="403" y="614"/>
      <point x="493" y="614"/>
      <point x="542" y="615" type="curve" smooth="yes"/>
      <point x="552" y="615"/>
      <point x="562" y="616"/>
      <point x="571" y="617" type="curve"/>
      <point x="755" y="41" type="line" smooth="yes"/>
      <point x="767" y="3"/>
      <point x="803" y="-14"/>
      <point x="838" y="-14" type="curve" smooth="yes"/>
      <point x="853" y="-14"/>
      <point x="870" y="-12"/>
      <point x="887" y="-9" type="curve"/>
      <point x="916" y="-47"/>
      <point x="912" y="-202"/>
      <point x="885" y="-380" type="curve"/>
      <point x="928" y="-380" type="line"/>
      <point x="977" y="-261"/>
      <point x="1043" y="-62"/>
      <point x="1067" y="65" type="curve"/>
      <point x="1043" y="90" type="line"/>
      <point x="953" y="73"/>
      <point x="929" y="82"/>
      <point x="905" y="139" type="curve" smooth="yes"/>
    </contour>
    <contour>
      <point x="512" y="-100" type="move" name="L"/>
    </contour>
    <contour>
      <point x="709" y="1320" type="move" name="U"/>
    </contour>
  </outline>
</glyph>
<glyph name="CyCapEsDesc" format="1">
  <advance width="995"/>
  <unicode hex="04AA"/>
  <outline>
    <contour>
      <point x="235" y="-342" type="line"/>
      <point x="281" y="-383"/>
      <point x="352" y="-416"/>
      <point x="422" y="-416" type="curve" smooth="yes"/>
      <point x="510" y="-416"/>
      <point x="593" y="-366"/>
      <point x="606" y="-274" type="curve"/>
      <point x="617" y="-183"/>
      <point x="564" y="-90"/>
      <point x="436" y="13" type="curve"/>
      <point x="385" y="-6" type="line"/>
      <point x="465" y="-74"/>
      <point x="479" y="-170"/>
      <point x="472" y="-220" type="curve" smooth="yes"/>
      <point x="465" y="-268"/>
      <point x="431" y="-320"/>
      <point x="365" y="-320" type="curve" smooth="yes"/>
      <point x="339" y="-320"/>
      <point x="293" y="-315"/>
      <point x="255" y="-296" type="curve"/>
    </contour>
    <contour>
      <point x="1016" y="1190" type="curve"/>
      <point x="958" y="1245"/>
      <point x="864" y="1290"/>
      <point x="733" y="1290" type="curve" smooth="yes"/>
      <point x="608" y="1290"/>
      <point x="494" y="1243"/>
      <point x="397" y="1167" type="curve" smooth="yes"/>
      <point x="172" y="989"/>
      <point x="76" y="711"/>
      <point x="76" y="459" type="curve" smooth="yes"/>
      <point x="76" y="150"/>
      <point x="256" y="-27"/>
      <point x="457" y="-27" type="curve" smooth="yes"/>
      <point x="582" y="-27"/>
      <point x="717" y="29"/>
      <point x="897" y="211" type="curve"/>
      <point x="891" y="219"/>
      <point x="881" y="250"/>
      <point x="868" y="256" type="curve"/>
      <point x="719" y="137"/>
      <point x="618" y="96"/>
      <point x="543" y="96" type="curve" smooth="yes"/>
      <point x="403" y="96"/>
      <point x="227" y="225"/>
      <point x="227" y="516" type="curve" smooth="yes"/>
      <point x="227" y="684"/>
      <point x="293" y="969"/>
      <point x="461" y="1100" type="curve" smooth="yes"/>
      <point x="514" y="1141"/>
      <point x="588" y="1169"/>
      <point x="641" y="1169" type="curve" smooth="yes"/>
      <point x="750" y="1169"/>
      <point x="827" y="1124"/>
      <point x="881" y="1065" type="curve"/>
      <point x="911" y="1057" type="line"/>
      <point x="946" y="1087"/>
      <point x="1026" y="1178"/>
    </contour>
    <contour>
      <point x="383" y="-600" type="move" name="L"/>
    </contour>
    <contour>
      <point x="686" y="1320" type="move" name="U"/>
    </contour>
  </outline>
</glyph>
<glyph name="CySmEsDesc" format="1">
  <advance width="795"/>
  <unicode hex="04AB"/>
  <outline>
    <contour>
      <point x="88" y="-342" type="line"/>
      <point x="134" y="-383"/>
      <point x="205" y="-416"/>
      <point x="275" y="-416" type="curve" smooth="yes"/>
      <point x="363" y="-416"/>
      <point x="446" y="-366"/>
      <point x="459" y="-274" type="curve"/>
      <point x="470" y="-183"/>
      <point x="417" y="-90"/>
      <point x="289" y="13" type="curve"/>
      <point x="238" y="-6" type="line"/>
      <point x="318" y="-74"/>
      <point x="332" y="-170"/>
      <point x="325" y="-220" type="curve" smooth="yes"/>
      <point x="318" y="-268"/>
      <point x="284" y="-320"/>
      <point x="218" y="-320" type="curve" smooth="yes"/>
      <point x="192" y="-320"/>
      <point x="146" y="-315"/>
      <point x="108" y="-296" type="curve"/>
    </contour>
    <contour>
      <point x="813" y="815" type="curve"/>
      <point x="772" y="829"/>
      <point x="707" y="936"/>
      <point x="590" y="936" type="curve" smooth="yes"/>
      <point x="508" y="936"/>
      <point x="393" y="891"/>
      <point x="319" y="842" type="curve" smooth="yes"/>
      <point x="123" y="711"/>
      <point x="53" y="502"/>
      <point x="53" y="322" type="curve" smooth="yes"/>
      <point x="53" y="41"/>
      <point x="207" y="-41"/>
      <point x="297" y="-41" type="curve" smooth="yes"/>
      <point x="393" y="-41"/>
      <point x="508" y="-10"/>
      <point x="717" y="180" type="curve"/>
      <point x="711" y="190"/>
      <point x="696" y="207"/>
      <point x="686" y="221" type="curve"/>
      <point x="543" y="104"/>
      <point x="444" y="76"/>
      <point x="395" y="76" type="curve" smooth="yes"/>
      <point x="281" y="76"/>
      <point x="199" y="186"/>
      <point x="199" y="358" type="curve" smooth="yes"/>
      <point x="199" y="545"/>
      <point x="295" y="831"/>
      <point x="477" y="831" type="curve" smooth="yes"/>
      <point x="563" y="831"/>
      <point x="621" y="721"/>
      <point x="649" y="721" type="curve" smooth="yes"/>
      <point x="684" y="721"/>
      <point x="756" y="774"/>
    </contour>
    <contour>
      <point x="271" y="-600" type="move" name="L"/>
    </contour>
    <contour>
      <point x="530" y="1000" type="move" name="U"/>
    </contour>
  </outline>
</glyph>
<glyph name="CyCapStraightU" format="1">
  <advance width="1124"/>
  <unicode hex="04AE"/>
  <outline>
    <contour>
      <point x="718" y="0" type="line"/>
      <point x="723" y="43" type="line"/>
      <point x="614" y="68"/>
      <point x="582" y="98"/>
      <point x="584" y="115" type="curve" smooth="yes"/>
      <point x="656" y="637" type="line"/>
      <point x="512" y="637" type="line"/>
      <point x="440" y="115" type="line" smooth="yes"/>
      <point x="438" y="96"/>
      <point x="395" y="68"/>
      <point x="282" y="43" type="curve"/>
      <point x="277" y="0" type="line"/>
    </contour>
    <contour>
      <point x="607" y="680" type="line"/>
      <point x="436" y="1133" type="line" smooth="yes"/>
      <point x="413" y="1194"/>
      <point x="441" y="1206"/>
      <point x="544" y="1217" type="curve"/>
      <point x="550" y="1260" type="line"/>
      <point x="148" y="1260" type="line"/>
      <point x="142" y="1217" type="line"/>
      <point x="220" y="1204"/>
      <point x="247" y="1195"/>
      <point x="272" y="1133" type="curve" smooth="yes"/>
      <point x="518" y="489" type="line"/>
      <point x="608" y="489" type="line"/>
      <point x="1028" y="1151" type="line" smooth="yes"/>
      <point x="1050" y="1185"/>
      <point x="1093" y="1200"/>
      <point x="1177" y="1217" type="curve"/>
      <point x="1183" y="1260" type="line"/>
      <point x="827" y="1260" type="line"/>
      <point x="821" y="1217" type="line"/>
      <point x="912" y="1204"/>
      <point x="935" y="1186"/>
      <point x="912" y="1151" type="curve" smooth="yes"/>
    </contour>
    <contour>
      <point x="482" y="-100" type="move" name="L"/>
    </contour>
    <contour>
      <point x="678" y="1320" type="move" name="U"/>
    </contour>
  </outline>
</glyph>
<glyph name="CySmStraightU" format="1">
  <advance width="906"/>
  <unicode hex="04AF"/>
  <outline>
    <contour>
      <point x="930" y="859" type="curve"/>
      <point x="936" y="901" type="line"/>
      <point x="650" y="901" type="line"/>
      <point x="645" y="859" type="line"/>
      <point x="729" y="845"/>
      <point x="745" y="833"/>
      <point x="727" y="793" type="curve"/>
      <point x="427" y="179" type="line"/>
      <point x="258" y="793" type="line" smooth="yes"/>
      <point x="247" y="834"/>
      <point x="274" y="847"/>
      <point x="366" y="859" type="curve"/>
      <point x="372" y="901" type="line"/>
      <point x="32" y="901" type="line"/>
      <point x="26" y="859" type="line"/>
      <point x="82" y="845"/>
      <point x="110" y="829"/>
      <point x="115" y="793" type="curve"/>
      <point x="329" y="-10" type="line"/>
      <point x="426" y="-10" type="line"/>
      <point x="824" y="793" type="line" smooth="yes"/>
      <point x="843" y="831"/>
      <point x="856" y="841"/>
    </contour>
    <contour>
      <point x="326" y="104" type="line"/>
      <point x="260" y="-378" type="line" smooth="yes"/>
      <point x="257" y="-400"/>
      <point x="224" y="-419"/>
      <point x="120" y="-438" type="curve"/>
      <point x="114" y="-480" type="line"/>
      <point x="511" y="-480" type="line"/>
      <point x="517" y="-438" type="line"/>
      <point x="423" y="-421"/>
      <point x="390" y="-398"/>
      <point x="393" y="-378" type="curve" smooth="yes"/>
      <point x="468" y="173" type="line"/>
    </contour>
    <contour>
      <point x="294" y="-600" type="move" name="L"/>
    </contour>
    <contour>
      <point x="516" y="1000" type="move" name="U"/>
    </contour>
  </outline>
</glyph>
<glyph name="CySmStraightUStrk" format="1">
  <advance width="906"/>
  <unicode hex="04B1"/>
  <outline>
    <contour>
      <point x="930" y="859" type="curve"/>
      <point x="936" y="901" type="line"/>
      <point x="650" y="901" type="line"/>
      <point x="645" y="859" type="line"/>
      <point x="729" y="845"/>
      <point x="745" y="833"/>
      <point x="727" y="793" type="curve"/>
      <point x="427" y="179" type="line"/>
      <point x="258" y="793" type="line" smooth="yes"/>
      <point x="247" y="834"/>
      <point x="274" y="847"/>
      <point x="366" y="859" type="curve"/>
      <point x="372" y="901" type="line"/>
      <point x="32" y="901" type="line"/>
      <point x="26" y="859" type="line"/>
      <point x="82" y="845"/>
      <point x="110" y="829"/>
      <point x="115" y="793" type="curve"/>
      <point x="316" y="36" type="line"/>
      <point x="260" y="-378" type="line" smooth="yes"/>
      <point x="257" y="-400"/>
      <point x="224" y="-419"/>
      <point x="120" y="-438" type="curve"/>
      <point x="114" y="-480" type="line"/>
      <point x="511" y="-480" type="line"/>
      <point x="517" y="-438" type="line"/>
      <point x="423" y="-421"/>
      <point x="390" y="-398"/>
      <point x="393" y="-378" type="curve" smooth="yes"/>
      <point x="449" y="37" type="line"/>
      <point x="824" y="793" type="line" smooth="yes"/>
      <point x="843" y="831"/>
      <point x="856" y="841"/>
    </contour>
    <contour>
      <point x="763" y="65" type="line"/>
      <point x="744" y="90" type="line"/>
      <point x="51" y="90" type="line"/>
      <point x="39" y="69"/>
      <point x="29" y="43"/>
      <point x="20" y="22" type="curve"/>
      <point x="39" y="0" type="line"/>
      <point x="732" y="0" type="line"/>
    </contour>
    <contour>
      <point x="294" y="-600" type="move" name="L"/>
    </contour>
    <contour>
      <point x="516" y="1000" type="move" name="U"/>
    </contour>
  </outline>
</glyph>
<glyph name="CySmHaDesc" format="1">
  <advance width="901"/>
  <unicode hex="04B3"/>
  <outline>
    <contour>
      <point x="893" y="883" type="curve"/>
      <point x="893" y="911"/>
      <point x="870" y="936"/>
      <point x="807" y="936" type="curve" smooth="yes"/>
      <point x="774" y="936"/>
      <point x="702" y="930"/>
      <point x="614" y="911" type="curve"/>
      <point x="616" y="870" type="line"/>
      <point x="702" y="879"/>
      <point x="713" y="866"/>
      <point x="713" y="838" type="curve" smooth="yes"/>
      <point x="713" y="817"/>
      <point x="584" y="633"/>
      <point x="465" y="496" type="curve"/>
      <point x="461" y="465"/>
      <point x="500" y="410"/>
      <point x="500" y="410" type="curve"/>
      <point x="756" y="690"/>
      <point x="893" y="829"/>
    </contour>
    <contour>
      <point x="877" y="72" type="curve"/>
      <point x="860" y="109" type="line"/>
      <point x="811" y="84"/>
      <point x="770" y="76"/>
      <point x="739" y="76" type="curve" smooth="yes"/>
      <point x="604" y="76"/>
      <point x="414" y="936"/>
      <point x="266" y="936" type="curve" smooth="yes"/>
      <point x="238" y="936"/>
      <point x="139" y="889"/>
      <point x="27" y="840" type="curve"/>
      <point x="41" y="801" type="line"/>
      <point x="41" y="801"/>
      <point x="143" y="827"/>
      <point x="166" y="827" type="curve" smooth="yes"/>
      <point x="305" y="827"/>
      <point x="477" y="-41"/>
      <point x="653" y="-41" type="curve" smooth="yes"/>
      <point x="705" y="-41"/>
      <point x="762" y="-8"/>
    </contour>
    <contour>
      <point x="438" y="369" type="curve"/>
      <point x="440" y="399"/>
      <point x="406" y="459"/>
      <point x="406" y="459" type="curve"/>
      <point x="287" y="313"/>
      <point x="102" y="109"/>
      <point x="-29" y="-6" type="curve"/>
      <point x="-6" y="-41" type="line"/>
      <point x="43" y="-27"/>
      <point x="111" y="-16"/>
      <point x="160" y="-10" type="curve"/>
      <point x="266" y="150"/>
      <point x="383" y="289"/>
    </contour>
    <contour>
      <point x="839" y="78" type="curve"/>
      <point x="577" y="-143"/>
      <point x="538" y="-182"/>
      <point x="562" y="-267" type="curve" smooth="yes"/>
      <point x="597" y="-392"/>
      <point x="586" y="-401"/>
      <point x="454" y="-464" type="curve"/>
      <point x="458" y="-474"/>
      <point x="467" y="-489"/>
      <point x="475" y="-500" type="curve"/>
      <point x="725" y="-391"/>
      <point x="750" y="-361"/>
      <point x="715" y="-207" type="curve" smooth="yes"/>
      <point x="700" y="-140"/>
      <point x="725" y="-75"/>
      <point x="877" y="72" type="curve"/>
      <point x="868" y="79"/>
      <point x="846" y="76"/>
    </contour>
    <contour>
      <point x="303" y="-600" type="move" name="L"/>
    </contour>
    <contour>
      <point x="526" y="1000" type="move" name="U"/>
    </contour>
  </outline>
</glyph>
<glyph name="CySmLigTeTse" format="1">
  <advance width="1194"/>
  <unicode hex="04B5"/>
  <outline>
    <contour>
      <point x="798" y="898" type="curve"/>
      <point x="776" y="915" type="line"/>
      <point x="112" y="915" type="line"/>
      <point x="93" y="864"/>
      <point x="46" y="641"/>
      <point x="39" y="584" type="curve"/>
      <point x="80" y="584" type="line"/>
      <point x="128" y="726"/>
      <point x="192" y="827"/>
      <point x="229" y="827" type="curve" smooth="yes"/>
      <point x="316" y="827" type="line" smooth="yes"/>
      <point x="330" y="827"/>
      <point x="337" y="821"/>
      <point x="337" y="760" type="curve" smooth="yes"/>
      <point x="337" y="662"/>
      <point x="263" y="324"/>
      <point x="263" y="205" type="curve" smooth="yes"/>
      <point x="263" y="43"/>
      <point x="332" y="-41"/>
      <point x="440" y="-41" type="curve" smooth="yes"/>
      <point x="602" y="-41"/>
      <point x="722" y="86"/>
      <point x="847" y="256" type="curve"/>
      <point x="844" y="223"/>
      <point x="844" y="232"/>
      <point x="844" y="194" type="curve" smooth="yes"/>
      <point x="844" y="153"/>
      <point x="850" y="-41"/>
      <point x="934" y="-41" type="curve" smooth="yes"/>
      <point x="954" y="-41"/>
      <point x="1011" y="-11"/>
      <point x="1063" y="21" type="curve"/>
      <point x="863" y="-149"/>
      <point x="832" y="-190"/>
      <point x="854" y="-267" type="curve" smooth="yes"/>
      <point x="889" y="-392"/>
      <point x="878" y="-401"/>
      <point x="746" y="-464" type="curve"/>
      <point x="750" y="-474"/>
      <point x="759" y="-489"/>
      <point x="767" y="-500" type="curve"/>
      <point x="1017" y="-391"/>
      <point x="1042" y="-361"/>
      <point x="1007" y="-207" type="curve" smooth="yes"/>
      <point x="992" y="-140"/>
      <point x="1011" y="-81"/>
      <point x="1162" y="65" type="curve" smooth="yes"/>
      <point x="1166" y="68" type="line"/>
      <point x="1152" y="104" type="line"/>
      <point x="1097" y="84"/>
      <point x="1059" y="76"/>
      <point x="1037" y="76" type="curve" smooth="yes"/>
      <point x="1015" y="76"/>
      <point x="986" y="121"/>
      <point x="986" y="243" type="curve" smooth="yes"/>
      <point x="986" y="348"/>
      <point x="1032" y="623"/>
      <point x="1089" y="905" type="curve"/>
      <point x="1056" y="936" type="line"/>
      <point x="1023" y="918"/>
      <point x="953" y="887"/>
      <point x="913" y="870" type="curve"/>
      <point x="920" y="806"/>
      <point x="909" y="718"/>
      <point x="889" y="570" type="curve" smooth="yes"/>
      <point x="852" y="293"/>
      <point x="631" y="80"/>
      <point x="514" y="80" type="curve" smooth="yes"/>
      <point x="435" y="80"/>
      <point x="416" y="135"/>
      <point x="416" y="262" type="curve" smooth="yes"/>
      <point x="416" y="371"/>
      <point x="497" y="721"/>
      <point x="490" y="827" type="curve"/>
      <point x="641" y="827" type="line" smooth="yes"/>
      <point x="678" y="827"/>
      <point x="684" y="708"/>
      <point x="674" y="584" type="curve"/>
      <point x="716" y="584" type="line"/>
      <point x="737" y="639"/>
      <point x="787" y="848"/>
    </contour>
    <contour>
      <point x="519" y="-600" type="move" name="L"/>
    </contour>
    <contour>
      <point x="741" y="1000" type="move" name="U"/>
    </contour>
  </outline>
</glyph>
<glyph name="CySmCheDesc" format="1">
  <advance width="961"/>
  <unicode hex="04B7"/>
  <outline>
    <contour>
      <point x="598" y="143" type="curve" smooth="yes"/>
      <point x="598" y="102"/>
      <point x="606" y="-41"/>
      <point x="690" y="-41" type="curve" smooth="yes"/>
      <point x="723" y="-41"/>
      <point x="797" y="-17"/>
      <point x="922" y="68" type="curve"/>
      <point x="908" y="104" type="line"/>
      <point x="853" y="84"/>
      <point x="815" y="76"/>
      <point x="793" y="76" type="curve" smooth="yes"/>
      <point x="771" y="76"/>
      <point x="739" y="89"/>
      <point x="739" y="200" type="curve" smooth="yes"/>
      <point x="739" y="332"/>
      <point x="788" y="623"/>
      <point x="845" y="905" type="curve"/>
      <point x="812" y="936" type="line"/>
      <point x="779" y="918"/>
      <point x="709" y="887"/>
      <point x="669" y="870" type="curve"/>
      <point x="676" y="806"/>
      <point x="670" y="728"/>
      <point x="651" y="615" type="curve" smooth="yes"/>
      <point x="638" y="539"/>
      <point x="491" y="420"/>
      <point x="380" y="420" type="curve" smooth="yes"/>
      <point x="317" y="420"/>
      <point x="287" y="448"/>
      <point x="299" y="572" type="curve" smooth="yes"/>
      <point x="304" y="621"/>
      <point x="342" y="775"/>
      <point x="342" y="852" type="curve" smooth="yes"/>
      <point x="342" y="913"/>
      <point x="332" y="936"/>
      <point x="293" y="936" type="curve" smooth="yes"/>
      <point x="260" y="936"/>
      <point x="140" y="891"/>
      <point x="27" y="840" type="curve"/>
      <point x="39" y="803" type="line"/>
      <point x="39" y="803"/>
      <point x="119" y="827"/>
      <point x="142" y="827" type="curve" smooth="yes"/>
      <point x="166" y="827"/>
      <point x="183" y="821"/>
      <point x="183" y="760" type="curve" smooth="yes"/>
      <point x="183" y="713"/>
      <point x="150" y="565"/>
      <point x="146" y="515" type="curve" smooth="yes"/>
      <point x="132" y="321"/>
      <point x="221" y="299"/>
      <point x="296" y="299" type="curve" smooth="yes"/>
      <point x="389" y="299"/>
      <point x="505" y="353"/>
      <point x="631" y="469" type="curve"/>
      <point x="620" y="400"/>
      <point x="598" y="234"/>
    </contour>
    <contour>
      <point x="886" y="78" type="curve"/>
      <point x="624" y="-143"/>
      <point x="585" y="-182"/>
      <point x="609" y="-267" type="curve" smooth="yes"/>
      <point x="644" y="-392"/>
      <point x="633" y="-401"/>
      <point x="501" y="-464" type="curve"/>
      <point x="505" y="-474"/>
      <point x="514" y="-489"/>
      <point x="522" y="-500" type="curve"/>
      <point x="772" y="-391"/>
      <point x="797" y="-361"/>
      <point x="762" y="-207" type="curve" smooth="yes"/>
      <point x="747" y="-140"/>
      <point x="770" y="-79"/>
      <point x="922" y="68" type="curve"/>
      <point x="913" y="75"/>
      <point x="893" y="76"/>
    </contour>
    <contour>
      <point x="304" y="-600" type="move" name="L"/>
    </contour>
    <contour>
      <point x="529" y="1000" type="move" name="U"/>
    </contour>
  </outline>
</glyph>
<glyph name="CySmShha" format="1">
  <advance width="1097"/>
  <unicode hex="04BB"/>
  <outline>
    <component base="LtnSmH"/>
    <contour>
      <point x="165" y="0" type="move" name="H"/>
    </contour>
    <contour>
      <point x="467" y="-100" type="move" name="L"/>
    </contour>
    <contour>
      <point x="700" y="1580" type="move" name="U"/>
    </contour>
  </outline>
</glyph>
<glyph name="CyCapAbkhasCheDesc" format="1">
  <advance width="1235"/>
  <unicode hex="04BE"/>
  <outline>
    <contour>
      <point x="920" y="32" type="line"/>
      <point x="508" y="44" type="line"/>
      <point x="567" y="1" type="line" smooth="yes"/>
      <point x="601" y="-24"/>
      <point x="621" y="-153"/>
      <point x="592" y="-380" type="curve"/>
      <point x="644" y="-380" type="line"/>
      <point x="718" y="-137"/>
      <point x="781" y="-17"/>
      <point x="829" y="0" type="curve" smooth="yes"/>
    </contour>
    <contour>
      <point x="1060" y="670" type="line"/>
      <point x="1086" y="670"/>
      <point x="1195" y="733"/>
      <point x="1217" y="758" type="curve"/>
      <point x="1257" y="1050"/>
      <point x="1169" y="1290"/>
      <point x="921" y="1290" type="curve" smooth="yes"/>
      <point x="670" y="1290"/>
      <point x="389" y="1002"/>
      <point x="331" y="582" type="curve" smooth="yes"/>
      <point x="278" y="195"/>
      <point x="477" y="-30"/>
      <point x="692" y="-30" type="curve" smooth="yes"/>
      <point x="846" y="-30"/>
      <point x="946" y="20"/>
      <point x="1134" y="209" type="curve"/>
      <point x="1129" y="217"/>
      <point x="1119" y="248"/>
      <point x="1107" y="254" type="curve"/>
      <point x="946" y="131"/>
      <point x="870" y="85"/>
      <point x="771" y="85" type="curve" smooth="yes"/>
      <point x="609" y="85"/>
      <point x="428" y="265"/>
      <point x="476" y="619" type="curve" smooth="yes"/>
      <point x="533" y="1035"/>
      <point x="705" y="1175"/>
      <point x="864" y="1175" type="curve" smooth="yes"/>
      <point x="1027" y="1175"/>
      <point x="1085" y="976"/>
      <point x="1063" y="811" type="curve" smooth="yes"/>
      <point x="1059" y="783"/>
      <point x="1040" y="760"/>
      <point x="1020" y="760" type="curve" smooth="yes"/>
      <point x="330" y="760" type="line" smooth="yes"/>
      <point x="241" y="760"/>
      <point x="226" y="856"/>
      <point x="234" y="913" type="curve" smooth="yes"/>
      <point x="243" y="980"/>
      <point x="294" y="1051"/>
      <point x="367" y="1099" type="curve"/>
      <point x="363" y="1110"/>
      <point x="359" y="1121"/>
      <point x="355" y="1127" type="curve"/>
      <point x="320" y="1118"/>
      <point x="182" y="1068"/>
      <point x="141" y="1044" type="curve"/>
      <point x="109" y="999"/>
      <point x="85" y="950"/>
      <point x="78" y="901" type="curve" smooth="yes"/>
      <point x="64" y="800"/>
      <point x="97" y="670"/>
      <point x="276" y="670" type="curve" smooth="yes"/>
    </contour>
    <contour>
      <point x="609" y="-500" type="move" name="L"/>
    </contour>
    <contour>
      <point x="945" y="1435" type="move" name="U"/>
    </contour>
  </outline>
</glyph>
<glyph name="CyCapZheBreve" format="1">
  <advance width="1584"/>
  <unicode hex="04C1"/>
  <outline>
    <component base="CyCapZhe"/>
    <component base="CombBreve.CyShortMrkAlt.UCHt" xOffset="1342" yOffset="-50"/>
    <contour>
      <point x="988" y="1700" type="move" name="U"/>
    </contour>
    <contour>
      <point x="725" y="-100" type="move" name="L"/>
    </contour>
  </outline>
</glyph>
<glyph name="CySmKaHook" format="1">
  <advance width="962"/>
  <unicode hex="04C4"/>
  <outline>
    <contour>
      <point x="931" y="895" type="curve" smooth="yes"/>
      <point x="902" y="919"/>
      <point x="866" y="936"/>
      <point x="823" y="936" type="curve" smooth="yes"/>
      <point x="724" y="936"/>
      <point x="578" y="836"/>
      <point x="291" y="426" type="curve"/>
      <point x="317" y="510"/>
      <point x="348" y="774"/>
      <point x="348" y="823" type="curve" smooth="yes"/>
      <point x="348" y="918"/>
      <point x="346" y="936"/>
      <point x="309" y="936" type="curve" smooth="yes"/>
      <point x="276" y="936"/>
      <point x="154" y="891"/>
      <point x="41" y="842" type="curve"/>
      <point x="55" y="803" type="line"/>
      <point x="55" y="803"/>
      <point x="139" y="829"/>
      <point x="162" y="829" type="curve" smooth="yes"/>
      <point x="186" y="829"/>
      <point x="199" y="823"/>
      <point x="199" y="762" type="curve" smooth="yes"/>
      <point x="199" y="668"/>
      <point x="133" y="242"/>
      <point x="66" y="-10" type="curve"/>
      <point x="98" y="-41" type="line"/>
      <point x="131" y="-24"/>
      <point x="197" y="4"/>
      <point x="233" y="20" type="curve"/>
      <point x="237" y="255"/>
      <point x="335" y="365"/>
      <point x="434" y="496" type="curve" smooth="yes"/>
      <point x="612" y="733"/>
      <point x="712" y="794"/>
      <point x="773" y="794" type="curve" smooth="yes"/>
      <point x="810" y="794"/>
      <point x="853" y="754"/>
      <point x="847" y="627" type="curve"/>
      <point x="860" y="621"/>
      <point x="872" y="618"/>
      <point x="885" y="616" type="curve"/>
      <point x="927" y="758"/>
      <point x="944" y="885"/>
    </contour>
    <contour>
      <point x="543" y="535" type="curve" smooth="yes"/>
      <point x="461" y="535"/>
      <point x="390" y="516"/>
      <point x="237" y="224" type="curve"/>
      <point x="249" y="200"/>
      <point x="262" y="212"/>
      <point x="262" y="212" type="curve"/>
      <point x="295" y="314"/>
      <point x="375" y="441"/>
      <point x="459" y="441" type="curve" smooth="yes"/>
      <point x="610" y="441"/>
      <point x="683" y="240"/>
      <point x="632" y="-93" type="curve" smooth="yes"/>
      <point x="608" y="-249"/>
      <point x="533" y="-386"/>
      <point x="423" y="-386" type="curve" smooth="yes"/>
      <point x="324" y="-386"/>
      <point x="275" y="-299"/>
      <point x="252" y="-299" type="curve" smooth="yes"/>
      <point x="223" y="-299"/>
      <point x="143" y="-387"/>
      <point x="143" y="-422" type="curve" smooth="yes"/>
      <point x="143" y="-446"/>
      <point x="242" y="-501"/>
      <point x="339" y="-501" type="curve" smooth="yes"/>
      <point x="386" y="-501"/>
      <point x="493" y="-466"/>
      <point x="572" y="-403" type="curve" smooth="yes"/>
      <point x="666" y="-328"/>
      <point x="749" y="-195"/>
      <point x="777" y="-35" type="curve" smooth="yes"/>
      <point x="824" y="230"/>
      <point x="768" y="535"/>
    </contour>
    <contour>
      <point x="365" y="-600" type="move" name="L"/>
    </contour>
    <contour>
      <point x="580" y="1000" type="move" name="U"/>
    </contour>
  </outline>
</glyph>
